<svg width="100%" height="100%" viewBox="0 0 239 36" fill="none" xmlns="http://www.w3.org/2000/svg" preserveAspectRatio="none"><g clip-path="url(#clip0_55_65)"><path d="M218.414 24.4468V6.04116H208.13V0H239L233.039 6.04116H225.779V24.4468H218.414Z" fill="white" data-color-group="0"/><path d="M150.444 14.9838L154.906 6.58795L159.368 14.9838H159.394L150.426 14.9926H150.452L150.444 14.9838ZM159.307 0H151.019L137.432 24.4468H145.398L147.716 20.0813H162.061L164.397 24.4468H172.52L159.307 0Z" fill="white" data-color-group="0"/><path d="M135.663 0H127.758V24.4468H135.663V0Z" fill="white" data-color-group="0"/><path d="M99.2674 24.4468V0H125.98V5.53846H106.588V9.66585H125.004V14.49H106.588V24.4468H99.2674Z" fill="white" data-color-group="0"/><path d="M70.655 0H97.4982V5.53846H77.9062V9.66585H96.5918V14.49H77.9062V18.9084H97.4982V24.4468H70.655V0Z" fill="white" data-color-group="0"/><path d="M43.9164 18.635L56.2312 18.6526C57.6256 18.6526 58.6192 18.5556 59.2205 18.3704C60.1182 18.097 60.7196 17.5502 61.0246 16.7212C61.3296 15.901 61.4865 14.4282 61.4865 12.3204C61.4865 10.8388 61.4081 9.70995 61.2425 8.93386C61.0769 8.15777 60.7893 7.55806 60.3797 7.14356C59.7086 6.45566 58.3664 6.10289 56.3619 6.10289L43.9252 6.08525V18.635H43.9164ZM36.796 24.4468V0L57.4339 0.0264576C59.5779 0.0264576 61.3819 0.167565 62.8287 0.423322C65.0598 0.820186 66.6634 1.89613 67.6395 3.65997C67.9794 4.29495 68.2322 4.99167 68.3978 5.76776C68.5634 6.53503 68.6854 7.61098 68.7725 8.97795C68.8422 10.1244 68.8771 11.218 68.8771 12.2587C68.8771 14.7634 68.7638 16.8094 68.5372 18.3969C68.3019 19.949 67.6482 21.2807 66.5937 22.392C65.8006 23.2122 64.8506 23.7678 63.7438 24.05C62.6369 24.3322 60.8503 24.4733 58.3839 24.4733L36.7873 24.4468H36.796Z" fill="white" data-color-group="0"/><path d="M35.0356 0H24.2373L12.123 12.2675L24.1588 24.4468H34.9833L22.9387 12.2234L35.0356 0Z" fill="white" data-color-group="0"/><path d="M0.0784378 24.4468L5.73468 18.732L11.3822 24.4468H5.67367H0.0784378Z" fill="white" data-color-group="0"/><path d="M0 0L5.73467 5.80304L11.4606 0H5.67367H0Z" fill="white" data-color-group="0"/><path d="M206.352 0H198.456V16.4478L182.194 0H174.298V24.4468H182.194V11.2709L195.214 24.4468H206.352V0Z" fill="white" data-color-group="0"/><path d="M155.978 34.5007L155.176 32.9926L154.383 34.5007H155.978ZM154.427 32.1901H155.943L157.982 35.9647H156.745L156.379 35.2945H153.973L153.616 35.9647H152.326L154.427 32.1901Z" fill="white" data-color-group="0"/><path d="M161.033 32.1901V34.0598C161.033 34.4743 161.033 34.4831 161.05 34.5889C161.103 35.0122 161.294 35.1004 162.14 35.1004C162.985 35.1004 163.22 35.074 163.36 34.9681C163.473 34.88 163.525 34.7212 163.534 34.4302C163.534 34.3714 163.534 34.2038 163.534 33.9275V32.1989H164.667V34.1832C164.676 35.1181 164.597 35.3915 164.266 35.6913C163.996 35.903 163.665 35.9912 163.177 36C163.002 36 162.907 36 162.68 36H162.253C161.198 36 160.998 35.9912 160.719 35.9118C160.039 35.7001 159.865 35.3474 159.882 34.2273V32.1989H161.015L161.033 32.1901Z" fill="white" data-color-group="0"/><path d="M168.755 35.1269C168.981 35.1269 169.025 35.1269 169.103 35.1004C169.216 35.0652 169.286 34.9505 169.286 34.7918C169.286 34.633 169.216 34.5184 169.094 34.4654C169.025 34.439 168.981 34.439 168.728 34.439H166.724V35.1269H168.755ZM168.633 33.6982C168.85 33.6982 168.929 33.6894 168.999 33.6541C169.086 33.6012 169.147 33.5042 169.147 33.3719C169.147 33.2219 169.077 33.1073 168.955 33.0632C168.885 33.0367 168.824 33.0367 168.606 33.0367H166.733V33.707H168.641L168.633 33.6982ZM165.617 32.1901H168.981C169.408 32.1901 169.644 32.2254 169.844 32.3224C170.149 32.4811 170.271 32.7369 170.271 33.2131C170.271 33.6894 170.105 33.9628 169.748 34.0245C170.254 34.1215 170.419 34.342 170.419 34.8888C170.419 35.365 170.288 35.6649 169.992 35.8236C169.818 35.9118 169.574 35.9559 169.138 35.9559H165.617V32.1813V32.1901Z" fill="white" data-color-group="0"/><path d="M172.45 32.1901H171.317V35.9647H172.45V32.1901Z" fill="white" data-color-group="0"/><path d="M174.481 34.7565C174.489 35.0211 174.515 35.0828 174.655 35.1269C174.742 35.1622 175.056 35.1798 175.413 35.1798C176.729 35.1798 176.886 35.1445 176.886 34.827C176.886 34.6771 176.816 34.5625 176.694 34.5184C176.613 34.4948 176.378 34.4801 175.988 34.4743H174.96C174.271 34.4743 173.984 34.439 173.748 34.3067C173.478 34.1656 173.356 33.8657 173.356 33.3542C173.356 32.6751 173.548 32.3841 174.08 32.2606C174.385 32.1813 174.82 32.1548 175.631 32.1548C176.938 32.1548 177.243 32.1901 177.505 32.3665C177.757 32.5429 177.845 32.7722 177.845 33.3366H176.738C176.738 33.0103 176.625 32.9662 175.892 32.9662C175.526 32.9662 175.047 32.975 174.864 32.9926C174.559 33.0191 174.463 33.0985 174.463 33.3101C174.463 33.4689 174.542 33.5659 174.707 33.61C174.777 33.6276 174.794 33.6364 175.169 33.6364H176.224C176.328 33.6364 176.825 33.6541 177.017 33.6629C177.723 33.6982 178.01 34.0157 178.01 34.7741C178.01 35.4708 177.81 35.7795 177.261 35.8942C176.982 35.9559 176.424 35.9912 175.614 35.9912C174.324 35.9912 174.036 35.9647 173.705 35.7971C173.478 35.6825 173.356 35.3915 173.356 34.9505C173.356 34.9152 173.356 34.8447 173.356 34.7653H174.472L174.481 34.7565Z" fill="white" data-color-group="0"/><path d="M180.145 33.2043C179.997 33.319 179.954 33.513 179.954 34.0509C179.954 34.5889 179.997 34.8094 180.137 34.924C180.285 35.0475 180.468 35.074 181.331 35.074C182.307 35.074 182.507 35.0387 182.638 34.8623C182.743 34.73 182.769 34.536 182.769 34.0333C182.769 33.0808 182.751 33.072 181.357 33.072C180.52 33.072 180.294 33.0985 180.145 33.2043ZM182.934 32.2077C183.51 32.3136 183.789 32.6134 183.867 33.2219C183.893 33.3719 183.902 33.6805 183.902 34.1391C183.902 35.0475 183.806 35.4179 183.492 35.6825C183.266 35.8765 182.952 35.9647 182.411 35.9912C182.211 36 181.714 36.0088 181.348 36.0088C180.459 36.0088 180.006 35.9912 179.779 35.9471C179.37 35.8765 179.126 35.7178 178.986 35.4356C178.838 35.1622 178.803 34.88 178.803 34.0509C178.803 33.416 178.812 33.2572 178.882 33.0015C178.986 32.5958 179.204 32.3841 179.623 32.2606C179.936 32.1725 180.276 32.146 181.261 32.146C182.333 32.146 182.664 32.1548 182.926 32.1989" fill="white" data-color-group="0"/><path d="M184.799 32.1901H188.756V33.0456H185.924V33.7952H188.608V34.6507H185.924V35.9647H184.799V32.1901Z" fill="white" data-color-group="0"/><path d="M191.04 33.1249H189.375V32.1901H193.829V33.1249H192.173V35.9647H191.04V33.1249Z" fill="white" data-color-group="0"/><path d="M197.132 33.2043C196.983 33.319 196.94 33.513 196.94 34.0509C196.94 34.5889 196.983 34.8094 197.123 34.924C197.271 35.0475 197.454 35.074 198.317 35.074C199.293 35.074 199.493 35.0387 199.624 34.8623C199.729 34.73 199.755 34.536 199.755 34.0333C199.755 33.0808 199.738 33.072 198.343 33.072C197.506 33.072 197.28 33.0985 197.132 33.2043ZM199.912 32.2077C200.487 32.3136 200.766 32.6134 200.844 33.2219C200.871 33.3719 200.879 33.6805 200.879 34.1391C200.879 35.0475 200.783 35.4179 200.47 35.6825C200.243 35.8765 199.929 35.9647 199.389 35.9912C199.188 36 198.692 36.0088 198.326 36.0088C197.437 36.0088 196.983 35.9912 196.757 35.9471C196.347 35.8765 196.103 35.7178 195.964 35.4356C195.816 35.1622 195.781 34.88 195.781 34.0509C195.781 33.416 195.789 33.2572 195.859 33.0015C195.964 32.5958 196.182 32.3841 196.6 32.2606C196.914 32.1725 197.254 32.146 198.238 32.146C199.31 32.146 199.642 32.1548 199.903 32.1989" fill="white" data-color-group="0"/><path d="M204.679 34.0862C205.228 34.0862 205.333 34.0157 205.333 33.6453C205.333 33.3983 205.307 33.3013 205.237 33.2219C205.15 33.1337 205.054 33.1161 204.714 33.1161H202.901V34.0862H204.67H204.679ZM201.777 32.1901H204.993C205.655 32.1901 205.943 32.243 206.152 32.4282C206.37 32.6046 206.474 32.9221 206.474 33.4336C206.474 34.1391 206.309 34.4125 205.83 34.5184C206.291 34.5977 206.431 34.7918 206.422 35.365V35.9559H205.272V35.4885C205.272 35.0828 205.158 34.9946 204.644 35.0034H202.91V35.9559H201.777V32.1813V32.1901Z" fill="white" data-color-group="0"/><path d="M208.523 32.1901H207.39V35.9647H208.523V32.1901Z" fill="white" data-color-group="0"/><path d="M213.159 33.4689C213.159 33.1778 213.028 33.0632 212.688 33.0544H212H211.59C211.23 33.0544 211.004 33.0661 210.911 33.0897C210.701 33.1426 210.614 33.2484 210.588 33.4865C210.571 33.5923 210.562 33.9363 210.562 34.1744C210.562 34.6859 210.614 34.8888 210.771 34.9946C210.902 35.0828 211.059 35.1093 211.355 35.1181C211.436 35.1181 211.709 35.1181 212.174 35.1181C212.915 35.1181 213.055 35.0828 213.15 34.8359C213.159 34.7918 213.168 34.7388 213.168 34.6242V34.536H211.73V33.8305H214.275V34.3508C214.275 34.977 214.249 35.1974 214.179 35.4003C214.048 35.7531 213.787 35.9206 213.316 35.9735C213.203 35.9824 212.854 35.9912 211.756 35.9912C210.902 35.9912 210.571 35.9735 210.335 35.9206C209.926 35.8324 209.69 35.656 209.56 35.3474C209.446 35.0916 209.42 34.827 209.42 34.1303C209.42 33.319 209.464 33.0015 209.612 32.7369C209.778 32.4458 210.039 32.2871 210.527 32.2254C210.789 32.1901 211.233 32.1725 211.948 32.1725C212.967 32.1725 213.29 32.1901 213.525 32.243C214.1 32.3929 214.283 32.684 214.283 33.4777H213.168L213.159 33.4689Z" fill="white" data-color-group="0"/><path d="M216.305 32.1901H215.172V35.9647H216.305V32.1901Z" fill="white" data-color-group="0"/><path d="M217.281 32.1901H219.086L221.351 35.0563L221.317 32.1901H222.389V35.9647H220.567L218.345 33.1249L218.371 35.9647H217.281V32.1901Z" fill="white" data-color-group="0"/><path d="M226.703 34.5007L225.901 32.9926L225.108 34.5007H226.703ZM225.143 32.1901H226.659L228.698 35.9647H227.461L227.095 35.2945H224.689L224.332 35.9647H223.042L225.143 32.1901Z" fill="white" data-color-group="0"/><path d="M229.23 32.1901H230.363V35.0299H232.925V35.9647H229.23V32.1901Z" fill="white" data-color-group="0"/></g><defs><clipPath id="clip0_55_65"><rect width="239" height="36" fill="white" data-color-group="0"/></clipPath></defs></svg>