<svg width="100%" height="100%" viewBox="0 0 64 17" fill="none" xmlns="http://www.w3.org/2000/svg" preserveAspectRatio="none"><g clip-path="url(#clip0_58_37)"><path d="M7.01282 3.01636V15.4249L9.81657 16.3168V5.91117C9.81657 5.4261 10.0346 5.0975 10.3773 5.20703C10.829 5.3322 10.9225 5.786 10.9225 6.27108V10.4333C12.6671 11.2783 14.0378 10.4333 14.0378 8.1957C14.0378 5.91117 13.2278 4.89407 10.8602 4.0804C9.9256 3.76744 8.19662 3.23542 7.01282 3.01636Z" fill="white" data-color-group="0"/><path d="M10.3456 14.5024L14.8472 12.8907C15.3612 12.7029 15.4391 12.4369 15.0185 12.3118C14.5979 12.1709 13.8503 12.2179 13.3363 12.4056L10.3456 13.4697V11.7797L10.5169 11.7172C10.5169 11.7172 11.3892 11.4042 12.6042 11.279C13.8191 11.1382 15.3145 11.2947 16.4827 11.7328C17.8067 12.1553 17.9469 12.7655 17.6198 13.2036C17.2771 13.6261 16.4671 13.9391 16.4671 13.9391L10.3456 16.1298V14.5024Z" fill="white" data-color-group="0"/><path d="M1.88786 14.3291C0.532708 13.9536 0.314637 13.1555 0.92212 12.6861C1.49845 12.2636 2.46419 11.9506 2.46419 11.9506L6.46734 10.5267V12.1541L3.5857 13.1868C3.07168 13.3746 2.99379 13.6249 3.41436 13.7658C3.83493 13.9066 4.58259 13.8753 5.08103 13.6719L6.46734 13.1712V14.6264C6.37387 14.642 6.28045 14.6577 6.18698 14.6733C4.80067 14.908 3.33648 14.8142 1.88786 14.3291Z" fill="white" data-color-group="0"/><path d="M16.6541 14.9864C17.0435 14.9864 17.3083 15.2837 17.3083 15.6592C17.3083 16.0348 17.0435 16.3321 16.6541 16.3321C16.2647 16.3321 15.9843 16.0348 15.9843 15.6592C15.9999 15.2837 16.2647 14.9864 16.6541 14.9864ZM16.6541 16.2225C16.9812 16.2225 17.2149 15.9722 17.2149 15.6592C17.2149 15.3463 16.9968 15.0959 16.6541 15.0959C16.3114 15.0959 16.0933 15.3463 16.0933 15.6592C16.0933 15.9722 16.3114 16.2225 16.6541 16.2225ZM16.3893 15.268H16.6853C16.8255 15.268 16.9345 15.315 16.9345 15.4715C16.9345 15.5653 16.8878 15.6279 16.7943 15.6592C16.841 15.6749 16.8722 15.7062 16.9033 15.8001C16.9345 15.8783 16.9501 15.9722 16.9812 16.0348H16.841C16.8255 15.9722 16.7943 15.8783 16.7787 15.8313C16.7632 15.7375 16.732 15.7218 16.623 15.7218H16.5295V16.0504H16.3893V15.268ZM16.5295 15.6123H16.6541C16.7476 15.6123 16.8099 15.581 16.8099 15.4871C16.8099 15.3776 16.732 15.3619 16.6697 15.3619H16.5451V15.6123H16.5295Z" fill="white" data-color-group="0"/><path d="M60.5182 12.86H60.2535V12.7661H60.892V12.86H60.6273V13.658H60.5182V12.86Z" fill="white" data-color-group="0"/><path d="M61.4374 13.5641L61.6866 12.7817H61.8733V13.658H61.7646V12.86L61.4995 13.658H61.3594L61.1102 12.86V13.658H61.0011V12.7661H61.1882L61.4374 13.5641Z" fill="white" data-color-group="0"/><path d="M38.3065 13.6573C39.4903 13.6573 40.4405 12.7028 40.4405 11.5136V7.82074C40.4405 7.10097 41.0168 6.52199 41.7333 6.52199H45.8765C45.9079 6.52199 45.939 6.49072 45.939 6.45941V5.72396C45.939 5.69269 45.9079 5.66138 45.8765 5.66138H40.8766C39.6928 5.66138 38.7426 6.61589 38.7426 7.8051V11.498C38.7426 12.2177 38.1663 12.7967 37.4498 12.7967H33.3688C33.3376 12.7967 33.3065 12.828 33.3065 12.8593V13.5947C33.3065 13.626 33.3376 13.6573 33.3688 13.6573H38.3065Z" fill="white" data-color-group="0"/><path d="M47.6523 8.68171V5.73995C47.6523 5.70864 47.6837 5.67737 47.7148 5.67737H59.0079C59.0389 5.67737 59.07 5.70864 59.07 5.73995V6.4754C59.07 6.50667 59.0389 6.53799 59.0079 6.53799H49.4126C49.3815 6.53799 49.3505 6.56926 49.3505 6.60057V8.52523C49.3505 8.86946 49.6307 9.13547 49.958 9.13547H57.0919C58.3379 9.13547 59.3502 10.1526 59.3502 11.4044C59.3502 12.6562 58.3534 13.6576 57.1075 13.6576H47.7148C47.6837 13.6576 47.6523 13.6264 47.6523 13.595V12.8596C47.6523 12.8283 47.6837 12.797 47.7148 12.797H56.2508C57.0294 12.797 57.6679 12.1711 57.6679 11.3887C57.6679 10.6064 57.0294 9.96482 56.2508 9.96482H48.9452C48.2287 9.96482 47.6523 9.38585 47.6523 8.68171Z" fill="white" data-color-group="0"/><path d="M30.892 9.11953C31.6085 9.11953 32.1848 8.54056 32.1848 7.82074C32.1848 7.10097 31.6085 6.52199 30.892 6.52199H22.2314C22.2003 6.52199 22.1691 6.49072 22.1691 6.45941V5.72396C22.1691 5.69269 22.2003 5.66138 22.2314 5.66138H31.7331C32.9169 5.66138 33.8671 6.61589 33.8671 7.8051C33.8671 8.99432 32.9169 9.94883 31.7331 9.94883H25.1598C24.4433 9.94883 23.867 10.5278 23.867 11.2476V13.5947C23.867 13.626 23.8358 13.6573 23.8047 13.6573H22.2159C22.1847 13.6573 22.1536 13.626 22.1536 13.5947C22.1536 12.9532 22.1536 11.2476 22.1536 11.2476C22.1536 10.0584 23.1037 9.10385 24.2875 9.10385H30.892V9.11953Z" fill="white" data-color-group="0"/></g><defs><clipPath id="clip0_58_37"><rect width="63" height="16" fill="white" transform="translate(0.595337 0.39325)" data-color-group="0"/></clipPath></defs></svg>