<svg width="100%" height="100%" viewBox="0 0 33 31" fill="none" xmlns="http://www.w3.org/2000/svg" preserveAspectRatio="none"><path d="M9.03585 23.0441H7.69667L5.38583 19.8634L3.07865 23.0441H1.7395L4.71624 18.9418L1.97241 15.16H3.31155L5.38583 18.0163L7.46011 15.16H8.7993L6.05542 18.9418L9.03585 23.0441ZM15.9902 20.7998C15.9902 21.492 15.7609 22.0459 15.3096 22.4432C14.8584 22.84 14.1997 23.0406 13.3555 23.0406H9.66177V19.5284H7.90775L8.63919 18.5228H9.66542V15.1564H13.2026C13.9959 15.1564 14.611 15.3458 15.0367 15.7211C15.4588 16.0964 15.6736 16.5991 15.6736 17.2076C15.6736 17.9654 15.3315 18.5411 14.6546 18.9162C15.0913 19.0841 15.4261 19.3352 15.6517 19.6559C15.8773 19.9913 15.9902 20.3738 15.9902 20.7998ZM10.8663 18.5263H13.1226C13.5774 18.5263 13.9231 18.4245 14.1488 18.2239C14.3744 18.0238 14.4908 17.7179 14.4908 17.3132C14.4908 16.9635 14.3708 16.6903 14.1378 16.4935C13.9013 16.2967 13.5629 16.1984 13.1262 16.1984H10.87V18.5263H10.8663ZM14.7783 20.778C14.7783 20.3629 14.6546 20.0492 14.4072 19.8417C14.1597 19.6341 13.7849 19.5284 13.2899 19.5284H10.8663V21.9985H13.2899C13.7703 21.9985 14.1415 21.8928 14.3962 21.6818C14.6473 21.4777 14.7783 21.1714 14.7783 20.778ZM24.0797 19.102C24.0797 19.7107 23.9923 20.2715 23.818 20.7637C23.6433 21.2588 23.3774 21.7 23.0279 22.0786C22.675 22.4576 22.2639 22.7456 21.8019 22.9349C21.3395 23.1246 20.8158 23.219 20.2442 23.219C19.6656 23.219 19.138 23.1246 18.6758 22.9349C18.2136 22.7456 17.8024 22.4576 17.4604 22.0786C17.1074 21.7035 16.8417 21.2627 16.6634 20.7706C16.4887 20.2755 16.3977 19.7142 16.3977 19.102C16.3977 18.4937 16.4887 17.9328 16.6634 17.4372C16.838 16.9416 17.1074 16.4971 17.4604 16.1146C17.806 15.7393 18.2136 15.4551 18.6758 15.2657C19.138 15.0798 19.6656 14.9815 20.2442 14.9815C20.8158 14.9815 21.3395 15.0762 21.8019 15.2657C22.2639 15.4515 22.6789 15.7393 23.0279 16.1146C23.3774 16.4971 23.6433 16.9416 23.818 17.4372C23.9923 17.9328 24.0797 18.4902 24.0797 19.102ZM17.6387 19.102C17.6387 20.0314 17.8788 20.7745 18.3519 21.3137C18.8177 21.8602 19.4546 22.1369 20.2406 22.1369C21.0266 22.1369 21.6633 21.8602 22.1292 21.3137C22.5951 20.7819 22.8315 20.0383 22.8315 19.102C22.8315 18.1656 22.5951 17.4189 22.1292 16.8797C21.6563 16.3405 21.0192 16.0672 20.2406 16.0672C19.4618 16.0672 18.825 16.3405 18.3519 16.8797C17.8788 17.4333 17.6387 18.1804 17.6387 19.102ZM27.879 18.9384L30.6231 15.1564H29.2836L27.2093 18.0129L25.1353 15.1564H23.7959L26.54 18.9384L23.5629 23.0406H24.9024L27.2093 19.8599L29.5166 23.0406H30.856L27.879 18.9384ZM16.2958 5.26101C16.3031 5.26101 16.314 5.26828 16.3177 5.27194C18.2755 6.76207 21.6307 10.4528 20.6081 11.4948C19.4546 12.504 17.948 13.1161 16.2958 13.1161C14.6437 13.1161 13.1371 12.504 11.9835 11.4948C10.9609 10.4528 14.3162 6.76207 16.274 5.27194C16.2813 5.26467 16.2886 5.26101 16.2958 5.26101ZM19.7093 0.95821C18.7049 0.364322 17.6205 0 16.2958 0C14.9712 0 13.8868 0.364322 12.8824 0.95821C12.8715 0.965476 12.8642 0.980052 12.8715 0.990973C12.8787 1.00194 12.8897 1.00555 12.9042 1.00194C14.1743 0.728686 16.0993 1.8253 16.2813 1.93461C16.2849 1.93826 16.2886 1.93826 16.2958 1.93826C16.3031 1.93826 16.3067 1.93461 16.3104 1.93461C16.4924 1.8253 18.421 0.728686 19.6875 1.00194C19.702 1.00555 19.7129 1.00194 19.7202 0.990973C19.7275 0.980052 19.7202 0.965476 19.7093 0.95821ZM11.7106 1.87996C11.6997 1.88727 11.6888 1.89453 11.6815 1.90184C10.4879 3.09323 9.74547 4.73635 9.74547 6.55805C9.74547 8.05184 10.2441 9.42902 11.0847 10.5329C11.0919 10.5439 11.1065 10.5512 11.121 10.5439C11.1319 10.5366 11.1319 10.522 11.1283 10.5111C10.6298 8.96266 13.1844 5.21363 14.5018 3.64334C14.5054 3.63973 14.509 3.63242 14.509 3.62516C14.509 3.61423 14.5054 3.61058 14.4981 3.60327C12.5003 1.61401 11.8234 1.82531 11.7106 1.87996ZM18.0972 3.60327C18.0899 3.60692 18.0863 3.61423 18.0863 3.62516C18.0863 3.63242 18.0899 3.63973 18.0935 3.64334C19.4109 5.21363 21.9653 8.96266 21.4668 10.5074C21.4634 10.5184 21.4634 10.5329 21.4742 10.5403C21.4851 10.5475 21.4999 10.5403 21.5107 10.5293C22.3513 9.42536 22.8497 8.05184 22.8497 6.55439C22.8497 4.73274 22.1074 3.08958 20.914 1.90184C20.9066 1.89453 20.8958 1.88361 20.8849 1.87996C20.7719 1.82531 20.0951 1.61401 18.0972 3.60327ZM6.04086 25.8497V27.4636H8.80295V28.1741H6.04086V29.8902H9.16684V30.6551H5.18935V25.0844H9.16324V25.8497H6.04086ZM4.08306 28.0758C3.80648 27.8208 3.34432 27.6241 2.7111 27.4892L2.22713 27.387C1.76858 27.2886 1.44836 27.1686 1.28095 27.0302C1.11354 26.9027 1.02623 26.7095 1.02623 26.458C1.02623 26.2139 1.12084 26.0207 1.31007 25.8863C1.4993 25.7514 1.77953 25.6857 2.13977 25.6857C2.60193 25.6857 2.94401 25.7697 3.15144 25.9372C3.35888 26.1047 3.47896 26.3671 3.50443 26.7239V26.7313H4.34508V26.7239C4.33413 26.1774 4.14491 25.744 3.77736 25.4307C3.40982 25.1174 2.8567 24.9608 2.13251 24.9608C1.53207 24.9608 1.04805 25.0991 0.695062 25.3724C0.342077 25.6456 0.163759 26.0172 0.163759 26.4763C0.163759 26.9353 0.312958 27.2995 0.604099 27.5584C0.895197 27.8169 1.33189 28.0066 1.89961 28.1232L2.37633 28.225C2.84579 28.3273 3.17331 28.4474 3.35523 28.5783C3.53355 28.7097 3.62451 28.8955 3.62451 29.1361C3.62451 29.4346 3.51534 29.6644 3.29699 29.821C3.07865 29.9776 2.76208 30.0577 2.35451 30.0577C1.86319 30.0577 1.48839 29.952 1.23727 29.7479C0.989811 29.5438 0.858821 29.2306 0.851563 28.8189V28.8115H0V28.8189C0.00365067 29.4564 0.214695 29.952 0.622266 30.2835C1.02988 30.6151 1.60847 30.7865 2.3363 30.7865C3.00955 30.7865 3.54446 30.6369 3.92656 30.3384C4.30867 30.0434 4.50154 29.6313 4.50154 29.1139C4.50519 28.6806 4.36325 28.3307 4.08306 28.0758ZM14.2761 29.9703L14.2215 29.1031C14.2106 28.7972 14.1415 28.5457 14.0178 28.3634C13.8977 28.185 13.7048 28.054 13.4464 27.9735C13.7303 27.8791 13.9559 27.7151 14.116 27.4927C14.2798 27.2595 14.3635 26.9719 14.3635 26.6329C14.3635 26.1556 14.1924 25.7731 13.8504 25.4999C13.5119 25.2266 13.0389 25.0883 12.4457 25.0883H10.0148V30.659H10.8663V28.3747H12.4711C12.7877 28.3747 13.0243 28.4473 13.1662 28.5931C13.3081 28.7389 13.3882 28.9939 13.4064 29.3472L13.4282 29.9411C13.4319 30.2653 13.4901 30.5059 13.592 30.6551L13.5956 30.659H14.4727L14.4654 30.6482C14.3635 30.4802 14.3016 30.2509 14.2761 29.9703ZM10.8627 25.8206H12.3984C12.7477 25.8206 13.0207 25.8971 13.2062 26.0464C13.3918 26.1956 13.4865 26.418 13.4865 26.7095C13.4865 27.0119 13.3955 27.2486 13.2135 27.4126C13.0316 27.5767 12.7768 27.6602 12.4602 27.6602H10.8627V25.8206ZM15.1313 30.6551H15.9829V25.0844H15.1313V30.6551ZM20.8045 25.8497V25.0844H16.8308V30.6551H20.8045V29.8902H17.6787V28.1741H20.4407V27.4636H17.6787V25.8497H20.8045ZM25.3352 28.0758C25.0588 27.8208 24.5964 27.6241 23.9632 27.4892L23.4795 27.387C23.021 27.2886 22.7007 27.1686 22.5334 27.0302C22.366 26.9027 22.2787 26.7095 22.2787 26.458C22.2787 26.2139 22.373 26.0207 22.5625 25.8863C22.7515 25.7514 23.0318 25.6857 23.3921 25.6857C23.8541 25.6857 24.1961 25.7697 24.4039 25.9372C24.6112 26.1047 24.7311 26.3671 24.7568 26.7239V26.7313H25.5973V26.7239C25.5864 26.1774 25.3974 25.744 25.0297 25.4307C24.662 25.1174 24.1088 24.9608 23.3847 24.9608C22.7841 24.9608 22.3004 25.0991 21.9475 25.3724C21.5942 25.6456 21.416 26.0172 21.416 26.4763C21.416 26.9353 21.5651 27.2995 21.8562 27.5584C22.1474 27.8169 22.5842 28.0066 23.1518 28.1232L23.6286 28.225C24.0979 28.3273 24.4256 28.4474 24.6077 28.5783C24.7859 28.7097 24.8767 28.8955 24.8767 29.1361C24.8767 29.4346 24.7677 29.6644 24.5495 29.821C24.3309 29.9776 24.0145 30.0577 23.6068 30.0577C23.1153 30.0577 22.7407 29.952 22.4895 29.7479C22.2422 29.5438 22.1109 29.2306 22.104 28.8189V28.8115H21.2521V28.8189C21.2561 29.4564 21.4668 29.952 21.8745 30.2835C22.2822 30.6151 22.8606 30.7865 23.5886 30.7865C24.2618 30.7865 24.7968 30.6369 25.1788 30.3384C25.5608 30.0434 25.7538 29.6313 25.7538 29.1139C25.7538 28.6806 25.6121 28.3307 25.3352 28.0758ZM30.4918 27.7586L32.4315 25.0883H31.4853L30.019 27.1068L28.5522 25.0883H27.6061L29.5457 27.7586L27.4422 30.659H28.3883L30.019 28.4108L31.6492 30.659H32.5953L30.4918 27.7586Z" fill="white" data-color-group="0"/></svg>