<svg width="100%" height="100%" viewBox="0 0 149 43" fill="none" xmlns="http://www.w3.org/2000/svg" preserveAspectRatio="none"><rect width="149" height="43" fill="white" data-color-group="0"/><path d="M33.384 17.76L31.392 25.212C31.32 25.476 31.204 25.716 31.044 25.932C30.892 26.148 30.716 26.336 30.516 26.496C30.324 26.656 30.12 26.78 29.904 26.868C29.688 26.956 29.492 27 29.316 27H23.316L23.892 24.876H28.932L30.828 17.76H33.384ZM42.2224 21.3L40.9384 26.124C40.9064 26.244 40.8464 26.356 40.7584 26.46C40.6704 26.564 40.5624 26.656 40.4344 26.736C40.3144 26.816 40.1744 26.88 40.0144 26.928C39.8624 26.976 39.7064 27 39.5464 27H33.6544C33.4384 27 33.2664 26.972 33.1384 26.916C33.0104 26.86 32.9144 26.788 32.8504 26.7C32.7864 26.612 32.7504 26.516 32.7424 26.412C32.7344 26.3 32.7464 26.188 32.7784 26.076L34.0504 21.324C34.0744 21.236 34.1144 21.136 34.1704 21.024C34.2344 20.904 34.3224 20.792 34.4344 20.688C34.5464 20.584 34.6824 20.496 34.8424 20.424C35.0104 20.352 35.2104 20.316 35.4424 20.316H41.4184C41.6184 20.316 41.7784 20.352 41.8984 20.424C42.0184 20.496 42.1024 20.584 42.1504 20.688C42.2064 20.784 42.2384 20.892 42.2464 21.012C42.2544 21.124 42.2464 21.22 42.2224 21.3ZM39.6904 22.08H36.1744L35.3224 25.236H38.8384L39.6904 22.08ZM52.3421 20.316L50.2781 28.056C50.2221 28.272 50.1301 28.464 50.0021 28.632C49.8741 28.8 49.7221 28.944 49.5461 29.064C49.3701 29.184 49.1781 29.276 48.9701 29.34C48.7701 29.404 48.5621 29.436 48.3461 29.436H43.3661L43.7741 27.888H47.9621L48.3221 26.544C48.2261 26.632 48.1301 26.708 48.0341 26.772C47.9461 26.836 47.8501 26.892 47.7461 26.94C47.6501 26.98 47.5461 27 47.4341 27H43.6421C43.3941 27 43.1981 26.972 43.0541 26.916C42.9101 26.852 42.8061 26.768 42.7421 26.664C42.6701 26.552 42.6381 26.42 42.6461 26.268C42.6461 26.116 42.6701 25.948 42.7181 25.764L43.8461 21.528C43.9181 21.272 44.0141 21.064 44.1341 20.904C44.2541 20.744 44.3901 20.62 44.5421 20.532C44.6941 20.444 44.8541 20.388 45.0221 20.364C45.1981 20.332 45.3701 20.316 45.5381 20.316H49.2221C49.3341 20.316 49.4341 20.34 49.5221 20.388C49.6101 20.436 49.6821 20.492 49.7381 20.556C49.8021 20.628 49.8541 20.704 49.8941 20.784L50.0141 20.316H52.3421ZM49.5341 22.128H46.0181L45.1901 25.2H48.7061L49.5341 22.128ZM62.1859 20.316L60.3979 27H58.0459L58.2259 26.34C58.0979 26.468 57.9619 26.58 57.8179 26.676C57.6899 26.764 57.5459 26.84 57.3859 26.904C57.2259 26.968 57.0659 27 56.9059 27H53.6179C53.1299 27 52.7939 26.92 52.6099 26.76C52.4259 26.6 52.3899 26.32 52.5019 25.92L54.0019 20.316H56.3419L55.0219 25.236H58.5139L59.8339 20.316H62.1859ZM71.7656 21.324L70.9256 24.468H65.0816L64.8656 25.236H70.0736L69.6056 27H63.1376C62.8896 27 62.7056 26.96 62.5856 26.88C62.4656 26.792 62.3856 26.688 62.3456 26.568C62.3056 26.44 62.2976 26.312 62.3216 26.184C62.3376 26.048 62.3576 25.932 62.3816 25.836L63.5816 21.372C63.6136 21.244 63.6696 21.116 63.7496 20.988C63.8376 20.86 63.9376 20.748 64.0496 20.652C64.1616 20.548 64.2856 20.468 64.4216 20.412C64.5656 20.348 64.7136 20.316 64.8656 20.316H71.1056C71.3616 20.316 71.5536 20.412 71.6816 20.604C71.8176 20.788 71.8456 21.028 71.7656 21.324ZM69.2336 22.092H65.7176L65.5136 22.824H69.0296L69.2336 22.092ZM86.9397 21.576L85.4877 27H83.1357L83.2917 26.424C83.1957 26.528 83.0917 26.624 82.9797 26.712C82.8837 26.784 82.7757 26.852 82.6557 26.916C82.5357 26.972 82.4117 27 82.2837 27H78.3357C78.0557 27 77.8357 26.928 77.6757 26.784C77.5077 26.64 77.4717 26.384 77.5677 26.016L78.1677 23.772C78.1917 23.668 78.2437 23.56 78.3237 23.448C78.4037 23.336 78.5037 23.236 78.6237 23.148C78.7437 23.06 78.8797 22.988 79.0317 22.932C79.1917 22.868 79.3597 22.836 79.5357 22.836H84.2517L84.4557 22.08H79.5357L80.0037 20.316H85.9917C86.4237 20.316 86.7117 20.436 86.8557 20.676C87.0077 20.916 87.0357 21.216 86.9397 21.576ZM83.8197 24.456H80.3277L80.1117 25.236H83.6037L83.8197 24.456ZM97.1195 20.316L95.0555 28.056C94.9995 28.272 94.9075 28.464 94.7795 28.632C94.6515 28.8 94.4995 28.944 94.3235 29.064C94.1475 29.184 93.9555 29.276 93.7475 29.34C93.5475 29.404 93.3395 29.436 93.1235 29.436H88.1435L88.5515 27.888H92.7395L93.0995 26.544C93.0035 26.632 92.9075 26.708 92.8115 26.772C92.7235 26.836 92.6275 26.892 92.5235 26.94C92.4275 26.98 92.3235 27 92.2115 27H88.4195C88.1715 27 87.9755 26.972 87.8315 26.916C87.6875 26.852 87.5835 26.768 87.5195 26.664C87.4475 26.552 87.4155 26.42 87.4235 26.268C87.4235 26.116 87.4475 25.948 87.4955 25.764L88.6235 21.528C88.6955 21.272 88.7915 21.064 88.9115 20.904C89.0315 20.744 89.1675 20.62 89.3195 20.532C89.4715 20.444 89.6315 20.388 89.7995 20.364C89.9755 20.332 90.1475 20.316 90.3155 20.316H93.9995C94.1115 20.316 94.2115 20.34 94.2995 20.388C94.3875 20.436 94.4595 20.492 94.5155 20.556C94.5795 20.628 94.6315 20.704 94.6715 20.784L94.7915 20.316H97.1195ZM94.3115 22.128H90.7955L89.9675 25.2H93.4835L94.3115 22.128ZM106.687 21.3L105.403 26.124C105.371 26.244 105.311 26.356 105.223 26.46C105.135 26.564 105.027 26.656 104.899 26.736C104.779 26.816 104.639 26.88 104.479 26.928C104.327 26.976 104.171 27 104.011 27H98.1192C97.9032 27 97.7312 26.972 97.6032 26.916C97.4752 26.86 97.3792 26.788 97.3152 26.7C97.2512 26.612 97.2152 26.516 97.2072 26.412C97.1992 26.3 97.2112 26.188 97.2432 26.076L98.5152 21.324C98.5392 21.236 98.5792 21.136 98.6352 21.024C98.6992 20.904 98.7872 20.792 98.8992 20.688C99.0112 20.584 99.1472 20.496 99.3072 20.424C99.4752 20.352 99.6752 20.316 99.9072 20.316H105.883C106.083 20.316 106.243 20.352 106.363 20.424C106.483 20.496 106.567 20.584 106.615 20.688C106.671 20.784 106.703 20.892 106.711 21.012C106.719 21.124 106.711 21.22 106.687 21.3ZM104.155 22.08H100.639L99.7872 25.236H103.303L104.155 22.08ZM115.355 20.316L114.887 22.092H111.095C111.031 22.092 110.959 22.112 110.879 22.152C110.799 22.192 110.719 22.244 110.639 22.308C110.567 22.364 110.499 22.428 110.435 22.5C110.379 22.572 110.343 22.636 110.327 22.692L109.163 27H106.823L108.611 20.316H110.951L110.795 20.892C110.899 20.788 111.011 20.692 111.131 20.604C111.235 20.532 111.347 20.468 111.467 20.412C111.595 20.348 111.719 20.316 111.839 20.316H115.355ZM124.03 21.576L122.578 27H120.226L120.382 26.424C120.286 26.528 120.182 26.624 120.07 26.712C119.974 26.784 119.866 26.852 119.746 26.916C119.626 26.972 119.502 27 119.374 27H115.426C115.146 27 114.926 26.928 114.766 26.784C114.598 26.64 114.562 26.384 114.658 26.016L115.258 23.772C115.282 23.668 115.334 23.56 115.414 23.448C115.494 23.336 115.594 23.236 115.714 23.148C115.834 23.06 115.97 22.988 116.122 22.932C116.282 22.868 116.45 22.836 116.626 22.836H121.342L121.546 22.08H116.626L117.094 20.316H123.082C123.514 20.316 123.802 20.436 123.946 20.676C124.098 20.916 124.126 21.216 124.03 21.576ZM120.91 24.456H117.418L117.202 25.236H120.694L120.91 24.456Z" fill="#1B1B1B" data-color-group="1"/></svg>