<svg version="1.1" id="Camada_1" xmlns="http://www.w3.org/2000/svg" xmlns:xlink="http://www.w3.org/1999/xlink" x="0px" y="0px" viewBox="0 0 378.37 165.93" style="enable-background:new 0 0 378.37 165.93;" xml:space="preserve" width="100%" height="100%" preserveAspectRatio="none"><style type="text/css"> .st0{fill:#FEE598;} .st1{clip-path:url(#SVGID_2_);} .st2{clip-path:url(#SVGID_4_);} .st3{clip-path:url(#SVGID_6_);} .st4{clip-path:url(#SVGID_8_);fill:#FFFFFF;} .st5{clip-path:url(#SVGID_6_);fill:#FFFFFF;} .st6{clip-path:url(#SVGID_6_);fill:none;} .st7{clip-path:url(#SVGID_10_);fill:#FFFFFF;} .st8{clip-path:url(#SVGID_12_);fill:#FFFFFF;} .st9{clip-path:url(#SVGID_14_);fill:#FFFFFF;} .st10{clip-path:url(#SVGID_16_);fill:#FFFFFF;} .st11{clip-path:url(#SVGID_18_);fill:#FFFFFF;} .st12{clip-path:url(#SVGID_20_);fill:#FFFFFF;} .st13{clip-path:url(#SVGID_22_);} .st14{fill:#04304B;} .st15{clip-path:url(#SVGID_26_);} .st16{clip-path:url(#SVGID_28_);fill:#FFFFFF;} .st17{clip-path:url(#SVGID_26_);fill:#FFFFFF;} .st18{clip-path:url(#SVGID_30_);fill:#FFFFFF;} .st19{clip-path:url(#SVGID_32_);fill:#FFFFFF;} .st20{clip-path:url(#SVGID_34_);fill:#FFFFFF;} .st21{clip-path:url(#SVGID_36_);fill:#FFFFFF;} .st22{clip-path:url(#SVGID_38_);fill:#FFFFFF;} .st23{clip-path:url(#SVGID_40_);fill:#FFFFFF;} .st24{clip-path:url(#SVGID_42_);fill:#FFFFFF;} .st25{clip-path:url(#SVGID_44_);fill:#FFFFFF;} .st26{clip-path:url(#SVGID_46_);} .st27{opacity:0.7;} .st28{clip-path:url(#SVGID_50_);} .st29{clip-path:url(#SVGID_52_);} .st30{clip-path:url(#SVGID_54_);fill:#FFFFFF;} .st31{clip-path:url(#SVGID_52_);fill:#FFFFFF;} .st32{clip-path:url(#SVGID_56_);fill:#FFFFFF;} .st33{clip-path:url(#SVGID_58_);fill:#FFFFFF;} .st34{clip-path:url(#SVGID_60_);fill:#FFFFFF;} .st35{clip-path:url(#SVGID_62_);fill:#FFFFFF;} .st36{clip-path:url(#SVGID_64_);fill:#FFFFFF;} .st37{clip-path:url(#SVGID_66_);fill:#FFFFFF;} .st38{clip-path:url(#SVGID_68_);fill:#FFFFFF;} .st39{clip-path:url(#SVGID_70_);fill:#FFFFFF;} .st40{clip-path:url(#SVGID_72_);} .st41{clip-path:url(#SVGID_76_);} .st42{fill:#FFFFFF;} .st43{fill:#33A3FF;} .st44{clip-path:url(#SVGID_88_);} .st45{fill:none;stroke:#002F4A;stroke-width:5;} .st46{opacity:0.75;clip-path:url(#SVGID_92_);} .st47{clip-path:url(#SVGID_94_);} .st48{opacity:0.1;clip-path:url(#SVGID_96_);} .st49{clip-path:url(#SVGID_98_);} .st50{clip-path:url(#SVGID_100_);fill:#FFFFFF;} .st51{opacity:0.3;clip-path:url(#SVGID_96_);} .st52{clip-path:url(#SVGID_102_);} .st53{clip-path:url(#SVGID_104_);fill:#FFFFFF;} .st54{opacity:0.5;clip-path:url(#SVGID_96_);} .st55{clip-path:url(#SVGID_106_);} .st56{clip-path:url(#SVGID_108_);fill:#FFFFFF;} .st57{opacity:0.7;clip-path:url(#SVGID_96_);} .st58{clip-path:url(#SVGID_110_);} .st59{clip-path:url(#SVGID_112_);fill:#FFFFFF;} .st60{opacity:0.9;clip-path:url(#SVGID_96_);} .st61{clip-path:url(#SVGID_114_);} .st62{clip-path:url(#SVGID_116_);fill:#FFFFFF;} .st63{clip-path:url(#SVGID_96_);fill:#FFFFFF;} .st64{clip-path:url(#SVGID_118_);fill:#FFFFFF;} .st65{fill:none;stroke:#FFFFFF;stroke-miterlimit:10;} </style><g><path class="st42" d="M134.26,95.51c0.56,16.09,12.82,21.17,25.81,21.17c9.85,0,23.22-2.54,23.22-16.3 c0-13.98-15.6-16.31-31.39-20.33c-15.61-4.03-31.4-9.96-31.4-30.93c0-22.02,19.13-31.14,35.86-31.14 c21.18,0,38.08,7.63,39.39,34.32h-15.8c-1.11-13.98-11.89-18.43-22.29-18.43c-9.48,0-20.44,2.97-20.44,13.99 c0,12.91,16.73,15.03,31.4,19.05c15.79,4.03,31.4,9.96,31.4,31.14c0,26.06-21.36,34.52-40.87,34.52 c-21.55,0-39.76-9.96-40.68-37.06H134.26z"/><path class="st42" d="M293.29,115.63c-2.03,0.85-3.52,1.06-4.83,1.06c-5.02,0-5.02-3.81-5.02-12.29V48.07 c0-25.63-18.75-30.08-36.04-30.08c-21.37,0-39.77,9.54-40.69,36.65h15.79c0.75-16.09,10.59-20.76,23.97-20.76 c10.03,0,21.36,2.55,21.36,18.22c0,13.55-14.86,12.28-32.33,16.09c-16.35,3.6-32.51,8.89-32.51,33.67 c0,21.81,14.3,30.71,31.77,30.71c13.37,0,25.08-5.29,33.8-16.95c0,11.86,5.22,16.95,13.39,16.95c5.01,0,8.54-1.06,11.32-2.96 V115.63z M267.66,91.91c0,9.96-8.55,24.78-29.36,24.78c-9.65,0-18.57-4.23-18.57-16.09c0-13.35,8.92-17.58,19.32-19.7 c10.59-2.12,22.48-2.32,28.61-7.41V91.91z"/><path class="st42" d="M307.96,95.51c0.55,16.09,12.82,21.17,25.81,21.17c9.85,0,23.22-2.54,23.22-16.3 c0-13.98-15.6-16.31-31.4-20.33c-15.6-4.03-31.4-9.96-31.4-30.93c0-22.02,19.15-31.14,35.87-31.14c21.19,0,38.09,7.63,39.39,34.32 h-15.79c-1.11-13.98-11.89-18.43-22.29-18.43c-9.48,0-20.44,2.97-20.44,13.99c0,12.91,16.73,15.03,31.4,19.05 c15.79,4.03,31.4,9.96,31.4,31.14c0,26.06-21.37,34.52-40.87,34.52c-21.55,0-39.77-9.96-40.69-37.06H307.96z"/><path class="st42" d="M67.69,50.48l-2.63-3.36c-3.64-4.6-9.59-4.58-13.97-0.75c-4.42,3.85-5.71,10.23-2.08,14.9 c0.01,0.01,0.44,0.57,1.2,1.54"/><path class="st42" d="M50.12,62.71c8.36,10.65,19.61,24.99,19.61,24.99c14.02,18.04,7.75,40.26-11.26,52.92 c-16.75,11.15-47.5,7.17-58.09-11.12c8.21,25.68,35.75,42.47,66.21,34.4c26.41-6.99,55.91-42.99,23.64-84.49l-23.97-30.7"/><path class="st42" d="M52.72,101.28C44.58,90.9,34.64,78.23,34.64,78.23C20.63,60.21,26.9,37.97,45.91,25.32 c16.75-11.16,47.5-7.19,58.09,11.12C95.78,10.75,68.23-6.03,37.79,2.04c-26.41,6.99-55.92,42.98-23.65,84.5L37,115.82"/><path class="st42" d="M33.37,111.32l5.45,6.98c3.65,4.6,9.59,4.57,13.98,0.74c4.41-3.86,5.71-10.22,2.08-14.91 c-0.02-0.01-2.16-2.74-5.26-6.69"/><path class="st42" d="M370.9,129.31v-2.32h1.45c0.74,0,1.53,0.17,1.53,1.1c0,1.14-0.79,1.23-1.7,1.23H370.9z M370.9,130.25h1.23 l1.85,3.24h1.2l-2-3.3c1.03-0.12,1.83-0.7,1.83-2.05c0-1.47-0.82-2.11-2.49-2.11h-2.68v7.46h1.06V130.25z M372.2,136.22 c3.32,0,6.17-2.73,6.17-6.48c0-3.71-2.85-6.46-6.17-6.46c-3.36,0-6.21,2.75-6.21,6.46C365.99,133.49,368.84,136.22,372.2,136.22 M367.22,129.74c0-3.07,2.17-5.37,4.97-5.37c2.75,0,4.94,2.3,4.94,5.37c0,3.1-2.19,5.41-4.94,5.41 C369.4,135.15,367.22,132.85,367.22,129.74"/><path class="st42" d="M111.58,129.31v-2.32h1.45c0.75,0,1.53,0.17,1.53,1.1c0,1.14-0.79,1.23-1.7,1.23H111.58z M111.58,130.25h1.23 l1.86,3.24h1.2l-2.01-3.3c1.04-0.12,1.83-0.7,1.83-2.05c0-1.47-0.83-2.11-2.5-2.11h-2.68v7.46h1.06V130.25z M112.88,136.22 c3.32,0,6.17-2.73,6.17-6.48c0-3.71-2.85-6.46-6.17-6.46c-3.36,0-6.21,2.75-6.21,6.46C106.67,133.49,109.52,136.22,112.88,136.22 M107.9,129.74c0-3.07,2.17-5.37,4.97-5.37c2.76,0,4.95,2.3,4.95,5.37c0,3.1-2.19,5.41-4.95,5.41 C110.08,135.15,107.9,132.85,107.9,129.74"/></g></svg>