<svg width="71.939" height="10" viewBox="0 0 71.939 10" xmlns="http://www.w3.org/2000/svg"><g fill="#FFF" stroke="#FFF"><path d="M.711 1.544L.11.532H.65l.24.425.092.25h.03l.091-.25.24-.425h.542l-.602 1.012.65 1.116h-.565l-.252-.471-.1-.247H.978l-.1.247-.253.47H.061zM2.189.532h.696q.33 0 .576.13.244.131.375.371.13.24.13.563 0 .322-.13.562-.13.24-.375.37-.245.132-.576.132h-.696zm.696 1.69q.3 0 .46-.164.16-.164.16-.462 0-.298-.16-.462-.16-.164-.46-.164H2.65v1.252zM5.663 2.024H4.64q.03.143.134.225.104.082.234.082.11 0 .192-.045.082-.046.124-.119l.347.183q-.207.346-.654.346-.24 0-.42-.1-.178-.1-.274-.278-.096-.178-.096-.403 0-.222.1-.401.1-.18.272-.28.172-.1.382-.1.237 0 .401.099.164.098.245.267.08.169.08.382 0 .057-.009.103zm-.377-.285q-.021-.116-.099-.181-.077-.066-.205-.066-.119 0-.204.067-.085.067-.121.18zM7.2.964q-.106 0-.183-.078-.078-.077-.078-.184 0-.106.078-.184.077-.077.184-.077.106 0 .184.077.077.078.077.184 0 .107-.077.184-.078.078-.184.078zm.22 1.696h-.438V1.535h-.514V2.66h-.437V1.535h-.159V1.17h.159v-.143q0-.252.153-.392.154-.14.388-.14.085 0 .176.037V.92Q6.68.888 6.614.888q-.064 0-.105.05-.04.05-.04.126v.106h.95zM8.447 2.696q-.195 0-.357-.102-.163-.102-.259-.28-.095-.177-.095-.4 0-.22.095-.4.096-.18.262-.28.166-.1.366-.1.137 0 .245.04.108.039.175.112V1.17h.437v1.49h-.413v-.146h-.024q-.058.085-.168.133-.109.05-.264.05zm.091-.407q.152 0 .259-.107.106-.106.106-.267 0-.161-.106-.268-.107-.106-.259-.106-.152 0-.258.106-.107.107-.107.268 0 .161.107.267.106.107.258.107zM9.669 1.17h.407v.15h.03q.061-.086.17-.136.11-.05.253-.05.243 0 .376.143.132.142.132.398v.985h-.438V1.8q0-.125-.055-.192-.054-.067-.179-.067-.122 0-.19.087-.068.086-.068.235v.797h-.438zM11.882 1.535v.584q0 .085.04.135.039.05.106.05.051 0 .083-.01.032-.008.069-.03v.383q-.089.05-.22.05-.24 0-.378-.14-.138-.137-.138-.393v-.629h-.14V1.17h.14V.875l.438-.155v.45h.298v.365zM14.617 2.024h-1.02q.03.143.133.225.103.082.234.082.11 0 .191-.045.082-.046.125-.119l.346.183q-.206.346-.653.346-.24 0-.42-.1-.179-.1-.275-.278-.095-.178-.095-.403 0-.222.1-.401.1-.18.272-.28.172-.1.382-.1.237 0 .4.099.165.098.245.267.081.169.081.382 0 .057-.01.103zm-.377-.285q-.02-.116-.098-.181-.078-.066-.205-.066-.119 0-.204.067-.085.067-.122.18zM13.88.47h.507l-.261.432h-.401zM16.247 2.696q-.265 0-.402-.141-.136-.142-.136-.4V1.17h.437v.86q0 .125.058.192t.176.067q.122 0 .19-.087.069-.086.069-.235V1.17h.437v1.49h-.407v-.143h-.03q-.055.091-.158.135-.104.044-.234.044zM19.104 1.134q.255 0 .378.141t.123.4v.985h-.437v-.876q0-.243-.207-.243-.113 0-.169.078-.056.077-.056.226v.815h-.438v-.876q0-.243-.206-.243-.113 0-.17.078-.055.077-.055.226v.815h-.438V1.17h.407v.152h.03q.116-.188.368-.188.301 0 .426.203.067-.1.187-.152.12-.051.257-.051zM20.97.964q-.106 0-.184-.078-.077-.077-.077-.184 0-.106.077-.184.078-.077.184-.077.107 0 .184.077.078.078.078.184 0 .107-.078.184-.077.078-.184.078zm-.283 2.37q-.073 0-.153-.02-.08-.022-.126-.053l.121-.376q.061.036.113.036.06 0 .085-.035.024-.035.024-.114V1.17h.438v1.632q0 .262-.138.397-.139.135-.364.135zM22.308 2.696q-.225 0-.41-.1-.183-.1-.288-.278-.105-.178-.105-.403 0-.225.105-.403.105-.178.289-.278.184-.1.409-.1.224 0 .408.1.184.1.29.278.104.178.104.403 0 .225-.105.403-.105.178-.289.278-.184.1-.408.1zm0-.407q.16 0 .262-.099.102-.099.102-.275 0-.176-.102-.275-.101-.099-.262-.099-.162 0-.263.099-.102.099-.102.275 0 .176.102.275.101.099.263.099zM24.11 3.334q-.261 0-.436-.098-.175-.1-.263-.263l.35-.222q.14.2.349.2.149 0 .24-.092.091-.093.091-.254V2.48q-.073.095-.171.137-.1.043-.242.043-.195 0-.354-.098-.16-.097-.252-.27-.093-.173-.093-.395 0-.222.09-.395.09-.174.249-.271.16-.097.354-.097.304 0 .42.182h.024V1.17h.413v1.447q0 .21-.091.372-.091.163-.265.254-.173.091-.413.091zm.006-1.082q.152 0 .25-.097.1-.097.1-.258t-.1-.259q-.098-.097-.25-.097t-.25.097q-.1.098-.1.259 0 .16.1.258.098.097.25.097zM25.98 2.696q-.226 0-.41-.1-.183-.1-.288-.278-.105-.178-.105-.403 0-.225.105-.403.105-.178.289-.278.183-.1.408-.1.225 0 .41.1.183.1.288.278.105.178.105.403 0 .225-.105.403-.105.178-.289.278-.184.1-.409.1zm0-.407q.16 0 .262-.099.102-.099.102-.275 0-.176-.102-.275-.102-.099-.263-.099-.16 0-.263.099-.101.099-.101.275 0 .176.101.275.102.099.263.099zM28.496 2.696q-.194 0-.357-.102-.163-.102-.258-.28-.096-.177-.096-.4 0-.22.096-.4.095-.18.261-.28.166-.1.366-.1.137 0 .246.035.11.035.174.105V.532h.437V2.66h-.413v-.134h-.024q-.061.079-.17.125-.11.045-.262.045zm.091-.407q.152 0 .259-.107.106-.106.106-.267 0-.161-.106-.268-.107-.106-.259-.106-.152 0-.258.106-.106.107-.106.268 0 .161.106.267.106.107.258.107zM31.086 2.024h-1.021q.03.143.133.225.104.082.234.082.11 0 .192-.045.082-.046.124-.119l.347.183q-.207.346-.654.346-.24 0-.419-.1-.18-.1-.275-.278-.096-.178-.096-.403 0-.222.1-.401.1-.18.273-.28.171-.1.381-.1.237 0 .401.099.164.098.245.267.08.169.08.382 0 .057-.009.103zm-.377-.285q-.021-.116-.099-.181-.077-.066-.205-.066-.119 0-.204.067-.085.067-.121.18zM32.846 2.696q-.195 0-.357-.102-.163-.102-.259-.28-.095-.177-.095-.4 0-.22.095-.4.096-.18.262-.28.165-.1.366-.1.137 0 .245.04.108.039.174.112V1.17h.438v1.49h-.413v-.146h-.025q-.057.085-.167.133-.11.05-.264.05zm.091-.407q.152 0 .258-.107.107-.106.107-.267 0-.161-.107-.268-.106-.106-.258-.106-.152 0-.258.106-.107.107-.107.268 0 .161.107.267.106.107.258.107zM34.572 1.535v.584q0 .085.04.135t.106.05q.052 0 .084-.01.032-.008.068-.03v.383q-.088.05-.219.05-.24 0-.378-.14-.138-.137-.138-.393v-.629h-.14V1.17h.14V.875l.437-.155v.45h.298v.365zM35.405.964q-.106 0-.184-.078-.077-.077-.077-.184 0-.106.077-.184.078-.077.184-.077.107 0 .184.077.078.078.078.184 0 .107-.078.184-.077.078-.184.078zm-.219.206h.438v1.49h-.438zM35.995 1.17h.407v.164h.03q.05-.1.139-.15.09-.05.205-.05.091 0 .182.033l-.09.404q-.07-.03-.15-.03-.127 0-.206.096-.08.096-.08.272v.75h-.437zM37.773 2.696q-.195 0-.357-.102-.163-.102-.259-.28-.095-.177-.095-.4 0-.22.095-.4.096-.18.262-.28.166-.1.366-.1.137 0 .245.04.108.039.175.112V1.17h.437v1.49h-.413v-.146h-.024q-.058.085-.168.133-.109.05-.264.05zm.091-.407q.152 0 .259-.107.106-.106.106-.267 0-.161-.106-.268-.107-.106-.259-.106-.152 0-.258.106-.107.107-.107.268 0 .161.107.267.106.107.258.107zM39.651 2.696q-.194 0-.357-.102-.162-.102-.258-.28-.096-.177-.096-.4 0-.22.096-.4.096-.18.261-.28.166-.1.367-.1.136 0 .246.035.11.035.173.105V.532h.438V2.66h-.414v-.134h-.024q-.06.079-.17.125-.11.045-.262.045zm.092-.407q.152 0 .258-.107.106-.106.106-.267 0-.161-.106-.268-.106-.106-.258-.106-.152 0-.259.106-.106.107-.106.268 0 .161.106.267.107.107.259.107zM41.609 2.696q-.225 0-.409-.1-.184-.1-.289-.278-.105-.178-.105-.403 0-.225.105-.403.105-.178.29-.278.183-.1.408-.1.225 0 .409.1.184.1.289.278.104.178.104.403 0 .225-.104.403-.105.178-.29.278-.183.1-.408.1zm0-.407q.161 0 .263-.099.102-.099.102-.275 0-.176-.102-.275-.102-.099-.263-.099-.161 0-.263.099-.102.099-.102.275 0 .176.102.275.102.099.263.099zM42.71 1.17h.407v.164h.03q.049-.1.138-.15.09-.05.205-.05.092 0 .183.033l-.091.404q-.07-.03-.15-.03-.127 0-.206.096-.08.096-.08.272v.75h-.437zM45.332 2.696q-.194 0-.357-.102-.162-.102-.258-.28-.096-.177-.096-.4 0-.22.096-.4.096-.18.261-.28.166-.1.367-.1.136 0 .246.035.11.035.173.105V.532h.438V2.66h-.414v-.134h-.024q-.06.079-.17.125-.11.045-.262.045zm.092-.407q.152 0 .258-.107.106-.106.106-.267 0-.161-.106-.268-.106-.106-.258-.106-.152 0-.259.106-.106.107-.106.268 0 .161.106.267.107.107.259.107zM47.922 2.024h-1.021q.03.143.134.225.103.082.234.082.11 0 .191-.045.082-.046.125-.119l.346.183q-.206.346-.653.346-.24 0-.42-.1t-.275-.278q-.096-.178-.096-.403 0-.222.1-.401.101-.18.273-.28.172-.1.381-.1.237 0 .401.099.165.098.245.267.08.169.08.382 0 .057-.008.103zm-.377-.285q-.021-.116-.099-.181-.077-.066-.205-.066-.118 0-.203.067-.085.067-.122.18zM49.682 2.696q-.194 0-.357-.102-.163-.102-.258-.28-.096-.177-.096-.4 0-.22.096-.4.095-.18.26-.28.167-.1.367-.1.137 0 .245.04.108.039.175.112V1.17h.437v1.49h-.413v-.146h-.024q-.058.085-.167.133-.11.05-.265.05zm.091-.407q.152 0 .259-.107.106-.106.106-.267 0-.161-.106-.268-.107-.106-.259-.106-.152 0-.258.106-.107.107-.107.268 0 .161.107.267.106.107.258.107zM50.904 1.17h.407v.164h.03q.05-.1.139-.15.09-.05.205-.05.091 0 .183.033l-.092.404q-.07-.03-.149-.03-.127 0-.206.096-.08.096-.08.272v.75h-.437zM53.406 2.024h-1.022q.03.143.134.225.103.082.234.082.11 0 .192-.045.082-.046.124-.119l.347.183q-.207.346-.654.346-.24 0-.42-.1-.179-.1-.274-.278-.096-.178-.096-.403 0-.222.1-.401.1-.18.272-.28.172-.1.382-.1.237 0 .4.099.165.098.246.267.08.169.08.382 0 .057-.009.103zm-.377-.285q-.022-.116-.1-.181-.077-.066-.204-.066-.119 0-.204.067-.085.067-.122.18zM53.749 1.17h.407v.15h.03q.062-.086.17-.136.11-.05.253-.05.243 0 .376.143.132.142.132.398v.985h-.438V1.8q0-.125-.055-.192-.054-.067-.179-.067-.121 0-.19.087-.068.086-.068.235v.797h-.438zM56.114 2.696q-.195 0-.357-.102-.163-.102-.259-.28-.095-.177-.095-.4 0-.22.095-.4.096-.18.262-.28.165-.1.366-.1.137 0 .245.04.108.039.174.112V1.17h.438v1.49h-.413v-.146h-.025q-.057.085-.167.133-.11.05-.264.05zm.091-.407q.152 0 .258-.107.107-.106.107-.267 0-.161-.107-.268-.106-.106-.258-.106-.152 0-.258.106-.107.107-.107.268 0 .161.107.267.106.107.258.107zM59.476 2.024h-1.022q.03.143.134.225.103.082.234.082.11 0 .192-.045.082-.046.124-.119l.347.183q-.207.346-.654.346-.24 0-.42-.1-.179-.1-.274-.278-.096-.178-.096-.403 0-.222.1-.401.1-.18.272-.28.172-.1.382-.1.237 0 .401.099.164.098.245.267.08.169.08.382 0 .057-.009.103zm-.377-.285q-.022-.116-.1-.181-.077-.066-.204-.066-.119 0-.204.067-.085.067-.121.18zM61.494 1.134q.255 0 .378.141t.123.4v.985h-.437v-.876q0-.243-.207-.243-.112 0-.169.078-.056.077-.056.226v.815h-.438v-.876q0-.243-.206-.243-.113 0-.169.078-.056.077-.056.226v.815h-.438V1.17h.407v.152h.03q.116-.188.369-.188.3 0 .425.203.067-.1.187-.152.12-.051.257-.051z" stroke-width=".00304"/></g><g fill="#FFF" stroke="#FFF"><path d="M.176 4.514H.59v.134h.024q.06-.08.17-.125.11-.046.262-.046.194 0 .357.102.162.102.258.28.096.178.096.4 0 .221-.096.4-.096.18-.261.28-.166.1-.367.1-.136 0-.246-.034Q.677 5.97.614 5.9v.741H.176zm.778 1.118q.152 0 .259-.106.106-.106.106-.268 0-.16-.106-.267-.107-.106-.259-.106-.152 0-.258.106-.106.106-.106.267 0 .162.106.268.106.106.258.106zM2.055 4.514h.407v.164h.03q.05-.1.139-.15.09-.05.205-.05.091 0 .182.033l-.09.404q-.07-.03-.15-.03-.127 0-.207.095-.079.096-.079.272v.751h-.437zM3.499 4.307q-.107 0-.184-.077-.078-.078-.078-.184 0-.107.078-.184.077-.078.184-.078.106 0 .183.078.078.077.078.184 0 .106-.078.184-.077.077-.183.077zm-.22.207h.438v1.49H3.28zM5.763 4.477q.255 0 .378.142.124.141.124.4v.984h-.438v-.875q0-.243-.207-.243-.112 0-.168.077-.057.078-.057.227v.814h-.437v-.875q0-.243-.207-.243-.113 0-.169.077-.056.078-.056.227v.814h-.438v-1.49h.408v.153h.03q.115-.189.368-.189.3 0 .425.204.067-.1.187-.152.12-.052.257-.052zM7.985 5.368H6.964q.03.143.133.225.104.082.234.082.11 0 .192-.046.082-.045.125-.118l.346.182q-.207.347-.653.347-.24 0-.42-.1-.18-.101-.275-.279-.096-.178-.096-.403 0-.221.1-.4.1-.18.273-.28.171-.1.381-.1.237 0 .401.098.164.099.245.268.08.168.08.381 0 .058-.009.103zm-.377-.286q-.021-.115-.099-.18-.077-.066-.205-.066-.118 0-.204.067-.085.067-.121.18zM8.566 4.307q-.107 0-.184-.077-.078-.078-.078-.184 0-.107.078-.184.077-.078.184-.078.106 0 .183.078.078.077.078.184 0 .106-.078.184-.077.077-.183.077zm-.22.207h.438v1.49h-.437zM9.155 4.514h.408v.164h.03q.049-.1.138-.15.09-.05.205-.05.092 0 .183.033l-.091.404q-.07-.03-.15-.03-.127 0-.206.095-.08.096-.08.272v.751h-.437zM10.933 6.04q-.194 0-.357-.102-.162-.102-.258-.28-.096-.178-.096-.4 0-.221.096-.4.096-.18.261-.28.166-.1.367-.1.136 0 .244.039.108.04.175.112v-.115h.438v1.49h-.414v-.147h-.024q-.058.085-.167.134-.11.049-.265.049zm.092-.408q.152 0 .258-.106.106-.106.106-.268 0-.16-.106-.267-.106-.106-.258-.106-.152 0-.259.106-.106.106-.106.267 0 .162.106.268.107.106.259.106zM12.915 4.514h.414v.134h.024q.06-.08.17-.125.11-.046.262-.046.194 0 .357.102.162.102.258.28.096.178.096.4 0 .221-.096.4-.096.18-.261.28-.166.1-.367.1-.136 0-.246-.034-.11-.035-.173-.105v.741h-.438zm.778 1.118q.152 0 .259-.106.106-.106.106-.268 0-.16-.106-.267-.107-.106-.259-.106-.152 0-.258.106-.106.106-.106.267 0 .162.106.268.106.106.258.106zM16.174 5.368h-1.022q.03.143.134.225.103.082.234.082.11 0 .192-.046.082-.045.124-.118l.347.182q-.207.347-.654.347-.24 0-.42-.1-.179-.101-.274-.279-.096-.178-.096-.403 0-.221.1-.4.1-.18.272-.28.172-.1.382-.1.237 0 .401.098.164.099.245.268.08.168.08.381 0 .058-.009.103zm-.377-.286q-.022-.115-.099-.18-.078-.066-.205-.066-.119 0-.204.067-.085.067-.121.18zM17.006 6.04q-.23 0-.382-.095-.152-.094-.228-.243l.328-.225q.04.082.121.137.082.055.18.055.16 0 .16-.116 0-.057-.065-.092-.065-.035-.25-.09-.41-.122-.41-.45 0-.2.156-.322t.387-.122q.198 0 .333.075.136.074.208.211l-.294.207q-.107-.152-.256-.152-.063 0-.103.024-.04.024-.04.073 0 .049.05.073.05.024.221.079.222.073.34.18.119.106.119.294 0 .146-.071.259-.072.112-.203.176-.13.064-.3.064zM18.383 6.04q-.23 0-.383-.095-.152-.094-.228-.243l.329-.225q.04.082.121.137.082.055.18.055.16 0 .16-.116 0-.057-.065-.092-.065-.035-.25-.09-.41-.122-.41-.45 0-.2.156-.322t.387-.122q.198 0 .333.075.135.074.208.211l-.294.207q-.107-.152-.256-.152-.064 0-.103.024-.04.024-.04.073 0 .049.05.073.05.024.22.079.223.073.341.18.119.106.119.294 0 .146-.072.259-.071.112-.202.176-.13.064-.3.064zM19.955 6.04q-.225 0-.409-.1-.184-.101-.289-.279-.105-.178-.105-.403 0-.224.105-.402.105-.178.29-.278.183-.1.408-.1.225 0 .409.1.184.1.288.278.105.178.105.402 0 .225-.105.403-.104.178-.288.278-.184.1-.41.1zm0-.408q.161 0 .263-.098.102-.1.102-.276 0-.176-.102-.275-.102-.098-.263-.098-.161 0-.263.098-.102.1-.102.275 0 .177.102.276.102.098.263.098zM21.712 6.04q-.195 0-.357-.102-.163-.102-.259-.28-.095-.178-.095-.4 0-.221.095-.4.096-.18.262-.28.165-.1.366-.1.137 0 .245.039.108.04.174.112v-.115h.438v1.49h-.413v-.147h-.025q-.057.085-.167.134-.11.049-.264.049zm.091-.408q.152 0 .258-.106.107-.106.107-.268 0-.16-.107-.267-.106-.106-.258-.106-.152 0-.258.106-.107.106-.107.267 0 .162.107.268.106.106.258.106zM24.396 6.678q-.262 0-.436-.099-.175-.099-.263-.263l.35-.222q.139.201.349.201.149 0 .24-.093.091-.092.091-.254v-.124q-.073.094-.172.137-.098.042-.241.042-.195 0-.354-.097-.16-.097-.253-.27-.092-.174-.092-.396 0-.222.09-.395.089-.173.248-.27.16-.098.355-.098.304 0 .419.183h.024v-.146h.414V5.96q0 .21-.091.372-.092.163-.265.254-.173.091-.413.091zm.006-1.082q.152 0 .25-.097.1-.098.1-.259 0-.16-.1-.258-.098-.097-.25-.097t-.251.097q-.099.097-.099.258t.099.259q.099.097.25.097zM25.517 4.514h.408v.164h.03q.049-.1.138-.15.09-.05.206-.05.09 0 .182.033l-.091.404q-.07-.03-.15-.03-.127 0-.206.095-.079.096-.079.272v.751h-.438zM27.295 6.04q-.194 0-.357-.102-.162-.102-.258-.28-.096-.178-.096-.4 0-.221.096-.4.096-.18.261-.28.166-.1.367-.1.136 0 .244.039.108.04.175.112v-.115h.438v1.49h-.414v-.147h-.024q-.058.085-.167.134-.11.049-.265.049zm.092-.408q.152 0 .258-.106.106-.106.106-.268 0-.16-.106-.267-.106-.106-.258-.106-.152 0-.259.106-.106.106-.106.267 0 .162.106.268.107.106.259.106zM29.022 4.879v.583q0 .085.04.135.039.05.106.05.052 0 .083-.009.032-.009.069-.03v.383q-.088.049-.219.049-.24 0-.378-.139-.139-.138-.139-.393v-.63h-.14v-.364h.14v-.295l.438-.155v.45h.298v.365zM30.144 6.04q-.265 0-.402-.142-.136-.141-.136-.4v-.984h.437v.86q0 .125.058.191.058.067.176.067.122 0 .19-.086.069-.087.069-.236v-.796h.437v1.49h-.407V5.86h-.03q-.055.092-.158.136-.104.044-.234.044zM31.563 4.307q-.106 0-.184-.077-.077-.078-.077-.184 0-.107.077-.184.078-.078.184-.078t.184.078q.077.077.077.184 0 .106-.077.184-.078.077-.184.077zm-.219.207h.438v1.49h-.438zM32.657 4.879v.583q0 .085.04.135t.106.05q.052 0 .084-.009.032-.009.068-.03v.383q-.088.049-.219.049-.24 0-.378-.139-.138-.138-.138-.393v-.63h-.14v-.364h.14v-.295l.437-.155v.45h.298v.365zM33.952 6.04q-.225 0-.409-.1-.184-.101-.288-.279-.105-.178-.105-.403 0-.224.105-.402.104-.178.288-.278.184-.1.41-.1.224 0 .408.1.184.1.289.278.105.178.105.402 0 .225-.105.403-.105.178-.289.278-.184.1-.409.1zm0-.408q.161 0 .263-.098.102-.1.102-.276 0-.176-.102-.275-.102-.098-.263-.098-.16 0-.263.098-.102.1-.102.275 0 .177.102.276.102.098.263.098zM36.56 6.04q-.225 0-.409-.1-.184-.101-.288-.279-.105-.178-.105-.403 0-.224.105-.402.104-.178.288-.278.184-.1.41-.1.224 0 .408.1.184.1.289.278.105.178.105.402 0 .225-.105.403-.105.178-.289.278-.184.1-.409.1zm0-.408q.161 0 .263-.098.102-.1.102-.276 0-.176-.102-.275-.102-.098-.263-.098-.16 0-.263.098-.102.1-.102.275 0 .177.102.276.102.098.263.098zM37.66 4.514h.408v.149h.03q.061-.085.17-.136.11-.05.253-.05.243 0 .375.143t.132.398v.985h-.437v-.86q0-.125-.055-.192-.055-.066-.18-.066-.121 0-.19.086-.068.087-.068.236v.796h-.438zM40.025 6.04q-.194 0-.357-.102-.162-.102-.258-.28-.096-.178-.096-.4 0-.221.096-.4.096-.18.261-.28.166-.1.366-.1.137 0 .247.034.11.035.173.105v-.742h.438v2.128h-.414V5.87h-.024q-.06.08-.17.125-.11.046-.262.046zm.091-.408q.152 0 .259-.106.106-.106.106-.268 0-.16-.106-.267-.107-.106-.259-.106-.152 0-.258.106-.106.106-.106.267 0 .162.106.268.106.106.258.106zM42.615 5.368h-1.021q.03.143.133.225.104.082.235.082.109 0 .191-.046.082-.045.125-.118l.346.182q-.207.347-.653.347-.24 0-.42-.1-.18-.101-.275-.279-.096-.178-.096-.403 0-.221.1-.4.1-.18.273-.28.171-.1.381-.1.237 0 .401.098.165.099.245.268.08.168.08.381 0 .058-.009.103zm-.377-.286q-.021-.115-.099-.18-.077-.066-.205-.066-.118 0-.204.067-.085.067-.121.18zM43.597 4.514h.456l.352.927h.037l.352-.927h.456l-.592 1.49h-.468zM46.126 6.04q-.225 0-.41-.1-.183-.101-.288-.279-.105-.178-.105-.403 0-.224.105-.402.105-.178.289-.278.184-.1.409-.1.225 0 .409.1.183.1.288.278.105.178.105.402 0 .225-.105.403-.105.178-.288.278-.184.1-.41.1zm0-.408q.16 0 .263-.098.101-.1.101-.276 0-.176-.101-.275-.102-.098-.263-.098-.161 0-.263.098-.102.1-.102.275 0 .177.102.276.102.098.263.098zM47.974 6.04q-.228 0-.412-.1-.184-.101-.287-.28-.104-.18-.104-.402 0-.221.105-.4.105-.18.29-.28.186-.1.414-.1.225 0 .394.084.168.086.265.253l-.352.24q-.106-.17-.307-.17-.155 0-.263.101-.108.102-.108.272 0 .17.105.273.105.101.26.101.228 0 .325-.176l.34.24q-.103.164-.273.254-.17.09-.392.09zM50.257 5.368h-1.022q.03.143.134.225.103.082.234.082.11 0 .192-.046.082-.045.124-.118l.347.182q-.207.347-.654.347-.24 0-.42-.1-.179-.101-.274-.279-.096-.178-.096-.403 0-.221.1-.4.1-.18.272-.28.172-.1.382-.1.237 0 .4.098.165.099.246.268.08.168.08.381 0 .058-.009.103zm-.377-.286q-.022-.115-.1-.18-.077-.066-.204-.066-.119 0-.204.067-.085.067-.122.18zm-.45-1.307h.3l.378.471h-.38l-.15-.185-.148.185h-.38zM52.108 6.04q-.228 0-.412-.1-.184-.101-.287-.28-.104-.18-.104-.402 0-.221.105-.4.105-.18.29-.28.186-.1.414-.1.225 0 .393.084.17.086.266.253l-.352.24q-.107-.17-.307-.17-.155 0-.263.101-.108.102-.108.272 0 .17.105.273.105.101.26.101.228 0 .325-.176l.34.24q-.103.164-.273.254-.17.09-.392.09zM53.758 6.04q-.225 0-.409-.1-.184-.101-.288-.279-.105-.178-.105-.403 0-.224.105-.402.104-.178.288-.278.184-.1.41-.1.224 0 .408.1.184.1.289.278.105.178.105.402 0 .225-.105.403-.105.178-.289.278-.184.1-.409.1zm0-.408q.161 0 .263-.098.102-.1.102-.276 0-.176-.102-.275-.102-.098-.263-.098-.161 0-.263.098-.102.1-.102.275 0 .177.102.276.102.098.263.098zM56.533 4.477q.256 0 .379.142.123.141.123.4v.984h-.438v-.875q0-.243-.207-.243-.112 0-.168.077-.056.078-.056.227v.814h-.438v-.875q0-.243-.207-.243-.112 0-.169.077-.056.078-.056.227v.814h-.438v-1.49h.408v.153h.03q.116-.189.368-.189.3 0 .426.204.066-.1.186-.152.12-.052.257-.052zM57.375 4.514h.414v.134h.024q.06-.08.17-.125.11-.046.262-.046.194 0 .357.102.162.102.258.28.096.178.096.4 0 .221-.096.4-.096.18-.261.28-.166.1-.367.1-.136 0-.246-.034-.11-.035-.173-.105v.741h-.438zm.778 1.118q.152 0 .259-.106.106-.106.106-.268 0-.16-.106-.267-.107-.106-.259-.106-.152 0-.258.106-.106.106-.106.267 0 .162.106.268.106.106.258.106zM60.634 5.368h-1.022q.03.143.134.225.103.082.234.082.11 0 .192-.046.082-.045.124-.118l.347.182q-.207.347-.654.347-.24 0-.42-.1-.178-.101-.274-.279-.096-.178-.096-.403 0-.221.1-.4.1-.18.272-.28.172-.1.382-.1.237 0 .401.098.164.099.245.268.08.168.08.381 0 .058-.009.103zm-.377-.286q-.021-.115-.099-.18-.078-.066-.205-.066-.119 0-.204.067-.085.067-.121.18zM61.42 4.879v.583q0 .085.04.135t.107.05q.052 0 .083-.009.032-.009.069-.03v.383q-.088.049-.219.049-.24 0-.378-.139-.139-.138-.139-.393v-.63h-.14v-.364h.14v-.295l.438-.155v.45h.298v.365zM63.348 5.368h-1.021q.03.143.133.225.104.082.235.082.109 0 .191-.046.082-.045.125-.118l.346.182q-.207.347-.653.347-.24 0-.42-.1-.18-.101-.275-.279-.096-.178-.096-.403 0-.221.1-.4.101-.18.273-.28.171-.1.381-.1.237 0 .401.098.165.099.245.268.08.168.08.381 0 .058-.008.103zm-.377-.286q-.021-.115-.099-.18-.077-.066-.205-.066-.118 0-.203.067-.086.067-.122.18zM64.451 4.514h.414v.134h.024q.06-.08.17-.125.11-.046.262-.046.194 0 .357.102.163.102.258.28.096.178.096.4 0 .221-.096.4-.095.18-.261.28-.166.1-.366.1-.137 0-.247-.034-.11-.035-.173-.105v.741h-.438zm.779 1.118q.152 0 .258-.106.106-.106.106-.268 0-.16-.106-.267-.106-.106-.258-.106-.152 0-.259.106-.106.106-.106.267 0 .162.106.268.107.106.259.106zM66.986 6.04q-.194 0-.357-.102-.162-.102-.258-.28-.096-.178-.096-.4 0-.221.096-.4.096-.18.261-.28.166-.1.367-.1.136 0 .244.039.108.04.175.112v-.115h.438v1.49h-.414v-.147h-.024q-.058.085-.167.134-.11.049-.265.049zm.092-.408q.152 0 .258-.106.106-.106.106-.268 0-.16-.106-.267-.106-.106-.258-.106-.152 0-.259.106-.106.106-.106.267 0 .162.106.268.107.106.259.106zM68.208 4.514h.408v.164h.03q.049-.1.138-.15.09-.05.206-.05.09 0 .182.033l-.091.404q-.07-.03-.15-.03-.127 0-.206.095-.079.096-.079.272v.751h-.438zM69.987 6.04q-.195 0-.358-.102-.162-.102-.258-.28-.096-.178-.096-.4 0-.221.096-.4.096-.18.261-.28.166-.1.367-.1.136 0 .244.039.108.04.175.112v-.115h.438v1.49h-.414v-.147h-.024q-.058.085-.167.134-.11.049-.264.049zm.09-.408q.153 0 .26-.106.105-.106.105-.268 0-.16-.106-.267-.106-.106-.258-.106-.152 0-.259.106-.106.106-.106.267 0 .162.106.268.107.106.259.106z" stroke-width=".00304"/></g><g fill="#FFF" stroke="#FFF"><path d="M.714 9.383q-.23 0-.383-.094-.152-.094-.228-.243l.329-.225q.04.082.121.137.082.054.18.054.16 0 .16-.115 0-.058-.065-.093-.065-.035-.25-.09-.41-.121-.41-.45 0-.2.156-.322.156-.121.387-.121.198 0 .333.074.135.075.208.212l-.295.206q-.106-.152-.255-.152-.064 0-.103.025-.04.024-.04.073 0 .048.05.073.05.024.22.079.223.072.341.179.119.106.119.295 0 .146-.072.258-.071.113-.202.176-.13.064-.3.064zM2.918 8.711H1.897q.03.143.133.225.104.082.234.082.11 0 .192-.045.082-.046.125-.119l.346.183q-.207.346-.653.346-.24 0-.42-.1t-.275-.278q-.096-.178-.096-.403 0-.222.1-.401.1-.18.273-.28.171-.1.381-.1.237 0 .401.099.164.098.245.267.08.169.08.382 0 .057-.009.103zm-.377-.285q-.021-.116-.099-.181-.077-.065-.205-.065-.118 0-.204.066-.085.067-.121.18zM3.261 7.857h.408v.164h.03q.049-.1.138-.15.09-.05.206-.05.09 0 .182.033l-.091.405q-.07-.03-.15-.03-.127 0-.206.095-.079.096-.079.272v.75h-.438zM5.976 9.383q-.225 0-.409-.1-.184-.1-.289-.278-.105-.178-.105-.403 0-.225.105-.403.105-.178.289-.278.184-.1.409-.1.225 0 .409.1.184.1.288.278.105.178.105.403 0 .225-.105.403-.104.178-.288.278-.184.1-.41.1zm0-.407q.16 0 .263-.099.102-.099.102-.275 0-.176-.102-.275-.102-.099-.263-.099-.161 0-.263.099-.102.099-.102.275 0 .176.102.275.102.099.263.099zM9.51 7.82q.256 0 .38.142.122.142.122.4v.985h-.437V8.47q0-.243-.207-.243-.112 0-.169.078-.056.077-.056.226v.815h-.438V8.47q0-.243-.206-.243-.113 0-.169.078-.056.077-.056.226v.815h-.438v-1.49h.407v.152h.03q.116-.188.369-.188.3 0 .425.204.067-.1.187-.152.12-.052.257-.052zM11.733 8.711h-1.021q.03.143.133.225.104.082.234.082.11 0 .192-.045.082-.046.124-.119l.347.183q-.207.346-.654.346-.24 0-.419-.1-.18-.1-.275-.278-.096-.178-.096-.403 0-.222.1-.401.1-.18.272-.28.172-.1.382-.1.237 0 .401.099.164.098.245.267.08.169.08.382 0 .057-.009.103zm-.377-.285q-.021-.116-.099-.181-.077-.065-.205-.065-.119 0-.204.066-.085.067-.121.18zM12.064 7.219h.438v2.128h-.438zM12.83 7.219h.407v.8h.03q.068-.095.182-.146.114-.052.247-.052.268 0 .4.14t.132.428v.958h-.437v-.845q0-.134-.063-.204-.062-.07-.187-.07-.124 0-.199.088-.074.088-.074.234v.797h-.438zM15.316 9.383q-.224 0-.408-.1-.184-.1-.29-.278-.104-.178-.104-.403 0-.225.105-.403.105-.178.289-.278.184-.1.408-.1.225 0 .41.1.183.1.288.278.105.178.105.403 0 .225-.105.403-.105.178-.289.278-.184.1-.409.1zm0-.407q.162 0 .263-.099.102-.099.102-.275 0-.176-.102-.275-.101-.099-.263-.099-.16 0-.262.099-.102.099-.102.275 0 .176.102.275.101.099.262.099zM16.417 7.857h.407v.164h.03q.05-.1.139-.15.09-.05.205-.05.091 0 .182.033l-.09.405q-.07-.03-.15-.03-.127 0-.206.095-.08.096-.08.272v.75h-.437zM19.763 8.711h-1.02q.03.143.133.225.103.082.234.082.11 0 .191-.045.082-.046.125-.119l.347.183q-.207.346-.654.346-.24 0-.42-.1-.179-.1-.275-.278-.095-.178-.095-.403 0-.222.1-.401.1-.18.272-.28.172-.1.382-.1.237 0 .4.099.165.098.245.267.081.169.081.382 0 .057-.01.103zm-.377-.285q-.02-.116-.098-.181-.078-.065-.205-.065-.119 0-.204.066-.085.067-.122.18zM21.782 7.82q.255 0 .378.142t.123.4v.985h-.437V8.47q0-.243-.207-.243-.113 0-.169.078-.056.077-.056.226v.815h-.438V8.47q0-.243-.206-.243-.113 0-.17.078-.055.077-.055.226v.815h-.438v-1.49h.407v.152h.03q.116-.188.368-.188.301 0 .426.204.067-.1.187-.152.12-.052.257-.052zM23.384 7.857h.413v.134h.024q.061-.079.17-.125.11-.045.262-.045.194 0 .357.102.163.102.258.28.096.177.096.399 0 .222-.096.401-.095.18-.261.28-.166.1-.366.1-.137 0-.246-.035-.11-.035-.174-.105v.742h-.437zm.778 1.119q.152 0 .258-.106.106-.107.106-.268 0-.161-.106-.267-.106-.107-.258-.107-.152 0-.259.107-.106.106-.106.267 0 .161.106.268.107.106.259.106zM25.919 9.383q-.195 0-.358-.102-.162-.101-.258-.28-.096-.177-.096-.399 0-.222.096-.401.096-.18.261-.28.166-.1.367-.1.137 0 .244.04.108.039.175.112v-.116h.438v1.49h-.413V9.2h-.025q-.058.085-.167.134-.11.048-.264.048zm.09-.407q.153 0 .26-.106.106-.107.106-.268 0-.161-.107-.267-.106-.107-.258-.107-.152 0-.259.107-.106.106-.106.267 0 .161.106.268.107.106.259.106zM27.14 7.857h.408v.164h.03q.049-.1.138-.15.09-.05.206-.05.09 0 .182.033l-.091.405q-.07-.03-.15-.03-.127 0-.206.095-.079.096-.079.272v.75h-.438zM28.852 8.222v.584q0 .085.04.135.039.05.106.05.051 0 .083-.009.032-.01.069-.03v.383q-.089.048-.22.048-.24 0-.378-.138t-.138-.394v-.629h-.14v-.365h.14v-.295l.438-.155v.45h.298v.365zM29.685 7.65q-.107 0-.184-.077-.078-.077-.078-.184 0-.106.078-.184.077-.077.184-.077.106 0 .184.077.077.078.077.184 0 .107-.077.184-.078.078-.184.078zm-.22.207h.438v1.49h-.437zM30.93 9.383q-.194 0-.356-.102-.163-.101-.259-.28-.095-.177-.095-.399 0-.222.095-.401.096-.18.262-.28.165-.1.366-.1.137 0 .246.035.11.035.173.105v-.742h.438v2.128h-.413v-.134h-.025q-.06.079-.17.125-.11.045-.261.045zm.092-.407q.152 0 .258-.106.107-.107.107-.268 0-.161-.107-.267-.106-.107-.258-.107-.152 0-.258.107-.107.106-.107.267 0 .161.107.268.106.106.258.106zM32.797 9.383q-.194 0-.357-.102-.163-.101-.258-.28-.096-.177-.096-.399 0-.222.096-.401.095-.18.261-.28.166-.1.366-.1.137 0 .245.04.108.039.175.112v-.116h.437v1.49h-.413V9.2h-.024q-.058.085-.167.134-.11.048-.265.048zm.091-.407q.152 0 .259-.106.106-.107.106-.268 0-.161-.106-.267-.107-.107-.259-.107-.152 0-.258.107-.106.106-.106.267 0 .161.106.268.106.106.258.106zM34.557 9.383q-.23 0-.383-.094-.152-.094-.228-.243l.328-.225q.04.082.122.137.082.054.18.054.16 0 .16-.115 0-.058-.065-.093-.065-.035-.25-.09-.411-.121-.411-.45 0-.2.156-.322.157-.121.388-.121.198 0 .333.074.135.075.208.212l-.295.206q-.106-.152-.255-.152-.064 0-.103.025-.04.024-.04.073 0 .048.05.073.05.024.22.079.222.072.341.179.119.106.119.295 0 .146-.072.258-.071.113-.202.176-.13.064-.3.064zM36.943 9.383q-.225 0-.409-.1-.184-.1-.288-.278-.105-.178-.105-.403 0-.225.105-.403.104-.178.288-.278.184-.1.41-.1.224 0 .408.1.184.1.289.278.105.178.105.403 0 .225-.105.403-.105.178-.289.278-.184.1-.409.1zm0-.407q.161 0 .263-.099.102-.099.102-.275 0-.176-.102-.275-.102-.099-.263-.099-.16 0-.263.099-.102.099-.102.275 0 .176.102.275.102.099.263.099zM38.043 7.857h.408v.15h.03q.061-.086.17-.136.11-.05.253-.05.243 0 .375.143t.132.398v.985h-.437v-.86q0-.125-.055-.192t-.18-.067q-.121 0-.19.087-.068.086-.068.235v.797h-.438zM39.788 8.213h1.018v.377h-1.018zM41.183 7.219h.438v2.128h-.438zM42.199 7.65q-.107 0-.184-.077-.078-.077-.078-.184 0-.106.078-.184.077-.077.184-.077.106 0 .183.077.078.078.078.184 0 .107-.078.184-.077.078-.183.078zm-.22.207h.438v1.49h-.437zM42.788 7.857h.408v.15h.03q.06-.086.17-.136.11-.05.252-.05.244 0 .376.143t.132.398v.985h-.438v-.86q0-.125-.054-.192-.055-.067-.18-.067-.121 0-.19.087-.068.086-.068.235v.797h-.438zM45.876 8.711h-1.02q.03.143.133.225.103.082.234.082.11 0 .191-.045.083-.046.125-.119l.347.183q-.207.346-.654.346-.24 0-.42-.1-.179-.1-.274-.278-.096-.178-.096-.403 0-.222.1-.401.1-.18.272-.28.172-.1.382-.1.237 0 .4.099.165.098.246.267.08.169.08.382 0 .057-.009.103zm-.376-.285q-.022-.116-.1-.181-.077-.065-.204-.065-.119 0-.204.066-.085.067-.122.18zM47.636 9.383q-.194 0-.357-.102-.162-.101-.258-.28-.096-.177-.096-.399 0-.222.096-.401.096-.18.261-.28.166-.1.367-.1.136 0 .246.035.11.035.173.105v-.742h.438v2.128h-.414v-.134h-.024q-.06.079-.17.125-.11.045-.262.045zm.092-.407q.152 0 .258-.106.106-.107.106-.268 0-.161-.106-.267-.106-.107-.258-.107-.152 0-.259.107-.106.106-.106.267 0 .161.106.268.107.106.259.106zM50.226 8.711h-1.021q.03.143.134.225.103.082.234.082.11 0 .191-.045.082-.046.125-.119l.346.183q-.206.346-.653.346-.24 0-.42-.1-.179-.1-.275-.278-.096-.178-.096-.403 0-.222.1-.401.101-.18.273-.28.172-.1.381-.1.237 0 .402.099.164.098.244.267.08.169.08.382 0 .057-.008.103zm-.377-.285q-.021-.116-.099-.181-.077-.065-.205-.065-.118 0-.203.066-.085.067-.122.18zM51.33 7.857h.407v.164h.03q.049-.1.139-.15.09-.05.205-.05.09 0 .182.033l-.091.405q-.07-.03-.15-.03-.127 0-.206.095-.079.096-.079.272v.75h-.437zM52.773 7.65q-.106 0-.184-.077-.077-.077-.077-.184 0-.106.077-.184.078-.077.184-.077.107 0 .184.077.078.078.078.184 0 .107-.078.184-.077.078-.184.078zm-.219.207h.438v1.49h-.438zM53.868 8.222v.584q0 .085.04.135.039.05.105.05.052 0 .084-.009.032-.01.068-.03v.383q-.088.048-.218.048-.24 0-.379-.138-.138-.138-.138-.394v-.629h-.14v-.365h.14v-.295l.438-.155v.45h.297v.365zM56.138 7.82q.255 0 .379.142.123.142.123.4v.985h-.438V8.47q0-.243-.207-.243-.112 0-.168.078-.057.077-.057.226v.815h-.437V8.47q0-.243-.207-.243-.113 0-.169.078-.056.077-.056.226v.815h-.438v-1.49h.408v.152h.03q.116-.188.368-.188.3 0 .425.204.067-.1.187-.152.12-.052.257-.052zM57.728 9.383q-.225 0-.409-.1-.184-.1-.289-.278-.105-.178-.105-.403 0-.225.105-.403.105-.178.289-.278.184-.1.409-.1.225 0 .409.1.184.1.288.278.105.178.105.403 0 .225-.105.403-.104.178-.288.278-.184.1-.41.1zm0-.407q.16 0 .263-.099.102-.099.102-.275 0-.176-.102-.275-.102-.099-.263-.099-.161 0-.263.099-.102.099-.102.275 0 .176.102.275.102.099.263.099zM59.588 7.857h.407v.164h.03q.05-.1.14-.15.089-.05.204-.05.091 0 .183.033l-.092.405q-.07-.03-.149-.03-.127 0-.206.095-.08.096-.08.272v.75h-.437zM61.366 9.383q-.194 0-.357-.102-.163-.101-.258-.28-.096-.177-.096-.399 0-.222.096-.401.095-.18.261-.28.166-.1.366-.1.137 0 .245.04.108.039.175.112v-.116h.438v1.49h-.414V9.2h-.024q-.058.085-.167.134-.11.048-.265.048zm.091-.407q.152 0 .259-.106.106-.107.106-.268 0-.161-.106-.267-.107-.107-.259-.107-.152 0-.258.107-.106.106-.106.267 0 .161.106.268.106.106.258.106zm-.09-1.818h.507l-.262.432h-.4zM62.588 7.857h.414v.134h.024q.06-.079.17-.125.11-.045.261-.045.195 0 .358.102.162.102.258.28.096.177.096.399 0 .222-.096.401-.096.18-.261.28-.166.1-.367.1-.136 0-.246-.035-.11-.035-.173-.105v.742h-.438zm.778 1.119q.152 0 .259-.106.106-.107.106-.268 0-.161-.106-.267-.107-.107-.259-.107-.152 0-.258.107-.106.106-.106.267 0 .161.106.268.106.106.258.106zM64.704 7.65q-.107 0-.184-.077-.078-.077-.078-.184 0-.106.078-.184.077-.077.184-.077.106 0 .184.077.077.078.077.184 0 .107-.077.184-.078.078-.184.078zm-.22.207h.439v1.49h-.438zM65.95 9.383q-.195 0-.357-.102-.163-.101-.259-.28-.095-.177-.095-.399 0-.222.095-.401.096-.18.262-.28.165-.1.366-.1.137 0 .246.035.11.035.174.105v-.742h.437v2.128h-.413v-.134h-.024q-.061.079-.17.125-.11.045-.262.045zm.091-.407q.152 0 .258-.106.107-.107.107-.268 0-.161-.107-.267-.106-.107-.258-.107-.152 0-.258.107-.107.106-.107.267 0 .161.107.268.106.106.258.106zM67.907 9.383q-.225 0-.408-.1-.184-.1-.29-.278-.104-.178-.104-.403 0-.225.105-.403.105-.178.289-.278.183-.1.408-.1.225 0 .41.1.183.1.288.278.105.178.105.403 0 .225-.105.403-.105.178-.289.278-.184.1-.409.1zm0-.407q.162 0 .263-.099.102-.099.102-.275 0-.176-.102-.275-.101-.099-.263-.099-.16 0-.262.099-.102.099-.102.275 0 .176.102.275.101.099.262.099zM69.142 9.377q-.104 0-.177-.073t-.073-.176q0-.103.073-.176t.177-.073q.103 0 .176.073t.073.176q0 .103-.073.176t-.176.073z" stroke-width=".00304"/></g></svg>