<svg width="572.667" height="79" viewBox="0 0 572.667 79" xmlns="http://www.w3.org/2000/svg"><g fill="#FFF" stroke="#FFF"><path d="M5.616 12.192L.864 4.2h4.272l1.896 3.36.72 1.968h.24l.72-1.968 1.896-3.36h4.272l-4.752 7.992L15.264 21H10.8l-1.992-3.72-.792-1.944h-.288l-.792 1.944L4.944 21H.48zM17.28 4.2h5.496q2.616 0 4.548 1.032t2.964 2.928q1.032 1.896 1.032 4.44 0 2.544-1.032 4.44-1.032 1.896-2.964 2.928T22.776 21H17.28zm5.496 13.344q2.376 0 3.636-1.296 1.26-1.296 1.26-3.648 0-2.352-1.26-3.648-1.26-1.296-3.636-1.296h-1.848v9.888zM44.712 15.984h-8.064q.24 1.128 1.056 1.776.816.648 1.848.648.864 0 1.512-.36t.984-.936l2.736 1.44q-1.632 2.736-5.16 2.736-1.896 0-3.312-.792T34.14 18.3q-.756-1.404-.756-3.18 0-1.752.792-3.168.792-1.416 2.148-2.208 1.356-.792 3.012-.792 1.872 0 3.168.78t1.932 2.112q.636 1.332.636 3.012 0 .456-.072.816zm-2.976-2.256q-.168-.912-.78-1.428-.612-.516-1.62-.516-.936 0-1.608.528t-.96 1.416zM56.856 7.608q-.84 0-1.452-.612t-.612-1.452q0-.84.612-1.452t1.452-.612q.84 0 1.452.612t.612 1.452q0 .84-.612 1.452t-1.452.612zM58.584 21h-3.456v-8.88h-4.056V21h-3.456v-8.88h-1.248V9.24h1.248V8.112q0-1.992 1.212-3.096t3.06-1.104q.672 0 1.392.288v3.072q-.528-.264-1.056-.264-.504 0-.828.396-.324.396-.324.996v.84h7.512zM66.696 21.288q-1.536 0-2.82-.804-1.284-.804-2.04-2.208-.756-1.404-.756-3.156 0-1.752.756-3.168.756-1.416 2.064-2.208 1.308-.792 2.892-.792 1.08 0 1.932.312.852.312 1.38.888V9.24h3.456V21h-3.264v-1.152h-.192q-.456.672-1.32 1.056-.864.384-2.088.384zm.72-3.216q1.2 0 2.04-.84.84-.84.84-2.112 0-1.272-.84-2.112-.84-.84-2.04-.84-1.2 0-2.04.84-.84.84-.84 2.112 0 1.272.84 2.112.84.84 2.04.84zM76.344 9.24h3.216v1.176h.24q.48-.672 1.344-1.068.864-.396 1.992-.396 1.92 0 2.964 1.128t1.044 3.144V21h-3.456v-6.792q0-.984-.432-1.512t-1.416-.528q-.96 0-1.5.684t-.54 1.86V21h-3.456zM93.816 12.12v4.608q0 .672.312 1.068t.84.396q.408 0 .66-.072.252-.072.54-.24v3.024q-.696.384-1.728.384-1.896 0-2.988-1.092t-1.092-3.108V12.12h-1.104V9.24h1.104V6.912l3.456-1.224V9.24h2.352v2.88zM115.416 15.984h-8.064q.24 1.128 1.056 1.776.816.648 1.848.648.864 0 1.512-.36t.984-.936l2.736 1.44q-1.632 2.736-5.16 2.736-1.896 0-3.312-.792t-2.172-2.196q-.756-1.404-.756-3.18 0-1.752.792-3.168.792-1.416 2.148-2.208 1.356-.792 3.012-.792 1.872 0 3.168.78t1.932 2.112q.636 1.332.636 3.012 0 .456-.072.816zm-2.976-2.256q-.168-.912-.78-1.428-.612-.516-1.62-.516-.936 0-1.608.528t-.96 1.416zM109.584 3.72h4.008l-2.064 3.408h-3.168zM128.28 21.288q-2.088 0-3.168-1.116t-1.08-3.156V9.24h3.456v6.792q0 .984.456 1.512t1.392.528q.96 0 1.5-.684t.54-1.86V9.24h3.456V21h-3.216v-1.128h-.24q-.432.72-1.248 1.068-.816.348-1.848.348zM150.84 8.952q2.016 0 2.988 1.116t.972 3.156V21h-3.456v-6.912q0-1.92-1.632-1.92-.888 0-1.332.612-.444.612-.444 1.788V21h-3.456v-6.912q0-1.92-1.632-1.92-.888 0-1.332.612-.444.612-.444 1.788V21h-3.456V9.24h3.216v1.2h.24q.912-1.488 2.904-1.488 2.376 0 3.36 1.608.528-.792 1.476-1.2.948-.408 2.028-.408zM165.576 7.608q-.84 0-1.452-.612t-.612-1.452q0-.84.612-1.452t1.452-.612q.84 0 1.452.612t.612 1.452q0 .84-.612 1.452t-1.452.612zm-2.232 18.72q-.576 0-1.212-.168t-.996-.408l.96-2.976q.48.288.888.288.48 0 .672-.276.192-.276.192-.9V9.24h3.456v12.888q0 2.064-1.092 3.132t-2.868 1.068zM176.136 21.288q-1.776 0-3.228-.792-1.452-.792-2.28-2.196-.828-1.404-.828-3.18 0-1.776.828-3.18.828-1.404 2.28-2.196 1.452-.792 3.228-.792 1.776 0 3.228.792 1.452.792 2.28 2.196.828 1.404.828 3.18 0 1.776-.828 3.18-.828 1.404-2.28 2.196-1.452.792-3.228.792zm0-3.216q1.272 0 2.076-.78t.804-2.172q0-1.392-.804-2.172-.804-.78-2.076-.78t-2.076.78q-.804.78-.804 2.172 0 1.392.804 2.172.804.78 2.076.78zM190.368 26.328q-2.064 0-3.444-.78t-2.076-2.076l2.76-1.752q1.104 1.584 2.76 1.584 1.176 0 1.896-.732t.72-2.004v-.984q-.576.744-1.356 1.08-.78.336-1.908.336-1.536 0-2.796-.768-1.26-.768-1.992-2.136t-.732-3.12q0-1.752.708-3.12t1.968-2.136q1.26-.768 2.796-.768 2.4 0 3.312 1.44h.192V9.24h3.264v11.424q0 1.656-.72 2.94t-2.088 2.004q-1.368.72-3.264.72zm.048-8.544q1.2 0 1.98-.768t.78-2.04q0-1.272-.78-2.04t-1.98-.768q-1.2 0-1.98.768t-.78 2.04q0 1.272.78 2.04t1.98.768zM205.128 21.288q-1.776 0-3.228-.792-1.452-.792-2.28-2.196-.828-1.404-.828-3.18 0-1.776.828-3.18.828-1.404 2.28-2.196 1.452-.792 3.228-.792 1.776 0 3.228.792 1.452.792 2.28 2.196.828 1.404.828 3.18 0 1.776-.828 3.18-.828 1.404-2.28 2.196-1.452.792-3.228.792zm0-3.216q1.272 0 2.076-.78t.804-2.172q0-1.392-.804-2.172-.804-.78-2.076-.78t-2.076.78q-.804.78-.804 2.172 0 1.392.804 2.172.804.78 2.076.78zM225 21.288q-1.536 0-2.82-.804-1.284-.804-2.04-2.208-.756-1.404-.756-3.156 0-1.752.756-3.168.756-1.416 2.064-2.208 1.308-.792 2.892-.792 1.08 0 1.944.276.864.276 1.368.828V4.2h3.456V21H228.6v-1.056h-.192q-.48.624-1.344.984-.864.36-2.064.36zm.72-3.216q1.2 0 2.04-.84.84-.84.84-2.112 0-1.272-.84-2.112-.84-.84-2.04-.84-1.2 0-2.04.84-.84.84-.84 2.112 0 1.272.84 2.112.84.84 2.04.84zM245.448 15.984h-8.064q.24 1.128 1.056 1.776.816.648 1.848.648.864 0 1.512-.36t.984-.936l2.736 1.44q-1.632 2.736-5.16 2.736-1.896 0-3.312-.792t-2.172-2.196q-.756-1.404-.756-3.18 0-1.752.792-3.168.792-1.416 2.148-2.208 1.356-.792 3.012-.792 1.872 0 3.168.78t1.932 2.112q.636 1.332.636 3.012 0 .456-.072.816zm-2.976-2.256q-.168-.912-.78-1.428-.612-.516-1.62-.516-.936 0-1.608.528t-.96 1.416zM259.344 21.288q-1.536 0-2.82-.804-1.284-.804-2.04-2.208-.756-1.404-.756-3.156 0-1.752.756-3.168.756-1.416 2.064-2.208 1.308-.792 2.892-.792 1.08 0 1.932.312.852.312 1.38.888V9.24h3.456V21h-3.264v-1.152h-.192q-.456.672-1.32 1.056-.864.384-2.088.384zm.72-3.216q1.2 0 2.04-.84.84-.84.84-2.112 0-1.272-.84-2.112-.84-.84-2.04-.84-1.2 0-2.04.84-.84.84-.84 2.112 0 1.272.84 2.112.84.84 2.04.84zM272.976 12.12v4.608q0 .672.312 1.068t.84.396q.408 0 .66-.072.252-.072.54-.24v3.024q-.696.384-1.728.384-1.896 0-2.988-1.092t-1.092-3.108V12.12h-1.104V9.24h1.104V6.912l3.456-1.224V9.24h2.352v2.88zM279.552 7.608q-.84 0-1.452-.612t-.612-1.452q0-.84.612-1.452t1.452-.612q.84 0 1.452.612t.612 1.452q0 .84-.612 1.452t-1.452.612zm-1.728 1.632h3.456V21h-3.456zM284.208 9.24h3.216v1.296h.24q.384-.792 1.092-1.188.708-.396 1.62-.396.72 0 1.44.264l-.72 3.192q-.552-.24-1.176-.24-1.008 0-1.632.756-.624.756-.624 2.148V21h-3.456zM298.248 21.288q-1.536 0-2.82-.804-1.284-.804-2.04-2.208-.756-1.404-.756-3.156 0-1.752.756-3.168.756-1.416 2.064-2.208 1.308-.792 2.892-.792 1.08 0 1.932.312.852.312 1.38.888V9.24h3.456V21h-3.264v-1.152h-.192q-.456.672-1.32 1.056-.864.384-2.088.384zm.72-3.216q1.2 0 2.04-.84.84-.84.84-2.112 0-1.272-.84-2.112-.84-.84-2.04-.84-1.2 0-2.04.84-.84.84-.84 2.112 0 1.272.84 2.112.84.84 2.04.84zM313.08 21.288q-1.536 0-2.82-.804-1.284-.804-2.04-2.208-.756-1.404-.756-3.156 0-1.752.756-3.168.756-1.416 2.064-2.208 1.308-.792 2.892-.792 1.08 0 1.944.276.864.276 1.368.828V4.2h3.456V21h-3.264v-1.056h-.192q-.48.624-1.344.984-.864.36-2.064.36zm.72-3.216q1.2 0 2.04-.84.84-.84.84-2.112 0-1.272-.84-2.112-.84-.84-2.04-.84-1.2 0-2.04.84-.84.84-.84 2.112 0 1.272.84 2.112.84.84 2.04.84zM328.536 21.288q-1.776 0-3.228-.792-1.452-.792-2.28-2.196-.828-1.404-.828-3.18 0-1.776.828-3.18.828-1.404 2.28-2.196 1.452-.792 3.228-.792 1.776 0 3.228.792 1.452.792 2.28 2.196.828 1.404.828 3.18 0 1.776-.828 3.18-.828 1.404-2.28 2.196-1.452.792-3.228.792zm0-3.216q1.272 0 2.076-.78t.804-2.172q0-1.392-.804-2.172-.804-.78-2.076-.78t-2.076.78q-.804.78-.804 2.172 0 1.392.804 2.172.804.78 2.076.78zM337.224 9.24h3.216v1.296h.24q.384-.792 1.092-1.188.708-.396 1.62-.396.72 0 1.44.264l-.72 3.192q-.552-.24-1.176-.24-1.008 0-1.632.756-.624.756-.624 2.148V21h-3.456zM357.936 21.288q-1.536 0-2.82-.804-1.284-.804-2.04-2.208-.756-1.404-.756-3.156 0-1.752.756-3.168.756-1.416 2.064-2.208 1.308-.792 2.892-.792 1.08 0 1.944.276.864.276 1.368.828V4.2h3.456V21h-3.264v-1.056h-.192q-.48.624-1.344.984-.864.36-2.064.36zm.72-3.216q1.2 0 2.04-.84.84-.84.84-2.112 0-1.272-.84-2.112-.84-.84-2.04-.84-1.2 0-2.04.84-.84.84-.84 2.112 0 1.272.84 2.112.84.84 2.04.84zM378.384 15.984h-8.064q.24 1.128 1.056 1.776.816.648 1.848.648.864 0 1.512-.36t.984-.936l2.736 1.44q-1.632 2.736-5.16 2.736-1.896 0-3.312-.792t-2.172-2.196q-.756-1.404-.756-3.18 0-1.752.792-3.168.792-1.416 2.148-2.208 1.356-.792 3.012-.792 1.872 0 3.168.78t1.932 2.112q.636 1.332.636 3.012 0 .456-.072.816zm-2.976-2.256q-.168-.912-.78-1.428-.612-.516-1.62-.516-.936 0-1.608.528t-.96 1.416zM392.28 21.288q-1.536 0-2.82-.804-1.284-.804-2.04-2.208-.756-1.404-.756-3.156 0-1.752.756-3.168.756-1.416 2.064-2.208 1.308-.792 2.892-.792 1.08 0 1.932.312.852.312 1.38.888V9.24h3.456V21h-3.264v-1.152h-.192q-.456.672-1.32 1.056-.864.384-2.088.384zm.72-3.216q1.2 0 2.04-.84.84-.84.84-2.112 0-1.272-.84-2.112-.84-.84-2.04-.84-1.2 0-2.04.84-.84.84-.84 2.112 0 1.272.84 2.112.84.84 2.04.84zM401.928 9.24h3.216v1.296h.24q.384-.792 1.092-1.188.708-.396 1.62-.396.72 0 1.44.264l-.72 3.192q-.552-.24-1.176-.24-1.008 0-1.632.756-.624.756-.624 2.148V21h-3.456zM421.68 15.984h-8.064q.24 1.128 1.056 1.776.816.648 1.848.648.864 0 1.512-.36t.984-.936l2.736 1.44q-1.632 2.736-5.16 2.736-1.896 0-3.312-.792t-2.172-2.196q-.756-1.404-.756-3.18 0-1.752.792-3.168.792-1.416 2.148-2.208 1.356-.792 3.012-.792 1.872 0 3.168.78t1.932 2.112q.636 1.332.636 3.012 0 .456-.072.816zm-2.976-2.256q-.168-.912-.78-1.428-.612-.516-1.62-.516-.936 0-1.608.528t-.96 1.416zM424.392 9.24h3.216v1.176h.24q.48-.672 1.344-1.068.864-.396 1.992-.396 1.92 0 2.964 1.128t1.044 3.144V21h-3.456v-6.792q0-.984-.432-1.512t-1.416-.528q-.96 0-1.5.684t-.54 1.86V21h-3.456zM443.064 21.288q-1.536 0-2.82-.804-1.284-.804-2.04-2.208-.756-1.404-.756-3.156 0-1.752.756-3.168.756-1.416 2.064-2.208 1.308-.792 2.892-.792 1.08 0 1.932.312.852.312 1.38.888V9.24h3.456V21h-3.264v-1.152h-.192q-.456.672-1.32 1.056-.864.384-2.088.384zm.72-3.216q1.2 0 2.04-.84.84-.84.84-2.112 0-1.272-.84-2.112-.84-.84-2.04-.84-1.2 0-2.04.84-.84.84-.84 2.112 0 1.272.84 2.112.84.84 2.04.84zM469.608 15.984h-8.064q.24 1.128 1.056 1.776.816.648 1.848.648.864 0 1.512-.36t.984-.936l2.736 1.44q-1.632 2.736-5.16 2.736-1.896 0-3.312-.792t-2.172-2.196q-.756-1.404-.756-3.18 0-1.752.792-3.168.792-1.416 2.148-2.208 1.356-.792 3.012-.792 1.872 0 3.168.78t1.932 2.112q.636 1.332.636 3.012 0 .456-.072.816zm-2.976-2.256q-.168-.912-.78-1.428-.612-.516-1.62-.516-.936 0-1.608.528t-.96 1.416zM485.544 8.952q2.016 0 2.988 1.116t.972 3.156V21h-3.456v-6.912q0-1.92-1.632-1.92-.888 0-1.332.612-.444.612-.444 1.788V21h-3.456v-6.912q0-1.92-1.632-1.92-.888 0-1.332.612-.444.612-.444 1.788V21h-3.456V9.24h3.216v1.2h.24q.912-1.488 2.904-1.488 2.376 0 3.36 1.608.528-.792 1.476-1.2.948-.408 2.028-.408z" stroke-width=".024"/></g><g fill="#FFF" stroke="#FFF"><path d="M1.392 35.64h3.264v1.056h.192q.48-.624 1.344-.984.864-.36 2.064-.36 1.536 0 2.82.804 1.284.804 2.04 2.208.756 1.404.756 3.156 0 1.752-.756 3.168-.756 1.416-2.064 2.208-1.308.792-2.892.792-1.08 0-1.944-.276-.864-.276-1.368-.828v5.856H1.392zm6.144 8.832q1.2 0 2.04-.84.84-.84.84-2.112 0-1.272-.84-2.112-.84-.84-2.04-.84-1.2 0-2.04.84-.84.84-.84 2.112 0 1.272.84 2.112.84.84 2.04.84zM16.224 35.64h3.216v1.296h.24q.384-.792 1.092-1.188.708-.396 1.62-.396.72 0 1.44.264l-.72 3.192q-.552-.24-1.176-.24-1.008 0-1.632.756-.624.756-.624 2.148V47.4h-3.456zM27.624 34.008q-.84 0-1.452-.612t-.612-1.452q0-.84.612-1.452t1.452-.612q.84 0 1.452.612t.612 1.452q0 .84-.612 1.452t-1.452.612zm-1.728 1.632h3.456V47.4h-3.456zM45.504 35.352q2.016 0 2.988 1.116t.972 3.156V47.4h-3.456v-6.912q0-1.92-1.632-1.92-.888 0-1.332.612-.444.612-.444 1.788V47.4h-3.456v-6.912q0-1.92-1.632-1.92-.888 0-1.332.612-.444.612-.444 1.788V47.4H32.28V35.64h3.216v1.2h.24q.912-1.488 2.904-1.488 2.376 0 3.36 1.608.528-.792 1.476-1.2.948-.408 2.028-.408zM63.048 42.384h-8.064q.24 1.128 1.056 1.776.816.648 1.848.648.864 0 1.512-.36t.984-.936l2.736 1.44q-1.632 2.736-5.16 2.736-1.896 0-3.312-.792T52.476 44.7q-.756-1.404-.756-3.18 0-1.752.792-3.168.792-1.416 2.148-2.208 1.356-.792 3.012-.792 1.872 0 3.168.78t1.932 2.112q.636 1.332.636 3.012 0 .456-.072.816zm-2.976-2.256q-.168-.912-.78-1.428-.612-.516-1.62-.516-.936 0-1.608.528t-.96 1.416zM67.632 34.008q-.84 0-1.452-.612t-.612-1.452q0-.84.612-1.452t1.452-.612q.84 0 1.452.612t.612 1.452q0 .84-.612 1.452t-1.452.612zm-1.728 1.632h3.456V47.4h-3.456zM72.288 35.64h3.216v1.296h.24q.384-.792 1.092-1.188.708-.396 1.62-.396.72 0 1.44.264l-.72 3.192q-.552-.24-1.176-.24-1.008 0-1.632.756-.624.756-.624 2.148V47.4h-3.456zM86.328 47.688q-1.536 0-2.82-.804-1.284-.804-2.04-2.208-.756-1.404-.756-3.156 0-1.752.756-3.168.756-1.416 2.064-2.208 1.308-.792 2.892-.792 1.08 0 1.932.312.852.312 1.38.888v-.912h3.456V47.4h-3.264v-1.152h-.192q-.456.672-1.32 1.056-.864.384-2.088.384zm.72-3.216q1.2 0 2.04-.84.84-.84.84-2.112 0-1.272-.84-2.112-.84-.84-2.04-.84-1.2 0-2.04.84-.84.84-.84 2.112 0 1.272.84 2.112.84.84 2.04.84zM101.976 35.64h3.264v1.056h.192q.48-.624 1.344-.984.864-.36 2.064-.36 1.536 0 2.82.804 1.284.804 2.04 2.208.756 1.404.756 3.156 0 1.752-.756 3.168-.756 1.416-2.064 2.208-1.308.792-2.892.792-1.08 0-1.944-.276-.864-.276-1.368-.828v5.856h-3.456zm6.144 8.832q1.2 0 2.04-.84.84-.84.84-2.112 0-1.272-.84-2.112-.84-.84-2.04-.84-1.2 0-2.04.84-.84.84-.84 2.112 0 1.272.84 2.112.84.84 2.04.84zM127.704 42.384h-8.064q.24 1.128 1.056 1.776.816.648 1.848.648.864 0 1.512-.36t.984-.936l2.736 1.44q-1.632 2.736-5.16 2.736-1.896 0-3.312-.792t-2.172-2.196q-.756-1.404-.756-3.18 0-1.752.792-3.168.792-1.416 2.148-2.208 1.356-.792 3.012-.792 1.872 0 3.168.78t1.932 2.112q.636 1.332.636 3.012 0 .456-.072.816zm-2.976-2.256q-.168-.912-.78-1.428-.612-.516-1.62-.516-.936 0-1.608.528t-.96 1.416zM134.28 47.688q-1.824 0-3.024-.744t-1.8-1.92l2.592-1.776q.312.648.96 1.08.648.432 1.416.432 1.272 0 1.272-.912 0-.456-.516-.732-.516-.276-1.98-.708-3.24-.96-3.24-3.552 0-1.584 1.236-2.544t3.06-.96q1.56 0 2.628.588t1.644 1.668L136.2 39.24q-.84-1.2-2.016-1.2-.504 0-.816.192-.312.192-.312.576 0 .384.396.576.396.192 1.74.624 1.752.576 2.688 1.416.936.84.936 2.328 0 1.152-.564 2.04-.564.888-1.596 1.392-1.032.504-2.376.504zM145.152 47.688q-1.824 0-3.024-.744t-1.8-1.92l2.592-1.776q.312.648.96 1.08.648.432 1.416.432 1.272 0 1.272-.912 0-.456-.516-.732-.516-.276-1.98-.708-3.24-.96-3.24-3.552 0-1.584 1.236-2.544t3.06-.96q1.56 0 2.628.588t1.644 1.668l-2.328 1.632q-.84-1.2-2.016-1.2-.504 0-.816.192-.312.192-.312.576 0 .384.396.576.396.192 1.74.624 1.752.576 2.688 1.416.936.84.936 2.328 0 1.152-.564 2.04-.564.888-1.596 1.392-1.032.504-2.376.504zM157.56 47.688q-1.776 0-3.228-.792-1.452-.792-2.28-2.196-.828-1.404-.828-3.18 0-1.776.828-3.18.828-1.404 2.28-2.196 1.452-.792 3.228-.792 1.776 0 3.228.792 1.452.792 2.28 2.196.828 1.404.828 3.18 0 1.776-.828 3.18-.828 1.404-2.28 2.196-1.452.792-3.228.792zm0-3.216q1.272 0 2.076-.78t.804-2.172q0-1.392-.804-2.172-.804-.78-2.076-.78t-2.076.78q-.804.78-.804 2.172 0 1.392.804 2.172.804.78 2.076.78zM171.432 47.688q-1.536 0-2.82-.804-1.284-.804-2.04-2.208-.756-1.404-.756-3.156 0-1.752.756-3.168.756-1.416 2.064-2.208 1.308-.792 2.892-.792 1.08 0 1.932.312.852.312 1.38.888v-.912h3.456V47.4h-3.264v-1.152h-.192q-.456.672-1.32 1.056-.864.384-2.088.384zm.72-3.216q1.2 0 2.04-.84.84-.84.84-2.112 0-1.272-.84-2.112-.84-.84-2.04-.84-1.2 0-2.04.84-.84.84-.84 2.112 0 1.272.84 2.112.84.84 2.04.84zM192.624 52.728q-2.064 0-3.444-.78t-2.076-2.076l2.76-1.752q1.104 1.584 2.76 1.584 1.176 0 1.896-.732t.72-2.004v-.984q-.576.744-1.356 1.08-.78.336-1.908.336-1.536 0-2.796-.768-1.26-.768-1.992-2.136t-.732-3.12q0-1.752.708-3.12t1.968-2.136q1.26-.768 2.796-.768 2.4 0 3.312 1.44h.192V35.64h3.264v11.424q0 1.656-.72 2.94t-2.088 2.004q-1.368.72-3.264.72zm.048-8.544q1.2 0 1.98-.768t.78-2.04q0-1.272-.78-2.04t-1.98-.768q-1.2 0-1.98.768t-.78 2.04q0 1.272.78 2.04t1.98.768zM201.48 35.64h3.216v1.296h.24q.384-.792 1.092-1.188.708-.396 1.62-.396.72 0 1.44.264l-.72 3.192q-.552-.24-1.176-.24-1.008 0-1.632.756-.624.756-.624 2.148V47.4h-3.456zM215.52 47.688q-1.536 0-2.82-.804-1.284-.804-2.04-2.208-.756-1.404-.756-3.156 0-1.752.756-3.168.756-1.416 2.064-2.208 1.308-.792 2.892-.792 1.08 0 1.932.312.852.312 1.38.888v-.912h3.456V47.4h-3.264v-1.152h-.192q-.456.672-1.32 1.056-.864.384-2.088.384zm.72-3.216q1.2 0 2.04-.84.84-.84.84-2.112 0-1.272-.84-2.112-.84-.84-2.04-.84-1.2 0-2.04.84-.84.84-.84 2.112 0 1.272.84 2.112.84.84 2.04.84zM229.152 38.52v4.608q0 .672.312 1.068t.84.396q.408 0 .66-.072.252-.072.54-.24v3.024q-.696.384-1.728.384-1.896 0-2.988-1.092t-1.092-3.108V38.52h-1.104v-2.88h1.104v-2.328l3.456-1.224v3.552h2.352v2.88zM238.008 47.688q-2.088 0-3.168-1.116t-1.08-3.156V35.64h3.456v6.792q0 .984.456 1.512t1.392.528q.96 0 1.5-.684t.54-1.86V35.64h3.456V47.4h-3.216v-1.128h-.24q-.432.72-1.248 1.068-.816.348-1.848.348zM249.216 34.008q-.84 0-1.452-.612t-.612-1.452q0-.84.612-1.452t1.452-.612q.84 0 1.452.612t.612 1.452q0 .84-.612 1.452t-1.452.612zm-1.728 1.632h3.456V47.4h-3.456zM257.856 38.52v4.608q0 .672.312 1.068t.84.396q.408 0 .66-.072.252-.072.54-.24v3.024q-.696.384-1.728.384-1.896 0-2.988-1.092t-1.092-3.108V38.52h-1.104v-2.88h1.104v-2.328l3.456-1.224v3.552h2.352v2.88zM268.08 47.688q-1.776 0-3.228-.792-1.452-.792-2.28-2.196-.828-1.404-.828-3.18 0-1.776.828-3.18.828-1.404 2.28-2.196 1.452-.792 3.228-.792 1.776 0 3.228.792 1.452.792 2.28 2.196.828 1.404.828 3.18 0 1.776-.828 3.18-.828 1.404-2.28 2.196-1.452.792-3.228.792zm0-3.216q1.272 0 2.076-.78t.804-2.172q0-1.392-.804-2.172-.804-.78-2.076-.78t-2.076.78q-.804.78-.804 2.172 0 1.392.804 2.172.804.78 2.076.78zM288.672 47.688q-1.776 0-3.228-.792-1.452-.792-2.28-2.196-.828-1.404-.828-3.18 0-1.776.828-3.18.828-1.404 2.28-2.196 1.452-.792 3.228-.792 1.776 0 3.228.792 1.452.792 2.28 2.196.828 1.404.828 3.18 0 1.776-.828 3.18-.828 1.404-2.28 2.196-1.452.792-3.228.792zm0-3.216q1.272 0 2.076-.78t.804-2.172q0-1.392-.804-2.172-.804-.78-2.076-.78t-2.076.78q-.804.78-.804 2.172 0 1.392.804 2.172.804.78 2.076.78zM297.36 35.64h3.216v1.176h.24q.48-.672 1.344-1.068.864-.396 1.992-.396 1.92 0 2.964 1.128t1.044 3.144V47.4h-3.456v-6.792q0-.984-.432-1.512t-1.416-.528q-.96 0-1.5.684t-.54 1.86V47.4h-3.456zM316.032 47.688q-1.536 0-2.82-.804-1.284-.804-2.04-2.208-.756-1.404-.756-3.156 0-1.752.756-3.168.756-1.416 2.064-2.208 1.308-.792 2.892-.792 1.08 0 1.944.276.864.276 1.368.828V30.6h3.456v16.8h-3.264v-1.056h-.192q-.48.624-1.344.984-.864.36-2.064.36zm.72-3.216q1.2 0 2.04-.84.84-.84.84-2.112 0-1.272-.84-2.112-.84-.84-2.04-.84-1.2 0-2.04.84-.84.84-.84 2.112 0 1.272.84 2.112.84.84 2.04.84zM336.48 42.384h-8.064q.24 1.128 1.056 1.776.816.648 1.848.648.864 0 1.512-.36t.984-.936l2.736 1.44q-1.632 2.736-5.16 2.736-1.896 0-3.312-.792t-2.172-2.196q-.756-1.404-.756-3.18 0-1.752.792-3.168.792-1.416 2.148-2.208 1.356-.792 3.012-.792 1.872 0 3.168.78t1.932 2.112q.636 1.332.636 3.012 0 .456-.072.816zm-2.976-2.256q-.168-.912-.78-1.428-.612-.516-1.62-.516-.936 0-1.608.528t-.96 1.416zM344.232 35.64h3.6l2.784 7.32h.288l2.784-7.32h3.6l-4.68 11.76h-3.696zM364.2 47.688q-1.776 0-3.228-.792-1.452-.792-2.28-2.196-.828-1.404-.828-3.18 0-1.776.828-3.18.828-1.404 2.28-2.196 1.452-.792 3.228-.792 1.776 0 3.228.792 1.452.792 2.28 2.196.828 1.404.828 3.18 0 1.776-.828 3.18-.828 1.404-2.28 2.196-1.452.792-3.228.792zm0-3.216q1.272 0 2.076-.78t.804-2.172q0-1.392-.804-2.172-.804-.78-2.076-.78t-2.076.78q-.804.78-.804 2.172 0 1.392.804 2.172.804.78 2.076.78zM378.792 47.688q-1.8 0-3.252-.792-1.452-.792-2.268-2.208-.816-1.416-.816-3.168 0-1.752.828-3.168.828-1.416 2.292-2.208 1.464-.792 3.264-.792 1.776 0 3.108.672t2.1 1.992l-2.784 1.896q-.84-1.344-2.424-1.344-1.224 0-2.076.804-.852.804-.852 2.148t.828 2.148q.828.804 2.052.804 1.8 0 2.568-1.392l2.688 1.896q-.816 1.296-2.16 2.004-1.344.708-3.096.708zM396.816 42.384h-8.064q.24 1.128 1.056 1.776.816.648 1.848.648.864 0 1.512-.36t.984-.936l2.736 1.44q-1.632 2.736-5.16 2.736-1.896 0-3.312-.792t-2.172-2.196q-.756-1.404-.756-3.18 0-1.752.792-3.168.792-1.416 2.148-2.208 1.356-.792 3.012-.792 1.872 0 3.168.78t1.932 2.112q.636 1.332.636 3.012 0 .456-.072.816zm-2.976-2.256q-.168-.912-.78-1.428-.612-.516-1.62-.516-.936 0-1.608.528t-.96 1.416zm-3.552-10.32h2.376l2.976 3.72h-3l-1.176-1.464-1.176 1.464h-3zM411.432 47.688q-1.8 0-3.252-.792-1.452-.792-2.268-2.208-.816-1.416-.816-3.168 0-1.752.828-3.168.828-1.416 2.292-2.208 1.464-.792 3.264-.792 1.776 0 3.108.672t2.1 1.992l-2.784 1.896q-.84-1.344-2.424-1.344-1.224 0-2.076.804-.852.804-.852 2.148t.828 2.148q.828.804 2.052.804 1.8 0 2.568-1.392l2.688 1.896q-.816 1.296-2.16 2.004-1.344.708-3.096.708zM424.464 47.688q-1.776 0-3.228-.792-1.452-.792-2.28-2.196-.828-1.404-.828-3.18 0-1.776.828-3.18.828-1.404 2.28-2.196 1.452-.792 3.228-.792 1.776 0 3.228.792 1.452.792 2.28 2.196.828 1.404.828 3.18 0 1.776-.828 3.18-.828 1.404-2.28 2.196-1.452.792-3.228.792zm0-3.216q1.272 0 2.076-.78t.804-2.172q0-1.392-.804-2.172-.804-.78-2.076-.78t-2.076.78q-.804.78-.804 2.172 0 1.392.804 2.172.804.78 2.076.78zM446.376 35.352q2.016 0 2.988 1.116t.972 3.156V47.4h-3.456v-6.912q0-1.92-1.632-1.92-.888 0-1.332.612-.444.612-.444 1.788V47.4h-3.456v-6.912q0-1.92-1.632-1.92-.888 0-1.332.612-.444.612-.444 1.788V47.4h-3.456V35.64h3.216v1.2h.24q.912-1.488 2.904-1.488 2.376 0 3.36 1.608.528-.792 1.476-1.2.948-.408 2.028-.408zM453.024 35.64h3.264v1.056h.192q.48-.624 1.344-.984.864-.36 2.064-.36 1.536 0 2.82.804 1.284.804 2.04 2.208.756 1.404.756 3.156 0 1.752-.756 3.168-.756 1.416-2.064 2.208-1.308.792-2.892.792-1.08 0-1.944-.276-.864-.276-1.368-.828v5.856h-3.456zm6.144 8.832q1.2 0 2.04-.84.84-.84.84-2.112 0-1.272-.84-2.112-.84-.84-2.04-.84-1.2 0-2.04.84-.84.84-.84 2.112 0 1.272.84 2.112.84.84 2.04.84zM478.752 42.384h-8.064q.24 1.128 1.056 1.776.816.648 1.848.648.864 0 1.512-.36t.984-.936l2.736 1.44q-1.632 2.736-5.16 2.736-1.896 0-3.312-.792T468.18 44.7q-.756-1.404-.756-3.18 0-1.752.792-3.168.792-1.416 2.148-2.208 1.356-.792 3.012-.792 1.872 0 3.168.78t1.932 2.112q.636 1.332.636 3.012 0 .456-.072.816zm-2.976-2.256q-.168-.912-.78-1.428-.612-.516-1.62-.516-.936 0-1.608.528t-.96 1.416zM484.968 38.52v4.608q0 .672.312 1.068t.84.396q.408 0 .66-.072.252-.072.54-.24v3.024q-.696.384-1.728.384-1.896 0-2.988-1.092t-1.092-3.108V38.52h-1.104v-2.88h1.104v-2.328l3.456-1.224v3.552h2.352v2.88zM500.184 42.384h-8.064q.24 1.128 1.056 1.776.816.648 1.848.648.864 0 1.512-.36t.984-.936l2.736 1.44q-1.632 2.736-5.16 2.736-1.896 0-3.312-.792t-2.172-2.196q-.756-1.404-.756-3.18 0-1.752.792-3.168.792-1.416 2.148-2.208 1.356-.792 3.012-.792 1.872 0 3.168.78t1.932 2.112q.636 1.332.636 3.012 0 .456-.072.816zm-2.976-2.256q-.168-.912-.78-1.428-.612-.516-1.62-.516-.936 0-1.608.528t-.96 1.416zM508.896 35.64h3.264v1.056h.192q.48-.624 1.344-.984.864-.36 2.064-.36 1.536 0 2.82.804 1.284.804 2.04 2.208.756 1.404.756 3.156 0 1.752-.756 3.168-.756 1.416-2.064 2.208-1.308.792-2.892.792-1.08 0-1.944-.276-.864-.276-1.368-.828v5.856h-3.456zm6.144 8.832q1.2 0 2.04-.84.84-.84.84-2.112 0-1.272-.84-2.112-.84-.84-2.04-.84-1.2 0-2.04.84-.84.84-.84 2.112 0 1.272.84 2.112.84.84 2.04.84zM528.912 47.688q-1.536 0-2.82-.804-1.284-.804-2.04-2.208-.756-1.404-.756-3.156 0-1.752.756-3.168.756-1.416 2.064-2.208 1.308-.792 2.892-.792 1.08 0 1.932.312.852.312 1.38.888v-.912h3.456V47.4h-3.264v-1.152h-.192q-.456.672-1.32 1.056-.864.384-2.088.384zm.72-3.216q1.2 0 2.04-.84.84-.84.84-2.112 0-1.272-.84-2.112-.84-.84-2.04-.84-1.2 0-2.04.84-.84.84-.84 2.112 0 1.272.84 2.112.84.84 2.04.84zM538.56 35.64h3.216v1.296h.24q.384-.792 1.092-1.188.708-.396 1.62-.396.72 0 1.44.264l-.72 3.192q-.552-.24-1.176-.24-1.008 0-1.632.756-.624.756-.624 2.148V47.4h-3.456zM552.6 47.688q-1.536 0-2.82-.804-1.284-.804-2.04-2.208-.756-1.404-.756-3.156 0-1.752.756-3.168.756-1.416 2.064-2.208 1.308-.792 2.892-.792 1.08 0 1.932.312.852.312 1.38.888v-.912h3.456V47.4H556.2v-1.152h-.192q-.456.672-1.32 1.056-.864.384-2.088.384zm.72-3.216q1.2 0 2.04-.84.84-.84.84-2.112 0-1.272-.84-2.112-.84-.84-2.04-.84-1.2 0-2.04.84-.84.84-.84 2.112 0 1.272.84 2.112.84.84 2.04.84z" stroke-width=".024"/></g><g fill="#FFF" stroke="#FFF"><path d="M5.64 74.088q-1.824 0-3.024-.744t-1.8-1.92l2.592-1.776q.312.648.96 1.08.648.432 1.416.432 1.272 0 1.272-.912 0-.456-.516-.732-.516-.276-1.98-.708-3.24-.96-3.24-3.552 0-1.584 1.236-2.544t3.06-.96q1.56 0 2.628.588t1.644 1.668L7.56 65.64q-.84-1.2-2.016-1.2-.504 0-.816.192-.312.192-.312.576 0 .384.396.576.396.192 1.74.624 1.752.576 2.688 1.416.936.84.936 2.328 0 1.152-.564 2.04-.564.888-1.596 1.392-1.032.504-2.376.504zM23.04 68.784h-8.064q.24 1.128 1.056 1.776.816.648 1.848.648.864 0 1.512-.36t.984-.936l2.736 1.44q-1.632 2.736-5.16 2.736-1.896 0-3.312-.792T12.468 71.1q-.756-1.404-.756-3.18 0-1.752.792-3.168.792-1.416 2.148-2.208 1.356-.792 3.012-.792 1.872 0 3.168.78t1.932 2.112q.636 1.332.636 3.012 0 .456-.072.816zm-2.976-2.256q-.168-.912-.78-1.428-.612-.516-1.62-.516-.936 0-1.608.528t-.96 1.416zM25.752 62.04h3.216v1.296h.24q.384-.792 1.092-1.188.708-.396 1.62-.396.72 0 1.44.264l-.72 3.192q-.552-.24-1.176-.24-1.008 0-1.632.756-.624.756-.624 2.148V73.8h-3.456zM47.184 74.088q-1.776 0-3.228-.792-1.452-.792-2.28-2.196-.828-1.404-.828-3.18 0-1.776.828-3.18.828-1.404 2.28-2.196 1.452-.792 3.228-.792 1.776 0 3.228.792 1.452.792 2.28 2.196.828 1.404.828 3.18 0 1.776-.828 3.18-.828 1.404-2.28 2.196-1.452.792-3.228.792zm0-3.216q1.272 0 2.076-.78t.804-2.172q0-1.392-.804-2.172-.804-.78-2.076-.78t-2.076.78q-.804.78-.804 2.172 0 1.392.804 2.172.804.78 2.076.78zM75.096 61.752q2.016 0 2.988 1.116t.972 3.156V73.8H75.6v-6.912q0-1.92-1.632-1.92-.888 0-1.332.612-.444.612-.444 1.788V73.8h-3.456v-6.912q0-1.92-1.632-1.92-.888 0-1.332.612-.444.612-.444 1.788V73.8h-3.456V62.04h3.216v1.2h.24q.912-1.488 2.904-1.488 2.376 0 3.36 1.608.528-.792 1.476-1.2.948-.408 2.028-.408zM92.64 68.784h-8.064q.24 1.128 1.056 1.776.816.648 1.848.648.864 0 1.512-.36t.984-.936l2.736 1.44q-1.632 2.736-5.16 2.736-1.896 0-3.312-.792T82.068 71.1q-.756-1.404-.756-3.18 0-1.752.792-3.168.792-1.416 2.148-2.208 1.356-.792 3.012-.792 1.872 0 3.168.78t1.932 2.112Q93 65.976 93 67.656q0 .456-.072.816zm-2.976-2.256q-.168-.912-.78-1.428-.612-.516-1.62-.516-.936 0-1.608.528t-.96 1.416zM95.256 57h3.456v16.8h-3.456zM101.304 57h3.216v6.312h.24q.528-.744 1.428-1.152.9-.408 1.956-.408 2.112 0 3.156 1.104t1.044 3.384v7.56h-3.456v-6.672q0-1.056-.492-1.608t-1.476-.552q-.984 0-1.572.696-.588.696-.588 1.848V73.8h-3.456zM120.936 74.088q-1.776 0-3.228-.792-1.452-.792-2.28-2.196-.828-1.404-.828-3.18 0-1.776.828-3.18.828-1.404 2.28-2.196 1.452-.792 3.228-.792 1.776 0 3.228.792 1.452.792 2.28 2.196.828 1.404.828 3.18 0 1.776-.828 3.18-.828 1.404-2.28 2.196-1.452.792-3.228.792zm0-3.216q1.272 0 2.076-.78t.804-2.172q0-1.392-.804-2.172-.804-.78-2.076-.78t-2.076.78q-.804.78-.804 2.172 0 1.392.804 2.172.804.78 2.076.78zM129.624 62.04h3.216v1.296h.24q.384-.792 1.092-1.188.708-.396 1.62-.396.72 0 1.44.264l-.72 3.192q-.552-.24-1.176-.24-1.008 0-1.632.756-.624.756-.624 2.148V73.8h-3.456zM156.048 68.784h-8.064q.24 1.128 1.056 1.776.816.648 1.848.648.864 0 1.512-.36t.984-.936l2.736 1.44q-1.632 2.736-5.16 2.736-1.896 0-3.312-.792t-2.172-2.196q-.756-1.404-.756-3.18 0-1.752.792-3.168.792-1.416 2.148-2.208 1.356-.792 3.012-.792 1.872 0 3.168.78t1.932 2.112q.636 1.332.636 3.012 0 .456-.072.816zm-2.976-2.256q-.168-.912-.78-1.428-.612-.516-1.62-.516-.936 0-1.608.528t-.96 1.416zM171.984 61.752q2.016 0 2.988 1.116t.972 3.156V73.8h-3.456v-6.912q0-1.92-1.632-1.92-.888 0-1.332.612-.444.612-.444 1.788V73.8h-3.456v-6.912q0-1.92-1.632-1.92-.888 0-1.332.612-.444.612-.444 1.788V73.8h-3.456V62.04h3.216v1.2h.24q.912-1.488 2.904-1.488 2.376 0 3.36 1.608.528-.792 1.476-1.2.948-.408 2.028-.408zM184.632 62.04h3.264v1.056h.192q.48-.624 1.344-.984.864-.36 2.064-.36 1.536 0 2.82.804 1.284.804 2.04 2.208.756 1.404.756 3.156 0 1.752-.756 3.168-.756 1.416-2.064 2.208-1.308.792-2.892.792-1.08 0-1.944-.276-.864-.276-1.368-.828v5.856h-3.456zm6.144 8.832q1.2 0 2.04-.84.84-.84.84-2.112 0-1.272-.84-2.112-.84-.84-2.04-.84-1.2 0-2.04.84-.84.84-.84 2.112 0 1.272.84 2.112.84.84 2.04.84zM204.648 74.088q-1.536 0-2.82-.804-1.284-.804-2.04-2.208-.756-1.404-.756-3.156 0-1.752.756-3.168.756-1.416 2.064-2.208 1.308-.792 2.892-.792 1.08 0 1.932.312.852.312 1.38.888v-.912h3.456V73.8h-3.264v-1.152h-.192q-.456.672-1.32 1.056-.864.384-2.088.384zm.72-3.216q1.2 0 2.04-.84.84-.84.84-2.112 0-1.272-.84-2.112-.84-.84-2.04-.84-1.2 0-2.04.84-.84.84-.84 2.112 0 1.272.84 2.112.84.84 2.04.84zM214.296 62.04h3.216v1.296h.24q.384-.792 1.092-1.188.708-.396 1.62-.396.72 0 1.44.264l-.72 3.192q-.552-.24-1.176-.24-1.008 0-1.632.756-.624.756-.624 2.148V73.8h-3.456zM227.808 64.92v4.608q0 .672.312 1.068t.84.396q.408 0 .66-.072.252-.072.54-.24v3.024q-.696.384-1.728.384-1.896 0-2.988-1.092t-1.092-3.108V64.92h-1.104v-2.88h1.104v-2.328l3.456-1.224v3.552h2.352v2.88zM234.384 60.408q-.84 0-1.452-.612t-.612-1.452q0-.84.612-1.452t1.452-.612q.84 0 1.452.612t.612 1.452q0 .84-.612 1.452t-1.452.612zm-1.728 1.632h3.456V73.8h-3.456zM244.224 74.088q-1.536 0-2.82-.804-1.284-.804-2.04-2.208-.756-1.404-.756-3.156 0-1.752.756-3.168.756-1.416 2.064-2.208 1.308-.792 2.892-.792 1.08 0 1.944.276.864.276 1.368.828V57h3.456v16.8h-3.264v-1.056h-.192q-.48.624-1.344.984-.864.36-2.064.36zm.72-3.216q1.2 0 2.04-.84.84-.84.84-2.112 0-1.272-.84-2.112-.84-.84-2.04-.84-1.2 0-2.04.84-.84.84-.84 2.112 0 1.272.84 2.112.84.84 2.04.84zM258.96 74.088q-1.536 0-2.82-.804-1.284-.804-2.04-2.208-.756-1.404-.756-3.156 0-1.752.756-3.168.756-1.416 2.064-2.208 1.308-.792 2.892-.792 1.08 0 1.932.312.852.312 1.38.888v-.912h3.456V73.8h-3.264v-1.152h-.192q-.456.672-1.32 1.056-.864.384-2.088.384zm.72-3.216q1.2 0 2.04-.84.84-.84.84-2.112 0-1.272-.84-2.112-.84-.84-2.04-.84-1.2 0-2.04.84-.84.84-.84 2.112 0 1.272.84 2.112.84.84 2.04.84zM272.856 74.088q-1.824 0-3.024-.744t-1.8-1.92l2.592-1.776q.312.648.96 1.08.648.432 1.416.432 1.272 0 1.272-.912 0-.456-.516-.732-.516-.276-1.98-.708-3.24-.96-3.24-3.552 0-1.584 1.236-2.544t3.06-.96q1.56 0 2.628.588t1.644 1.668l-2.328 1.632q-.84-1.2-2.016-1.2-.504 0-.816.192-.312.192-.312.576 0 .384.396.576.396.192 1.74.624 1.752.576 2.688 1.416.936.84.936 2.328 0 1.152-.564 2.04-.564.888-1.596 1.392-1.032.504-2.376.504zM291.696 74.088q-1.776 0-3.228-.792-1.452-.792-2.28-2.196-.828-1.404-.828-3.18 0-1.776.828-3.18.828-1.404 2.28-2.196 1.452-.792 3.228-.792 1.776 0 3.228.792 1.452.792 2.28 2.196.828 1.404.828 3.18 0 1.776-.828 3.18-.828 1.404-2.28 2.196-1.452.792-3.228.792zm0-3.216q1.272 0 2.076-.78t.804-2.172q0-1.392-.804-2.172-.804-.78-2.076-.78t-2.076.78q-.804.78-.804 2.172 0 1.392.804 2.172.804.78 2.076.78zM300.384 62.04h3.216v1.176h.24q.48-.672 1.344-1.068.864-.396 1.992-.396 1.92 0 2.964 1.128t1.044 3.144V73.8h-3.456v-6.792q0-.984-.432-1.512t-1.416-.528q-.96 0-1.5.684t-.54 1.86V73.8h-3.456zM314.16 64.848h8.04v2.976h-8.04zM325.176 57h3.456v16.8h-3.456zM333.192 60.408q-.84 0-1.452-.612t-.612-1.452q0-.84.612-1.452t1.452-.612q.84 0 1.452.612t.612 1.452q0 .84-.612 1.452t-1.452.612zm-1.728 1.632h3.456V73.8h-3.456zM337.848 62.04h3.216v1.176h.24q.48-.672 1.344-1.068.864-.396 1.992-.396 1.92 0 2.964 1.128t1.044 3.144V73.8h-3.456v-6.792q0-.984-.432-1.512t-1.416-.528q-.96 0-1.5.684t-.54 1.86V73.8h-3.456zM362.232 68.784h-8.064q.24 1.128 1.056 1.776.816.648 1.848.648.864 0 1.512-.36t.984-.936l2.736 1.44q-1.632 2.736-5.16 2.736-1.896 0-3.312-.792T351.66 71.1q-.756-1.404-.756-3.18 0-1.752.792-3.168.792-1.416 2.148-2.208 1.356-.792 3.012-.792 1.872 0 3.168.78t1.932 2.112q.636 1.332.636 3.012 0 .456-.072.816zm-2.976-2.256q-.168-.912-.78-1.428-.612-.516-1.62-.516-.936 0-1.608.528t-.96 1.416zM376.128 74.088q-1.536 0-2.82-.804-1.284-.804-2.04-2.208-.756-1.404-.756-3.156 0-1.752.756-3.168.756-1.416 2.064-2.208 1.308-.792 2.892-.792 1.08 0 1.944.276.864.276 1.368.828V57h3.456v16.8h-3.264v-1.056h-.192q-.48.624-1.344.984-.864.36-2.064.36zm.72-3.216q1.2 0 2.04-.84.84-.84.84-2.112 0-1.272-.84-2.112-.84-.84-2.04-.84-1.2 0-2.04.84-.84.84-.84 2.112 0 1.272.84 2.112.84.84 2.04.84zM396.576 68.784h-8.064q.24 1.128 1.056 1.776.816.648 1.848.648.864 0 1.512-.36t.984-.936l2.736 1.44q-1.632 2.736-5.16 2.736-1.896 0-3.312-.792t-2.172-2.196q-.756-1.404-.756-3.18 0-1.752.792-3.168.792-1.416 2.148-2.208 1.356-.792 3.012-.792 1.872 0 3.168.78t1.932 2.112q.636 1.332.636 3.012 0 .456-.072.816zm-2.976-2.256q-.168-.912-.78-1.428-.612-.516-1.62-.516-.936 0-1.608.528t-.96 1.416zM405.288 62.04h3.216v1.296h.24q.384-.792 1.092-1.188.708-.396 1.62-.396.72 0 1.44.264l-.72 3.192q-.552-.24-1.176-.24-1.008 0-1.632.756-.624.756-.624 2.148V73.8h-3.456zM416.688 60.408q-.84 0-1.452-.612t-.612-1.452q0-.84.612-1.452t1.452-.612q.84 0 1.452.612t.612 1.452q0 .84-.612 1.452t-1.452.612zm-1.728 1.632h3.456V73.8h-3.456zM425.328 64.92v4.608q0 .672.312 1.068t.84.396q.408 0 .66-.072.252-.072.54-.24v3.024q-.696.384-1.728.384-1.896 0-2.988-1.092t-1.092-3.108V64.92h-1.104v-2.88h1.104v-2.328l3.456-1.224v3.552h2.352v2.88zM443.256 61.752q2.016 0 2.988 1.116t.972 3.156V73.8h-3.456v-6.912q0-1.92-1.632-1.92-.888 0-1.332.612-.444.612-.444 1.788V73.8h-3.456v-6.912q0-1.92-1.632-1.92-.888 0-1.332.612-.444.612-.444 1.788V73.8h-3.456V62.04h3.216v1.2h.24q.912-1.488 2.904-1.488 2.376 0 3.36 1.608.528-.792 1.476-1.2.948-.408 2.028-.408zM455.808 74.088q-1.776 0-3.228-.792-1.452-.792-2.28-2.196-.828-1.404-.828-3.18 0-1.776.828-3.18.828-1.404 2.28-2.196 1.452-.792 3.228-.792 1.776 0 3.228.792 1.452.792 2.28 2.196.828 1.404.828 3.18 0 1.776-.828 3.18-.828 1.404-2.28 2.196-1.452.792-3.228.792zm0-3.216q1.272 0 2.076-.78t.804-2.172q0-1.392-.804-2.172-.804-.78-2.076-.78t-2.076.78q-.804.78-.804 2.172 0 1.392.804 2.172.804.78 2.076.78zM470.496 62.04h3.216v1.296h.24q.384-.792 1.092-1.188.708-.396 1.62-.396.72 0 1.44.264l-.72 3.192q-.552-.24-1.176-.24-1.008 0-1.632.756-.624.756-.624 2.148V73.8h-3.456zM484.536 74.088q-1.536 0-2.82-.804-1.284-.804-2.04-2.208-.756-1.404-.756-3.156 0-1.752.756-3.168.756-1.416 2.064-2.208 1.308-.792 2.892-.792 1.08 0 1.932.312.852.312 1.38.888v-.912h3.456V73.8h-3.264v-1.152h-.192q-.456.672-1.32 1.056-.864.384-2.088.384zm.72-3.216q1.2 0 2.04-.84.84-.84.84-2.112 0-1.272-.84-2.112-.84-.84-2.04-.84-1.2 0-2.04.84-.84.84-.84 2.112 0 1.272.84 2.112.84.84 2.04.84zM494.184 62.04h3.264v1.056h.192q.48-.624 1.344-.984.864-.36 2.064-.36 1.536 0 2.82.804 1.284.804 2.04 2.208.756 1.404.756 3.156 0 1.752-.756 3.168-.756 1.416-2.064 2.208-1.308.792-2.892.792-1.08 0-1.944-.276-.864-.276-1.368-.828v5.856h-3.456zm6.144 8.832q1.2 0 2.04-.84.84-.84.84-2.112 0-1.272-.84-2.112-.84-.84-2.04-.84-1.2 0-2.04.84-.84.84-.84 2.112 0 1.272.84 2.112.84.84 2.04.84zM510.888 60.408q-.84 0-1.452-.612t-.612-1.452q0-.84.612-1.452t1.452-.612q.84 0 1.452.612t.612 1.452q0 .84-.612 1.452t-1.452.612zm-1.728 1.632h3.456V73.8h-3.456zM520.728 74.088q-1.536 0-2.82-.804-1.284-.804-2.04-2.208-.756-1.404-.756-3.156 0-1.752.756-3.168.756-1.416 2.064-2.208 1.308-.792 2.892-.792 1.08 0 1.944.276.864.276 1.368.828V57h3.456v16.8h-3.264v-1.056h-.192q-.48.624-1.344.984-.864.36-2.064.36zm.72-3.216q1.2 0 2.04-.84.84-.84.84-2.112 0-1.272-.84-2.112-.84-.84-2.04-.84-1.2 0-2.04.84-.84.84-.84 2.112 0 1.272.84 2.112.84.84 2.04.84zM536.184 74.088q-1.776 0-3.228-.792-1.452-.792-2.28-2.196-.828-1.404-.828-3.18 0-1.776.828-3.18.828-1.404 2.28-2.196 1.452-.792 3.228-.792 1.776 0 3.228.792 1.452.792 2.28 2.196.828 1.404.828 3.18 0 1.776-.828 3.18-.828 1.404-2.28 2.196-1.452.792-3.228.792zm0-3.216q1.272 0 2.076-.78t.804-2.172q0-1.392-.804-2.172-.804-.78-2.076-.78t-2.076.78q-.804.78-.804 2.172 0 1.392.804 2.172.804.78 2.076.78zM545.928 74.04q-.816 0-1.392-.576t-.576-1.392q0-.816.576-1.392t1.392-.576q.816 0 1.392.576t.576 1.392q0 .816-.576 1.392t-1.392.576z" stroke-width=".024"/></g></svg>