<svg width="132.644" height="18" viewBox="0 0 132.644 18" xmlns="http://www.w3.org/2000/svg"><g fill="#FFF" stroke="#FFF"><path d="M1.284 2.787L.198.96h.976l.434.768.164.45h.055l.165-.45.433-.768h.977L2.315 2.787 3.49 4.801H2.47l-.456-.85-.181-.445h-.066l-.181.445-.456.85H.11zM3.95.96h1.257q.598 0 1.04.236.441.236.677.67.236.433.236 1.015 0 .581-.236 1.015-.236.433-.677.67-.442.235-1.04.235H3.951zm1.257 3.05q.543 0 .831-.295.288-.297.288-.834 0-.538-.288-.834-.288-.297-.831-.297h-.422v2.26zM10.222 3.654H8.378q.055.258.242.406.186.148.422.148.198 0 .346-.082.148-.082.225-.214l.625.33q-.373.625-1.18.625-.433 0-.756-.181-.324-.181-.497-.502t-.173-.727q0-.4.181-.725.181-.323.491-.504t.689-.181q.428 0 .724.178.297.178.442.483.145.304.145.688 0 .105-.016.187zm-.68-.516q-.039-.208-.179-.326-.14-.118-.37-.118-.214 0-.368.12-.153.121-.22.324zM12.998 1.74q-.192 0-.332-.14t-.14-.333q0-.192.14-.331.14-.14.332-.14t.332.14q.14.14.14.331 0 .193-.14.332-.14.14-.332.14zm.395 3.061h-.79v-2.03h-.927V4.8h-.79v-2.03h-.285v-.659h.285v-.257q0-.456.277-.708.277-.253.7-.253.153 0 .318.066v.703q-.12-.06-.242-.06-.115 0-.189.09t-.074.227v.192h1.717zM15.248 4.867q-.351 0-.645-.184-.293-.184-.466-.505-.173-.32-.173-.721 0-.4.173-.725.173-.323.472-.504t.661-.181q.247 0 .442.07.194.072.315.204v-.209h.79v2.689h-.746v-.263h-.044q-.104.153-.302.241-.197.088-.477.088zm.165-.735q.274 0 .466-.192t.192-.483q0-.291-.192-.483t-.466-.192q-.275 0-.467.192t-.192.483q0 .29.192.483.192.192.467.192zM17.454 2.112h.735v.27h.055q.11-.154.307-.245.198-.09.456-.09.438 0 .677.257.239.258.239.72V4.8h-.79V3.248q0-.225-.099-.345-.099-.121-.324-.121-.22 0-.343.156-.123.157-.123.425v1.438h-.79zM21.448 2.77v1.054q0 .154.072.245.07.09.192.09.093 0 .15-.016.058-.017.124-.055v.691q-.16.088-.395.088-.434 0-.683-.25-.25-.25-.25-.71V2.77h-.252v-.659h.252V1.58l.79-.28v.812h.538v.659zM26.386 3.654h-1.843q.055.258.241.406.187.148.423.148.197 0 .345-.082.148-.082.225-.214l.626.33q-.373.625-1.18.625-.433 0-.757-.181t-.497-.502q-.172-.321-.172-.727 0-.4.18-.725.182-.323.492-.504t.688-.181q.428 0 .725.178.296.178.441.483.146.304.146.688 0 .105-.017.187zm-.68-.516q-.038-.208-.178-.326-.14-.118-.37-.118-.215 0-.368.12-.154.121-.22.324zM25.053.85h.916l-.472.78h-.724zM29.327 4.867q-.477 0-.724-.255t-.247-.722V2.112h.79v1.553q0 .225.105.346.104.12.318.12.22 0 .343-.156.123-.156.123-.425V2.112h.79v2.689h-.735v-.258h-.055q-.099.165-.285.244-.187.08-.423.08zM34.485 2.047q.46 0 .683.255.222.255.222.721v1.778h-.79v-1.58q0-.44-.373-.44-.203 0-.304.14-.102.14-.102.41V4.8h-.79v-1.58q0-.44-.373-.44-.203 0-.305.14-.101.14-.101.41V4.8h-.79V2.112h.735v.275h.055q.208-.34.664-.34.543 0 .768.367.12-.18.337-.274.217-.093.464-.093zM37.854 1.74q-.192 0-.332-.14t-.14-.333q0-.192.14-.331.14-.14.332-.14t.332.14q.14.14.14.331 0 .193-.14.332-.14.14-.332.14zm-.51 4.28q-.132 0-.277-.04-.146-.038-.228-.093l.22-.68q.11.066.202.066.11 0 .154-.063t.044-.206V2.112h.79V5.06q0 .472-.25.716t-.655.244zM40.268 4.867q-.406 0-.738-.181-.332-.181-.521-.502-.19-.321-.19-.727 0-.406.19-.727.19-.321.521-.502.332-.181.738-.181.406 0 .738.18.332.182.521.503.19.32.19.727 0 .406-.19.727-.189.32-.52.502-.333.18-.739.18zm0-.735q.29 0 .475-.179.184-.178.184-.496 0-.319-.184-.497t-.475-.178q-.29 0-.474.178t-.184.497q0 .318.184.496.183.179.474.179zM43.522 6.02q-.472 0-.788-.18-.315-.178-.474-.474l.63-.4q.253.362.632.362.269 0 .433-.168.165-.167.165-.458v-.225q-.132.17-.31.247-.178.077-.436.077-.351 0-.64-.176-.288-.175-.455-.488-.167-.313-.167-.713 0-.4.162-.713.161-.313.45-.489.288-.175.639-.175.548 0 .757.329h.044v-.264h.746v2.612q0 .379-.165.672-.164.294-.477.458-.313.165-.746.165zm.01-1.954q.275 0 .453-.176.179-.175.179-.466 0-.291-.179-.467-.178-.175-.452-.175-.275 0-.453.175-.178.176-.178.467 0 .29.178.466.178.176.453.176zM46.896 4.867q-.406 0-.738-.181-.332-.181-.521-.502-.19-.321-.19-.727 0-.406.19-.727.19-.321.521-.502.332-.181.738-.181.406 0 .738.18.332.182.522.503.189.32.189.727 0 .406-.19.727-.189.32-.52.502-.333.18-.739.18zm0-.735q.291 0 .475-.179.184-.178.184-.496 0-.319-.184-.497t-.475-.178q-.29 0-.474.178t-.184.497q0 .318.184.496.183.179.474.179zM51.44 4.867q-.352 0-.645-.184-.294-.184-.467-.505-.173-.32-.173-.721 0-.4.173-.725.173-.323.472-.504.3-.181.661-.181.247 0 .445.063.197.063.313.189V.96h.79v3.841h-.747V4.56h-.043q-.11.142-.308.225-.197.082-.472.082zm.164-.735q.274 0 .466-.192t.192-.483q0-.291-.192-.483t-.466-.192q-.274 0-.466.192t-.192.483q0 .29.192.483.192.192.466.192zM56.114 3.654h-1.843q.055.258.241.406.187.148.423.148.197 0 .345-.082.148-.082.225-.214l.626.33q-.373.625-1.18.625-.433 0-.757-.181t-.497-.502q-.173-.321-.173-.727 0-.4.181-.725.182-.323.492-.504t.688-.181q.428 0 .724.178.297.178.442.483.146.304.146.688 0 .105-.017.187zm-.68-.516q-.039-.208-.178-.326-.14-.118-.37-.118-.215 0-.368.12-.154.121-.22.324zM59.291 4.867q-.351 0-.645-.184-.293-.184-.466-.505-.173-.32-.173-.721 0-.4.173-.725.173-.323.472-.504t.661-.181q.247 0 .442.07.195.072.315.204v-.209h.79v2.689h-.746v-.263h-.044q-.104.153-.302.241-.197.088-.477.088zm.165-.735q.274 0 .466-.192t.192-.483q0-.291-.192-.483t-.466-.192q-.275 0-.467.192t-.192.483q0 .29.192.483.192.192.467.192zM62.408 2.77v1.054q0 .154.071.245.071.09.192.09.093 0 .15-.016.059-.017.124-.055v.691q-.159.088-.395.088-.433 0-.683-.25-.25-.25-.25-.71V2.77h-.252v-.659h.253V1.58l.79-.28v.812h.537v.659zM63.911 1.74q-.192 0-.332-.14t-.14-.333q0-.192.14-.331.14-.14.332-.14t.332.14q.14.14.14.331 0 .193-.14.332-.14.14-.332.14zm-.395.372h.79v2.689h-.79zM64.976 2.112h.735v.297h.055q.087-.181.25-.272.161-.09.37-.09.164 0 .329.06l-.165.73q-.126-.055-.269-.055-.23 0-.373.173-.142.173-.142.49v1.356h-.79zM68.185 4.867q-.35 0-.644-.184-.294-.184-.467-.505-.173-.32-.173-.721 0-.4.173-.725.173-.323.472-.504.3-.181.661-.181.247 0 .442.07.195.072.315.204v-.209h.79v2.689h-.746v-.263h-.044q-.104.153-.301.241-.198.088-.478.088zm.165-.735q.274 0 .466-.192t.192-.483q0-.291-.192-.483t-.466-.192q-.274 0-.466.192t-.192.483q0 .29.192.483.192.192.466.192zM71.576 4.867q-.35 0-.644-.184-.294-.184-.467-.505-.173-.32-.173-.721 0-.4.173-.725.173-.323.472-.504t.661-.181q.247 0 .445.063.197.063.312.189V.96h.79v3.841H72.4V4.56h-.044q-.11.142-.307.225-.197.082-.472.082zm.165-.735q.274 0 .466-.192t.192-.483q0-.291-.192-.483t-.466-.192q-.275 0-.467.192t-.192.483q0 .29.192.483.192.192.467.192zM75.11 4.867q-.406 0-.738-.181-.332-.181-.521-.502-.19-.321-.19-.727 0-.406.19-.727.189-.321.52-.502.333-.181.739-.181.406 0 .738.18.332.182.521.503.19.32.19.727 0 .406-.19.727-.19.32-.521.502-.332.18-.738.18zm0-.735q.29 0 .474-.179.184-.178.184-.496 0-.319-.184-.497-.183-.178-.474-.178t-.475.178q-.184.178-.184.497 0 .318.184.496.184.179.475.179zM77.096 2.112h.735v.297h.055q.088-.181.25-.272.162-.09.37-.09.165 0 .33.06l-.165.73q-.126-.055-.27-.055-.23 0-.372.173-.143.173-.143.49v1.356h-.79zM81.831 4.867q-.351 0-.645-.184-.293-.184-.466-.505-.173-.32-.173-.721 0-.4.173-.725.173-.323.472-.504t.661-.181q.247 0 .445.063.197.063.312.189V.96h.79v3.841h-.746V4.56h-.044q-.11.142-.307.225-.197.082-.472.082zm.165-.735q.274 0 .466-.192t.192-.483q0-.291-.192-.483t-.466-.192q-.275 0-.467.192t-.192.483q0 .29.192.483.192.192.467.192zM86.506 3.654h-1.844q.055.258.242.406.186.148.422.148.198 0 .346-.082.148-.082.225-.214l.625.33q-.373.625-1.18.625-.433 0-.756-.181-.324-.181-.497-.502t-.173-.727q0-.4.181-.725.181-.323.491-.504t.689-.181q.428 0 .724.178t.442.483q.145.304.145.688 0 .105-.016.187zm-.68-.516q-.039-.208-.179-.326-.14-.118-.37-.118-.214 0-.368.12-.153.121-.22.324zM89.683 4.867q-.351 0-.645-.184-.293-.184-.466-.505-.173-.32-.173-.721 0-.4.173-.725.173-.323.472-.504t.66-.181q.248 0 .443.07.194.072.315.204v-.209h.79v2.689h-.746v-.263h-.044q-.104.153-.302.241-.197.088-.477.088zm.164-.735q.275 0 .467-.192t.192-.483q0-.291-.192-.483t-.467-.192q-.274 0-.466.192t-.192.483q0 .29.192.483.192.192.466.192zM91.889 2.112h.735v.297h.055q.088-.181.25-.272.161-.09.37-.09.164 0 .329.06l-.165.73q-.126-.055-.269-.055-.23 0-.373.173-.142.173-.142.49v1.356h-.79zM96.404 3.654h-1.843q.055.258.241.406.187.148.423.148.197 0 .345-.082.148-.082.225-.214l.626.33q-.373.625-1.18.625-.433 0-.757-.181t-.497-.502q-.172-.321-.172-.727 0-.4.18-.725.182-.323.492-.504t.688-.181q.428 0 .725.178.296.178.441.483.146.304.146.688 0 .105-.017.187zm-.68-.516q-.038-.208-.178-.326-.14-.118-.37-.118-.215 0-.368.12-.154.121-.22.324zM97.024 2.112h.736v.27h.054q.11-.154.308-.245.197-.09.455-.09.44 0 .678.257.238.258.238.72V4.8h-.79V3.248q0-.225-.098-.345-.1-.121-.324-.121-.22 0-.343.156-.124.157-.124.425v1.438h-.79zM101.293 4.867q-.351 0-.645-.184-.293-.184-.466-.505-.173-.32-.173-.721 0-.4.173-.725.173-.323.472-.504t.661-.181q.247 0 .442.07.195.072.315.204v-.209h.79v2.689h-.746v-.263h-.044q-.104.153-.302.241-.197.088-.477.088zm.165-.735q.274 0 .466-.192t.192-.483q0-.291-.192-.483t-.466-.192q-.275 0-.467.192t-.192.483q0 .29.192.483.192.192.467.192zM107.362 3.654h-1.844q.055.258.241.406.187.148.423.148.197 0 .346-.082.148-.082.225-.214l.625.33q-.373.625-1.18.625-.433 0-.757-.181t-.496-.502q-.173-.321-.173-.727 0-.4.18-.725.182-.323.492-.504t.689-.181q.428 0 .724.178t.441.483q.146.304.146.688 0 .105-.017.187zm-.68-.516q-.04-.208-.18-.326-.139-.118-.37-.118-.213 0-.367.12-.154.121-.22.324zM111.005 2.047q.46 0 .683.255.222.255.222.721v1.778h-.79v-1.58q0-.44-.373-.44-.203 0-.305.14-.101.14-.101.41V4.8h-.79v-1.58q0-.44-.373-.44-.203 0-.305.14-.101.14-.101.41V4.8h-.79V2.112h.735v.275h.055q.208-.34.664-.34.543 0 .768.367.12-.18.337-.274.217-.093.464-.093z" stroke-width=".00549"/></g><g fill="#FFF" stroke="#FFF"><path d="M.318 8.148h.746v.241h.044q.11-.142.308-.225.197-.082.471-.082.352 0 .645.184.294.184.467.505.172.32.172.721 0 .4-.172.725-.173.323-.472.504-.3.181-.661.181-.247 0-.445-.063-.197-.063-.313-.189v1.339h-.79zm1.405 2.02q.274 0 .466-.193.192-.192.192-.483 0-.29-.192-.483-.192-.192-.466-.192t-.467.192q-.192.192-.192.483t.192.483q.193.192.467.192zM3.71 8.148h.734v.296H4.5q.088-.18.25-.271.162-.09.37-.09.165 0 .33.06l-.165.73q-.126-.056-.269-.056-.23 0-.373.173t-.143.491v1.356h-.79zM6.315 7.775q-.192 0-.332-.14t-.14-.332q0-.192.14-.332t.332-.14q.192 0 .332.14t.14.332q0 .192-.14.332t-.332.14zm-.395.373h.79v2.689h-.79zM10.403 8.082q.461 0 .683.255.222.255.222.722v1.778h-.79v-1.58q0-.44-.373-.44-.203 0-.304.14-.102.14-.102.41v1.47h-.79v-1.58q0-.44-.373-.44-.203 0-.305.14-.101.14-.101.41v1.47h-.79V8.148h.735v.274h.055q.208-.34.664-.34.543 0 .768.368.12-.181.337-.275.217-.093.464-.093zM14.414 9.69H12.57q.055.258.242.406.186.148.422.148.198 0 .346-.082.148-.083.225-.214l.625.329q-.373.625-1.18.625-.433 0-.756-.18-.324-.182-.497-.503-.173-.32-.173-.727 0-.4.181-.724.181-.324.491-.505.31-.18.689-.18.428 0 .724.177.297.179.442.483.145.305.145.689 0 .104-.016.186zm-.68-.516q-.039-.208-.179-.326-.14-.118-.37-.118-.214 0-.368.12-.153.121-.22.324zM15.462 7.775q-.192 0-.332-.14t-.14-.332q0-.192.14-.332t.332-.14q.192 0 .332.14t.14.332q0 .192-.14.332t-.332.14zm-.395.373h.79v2.689h-.79zM16.526 8.148h.736v.296h.055q.087-.18.25-.271.161-.09.37-.09.164 0 .329.06l-.165.73q-.126-.056-.269-.056-.23 0-.373.173-.142.173-.142.491v1.356h-.79zM19.736 10.902q-.35 0-.644-.183-.294-.184-.467-.505-.173-.321-.173-.722 0-.4.173-.724.173-.324.472-.505.3-.18.661-.18.247 0 .442.07.195.072.315.204v-.209h.79v2.689h-.746v-.264h-.044q-.104.154-.301.242-.198.087-.478.087zm.165-.735q.274 0 .466-.192t.192-.483q0-.29-.192-.483-.192-.192-.466-.192t-.467.192q-.192.192-.192.483t.192.483q.193.192.467.192zM23.314 8.148h.746v.241h.044q.11-.142.307-.225.198-.082.472-.082.351 0 .645.184.293.184.466.505.173.32.173.721 0 .4-.173.725-.173.323-.472.504t-.661.181q-.247 0-.444-.063-.198-.063-.313-.189v1.339h-.79zm1.404 2.02q.275 0 .467-.193.192-.192.192-.483 0-.29-.192-.483-.192-.192-.467-.192-.274 0-.466.192t-.192.483q0 .291.192.483t.466.192zM29.196 9.69h-1.844q.055.258.241.406.187.148.423.148.197 0 .346-.082.148-.083.225-.214l.625.329q-.373.625-1.18.625-.433 0-.757-.18-.323-.182-.496-.503-.173-.32-.173-.727 0-.4.18-.724.182-.324.492-.505.31-.18.689-.18.428 0 .724.177.296.179.442.483.145.305.145.689 0 .104-.017.186zm-.68-.516q-.04-.208-.18-.326-.139-.118-.37-.118-.213 0-.367.12-.154.121-.22.324zM30.699 10.902q-.417 0-.691-.17-.275-.17-.412-.439l.593-.406q.071.148.22.247.147.099.323.099.29 0 .29-.208 0-.105-.117-.168-.118-.063-.453-.162-.74-.22-.74-.812 0-.362.282-.581.283-.22.7-.22.356 0 .6.135.245.134.376.38l-.532.374q-.192-.274-.46-.274-.116 0-.187.044-.072.043-.072.131 0 .088.09.132.091.044.399.143.4.131.614.323.214.192.214.533 0 .263-.129.466t-.365.318q-.236.115-.543.115zM33.185 10.902q-.417 0-.692-.17-.274-.17-.411-.439l.592-.406q.072.148.22.247.148.099.324.099.29 0 .29-.208 0-.105-.118-.168-.118-.063-.452-.162-.741-.22-.741-.812 0-.362.283-.581.282-.22.7-.22.356 0 .6.135.244.134.376.38l-.532.374q-.193-.274-.461-.274-.116 0-.187.044-.071.043-.071.131 0 .088.09.132.09.044.398.143.4.131.615.323.214.192.214.533 0 .263-.13.466-.128.203-.364.318-.236.115-.543.115zM36.021 10.902q-.406 0-.738-.18-.332-.182-.52-.503-.19-.32-.19-.727 0-.406.19-.727.188-.32.52-.502.332-.18.738-.18.406 0 .738.18.332.181.522.502.189.321.189.727 0 .406-.19.727-.189.321-.52.502-.333.181-.739.181zm0-.735q.291 0 .475-.178t.184-.497q0-.318-.184-.496-.184-.179-.475-.179-.29 0-.474.179-.184.178-.184.496 0 .319.184.497.183.178.474.178zM39.193 10.902q-.351 0-.645-.183-.294-.184-.466-.505-.173-.321-.173-.722 0-.4.173-.724.172-.324.471-.505.3-.18.662-.18.247 0 .441.07.195.072.316.204v-.209h.79v2.689h-.746v-.264h-.044q-.104.154-.302.242-.197.087-.477.087zm.164-.735q.275 0 .467-.192t.192-.483q0-.29-.192-.483-.192-.192-.467-.192-.274 0-.466.192t-.192.483q0 .291.192.483t.466.192zM44.038 12.055q-.472 0-.788-.179-.315-.178-.474-.474l.63-.4q.253.361.632.361.268 0 .433-.167.165-.167.165-.458v-.225q-.132.17-.31.247-.179.077-.437.077-.35 0-.639-.176-.288-.176-.455-.488-.168-.313-.168-.714 0-.4.162-.713.162-.313.45-.488.288-.176.64-.176.548 0 .757.33h.044v-.264h.746v2.612q0 .378-.165.672-.164.293-.477.458-.313.165-.746.165zm.01-1.954q.275 0 .453-.175.179-.176.179-.467 0-.29-.179-.466-.178-.176-.452-.176-.275 0-.453.176t-.178.466q0 .291.178.467.178.175.453.175zM46.062 8.148h.736v.296h.054q.088-.18.25-.271.162-.09.37-.09.165 0 .33.06l-.165.73q-.126-.056-.269-.056-.23 0-.373.173t-.143.491v1.356h-.79zM49.272 10.902q-.351 0-.645-.183-.293-.184-.466-.505-.173-.321-.173-.722 0-.4.173-.724.173-.324.472-.505.299-.18.661-.18.247 0 .442.07.195.072.315.204v-.209h.79v2.689h-.746v-.264h-.044q-.104.154-.302.242-.197.087-.477.087zm.165-.735q.274 0 .466-.192t.192-.483q0-.29-.192-.483-.192-.192-.466-.192-.275 0-.467.192t-.192.483q0 .291.192.483t.467.192zM52.389 8.806V9.86q0 .154.071.244t.192.09q.093 0 .15-.016.059-.016.124-.055v.692q-.159.087-.395.087-.433 0-.683-.25-.25-.249-.25-.71V8.806h-.252v-.658h.253v-.532l.79-.28v.812h.537v.658zM54.413 10.902q-.477 0-.724-.255t-.247-.721V8.148h.79v1.553q0 .225.104.345.105.121.319.121.22 0 .343-.156.123-.157.123-.425V8.148h.79v2.689h-.735v-.258h-.055q-.099.164-.285.244-.187.08-.423.08zM56.976 7.775q-.192 0-.332-.14t-.14-.332q0-.192.14-.332t.332-.14q.192 0 .332.14t.14.332q0 .192-.14.332t-.332.14zm-.395.373h.79v2.689h-.79zM58.95 8.806V9.86q0 .154.072.244t.192.09q.094 0 .151-.016.058-.016.124-.055v.692q-.16.087-.395.087-.434 0-.684-.25-.25-.249-.25-.71V8.806h-.252v-.658h.253v-.532l.79-.28v.812h.538v.658zM61.288 10.902q-.406 0-.738-.18-.332-.182-.52-.503-.19-.32-.19-.727 0-.406.19-.727.188-.32.52-.502.332-.18.738-.18.406 0 .738.18.332.181.522.502.189.321.189.727 0 .406-.19.727-.189.321-.52.502-.333.181-.739.181zm0-.735q.291 0 .475-.178t.184-.497q0-.318-.184-.496-.184-.179-.475-.179-.29 0-.474.179-.184.178-.184.496 0 .319.184.497t.474.178zM65.996 10.902q-.406 0-.738-.18-.332-.182-.521-.503-.19-.32-.19-.727 0-.406.19-.727.19-.32.521-.502.332-.18.738-.18.406 0 .738.18.332.181.521.502.19.321.19.727 0 .406-.19.727-.189.321-.52.502-.333.181-.739.181zm0-.735q.29 0 .475-.178.183-.178.183-.497 0-.318-.183-.496-.184-.179-.475-.179-.29 0-.475.179-.183.178-.183.496 0 .319.183.497.184.178.475.178zM67.982 8.148h.736v.269h.054q.11-.154.308-.244.197-.09.455-.09.44 0 .678.257.238.258.238.719v1.778h-.79V9.284q0-.225-.098-.346-.1-.12-.324-.12-.22 0-.343.156-.124.156-.124.425v1.438h-.79zM72.251 10.902q-.351 0-.645-.183-.293-.184-.466-.505-.173-.321-.173-.722 0-.4.173-.724.173-.324.472-.505.299-.18.661-.18.247 0 .444.062.198.063.313.19v-1.34h.79v3.842h-.746v-.242h-.044q-.11.143-.307.225-.198.082-.472.082zm.165-.735q.274 0 .466-.192t.192-.483q0-.29-.192-.483-.192-.192-.466-.192-.275 0-.467.192t-.192.483q0 .291.192.483t.467.192zM76.926 9.69h-1.844q.055.258.242.406.186.148.422.148.198 0 .346-.082.148-.083.225-.214l.625.329q-.373.625-1.18.625-.433 0-.756-.18-.324-.182-.497-.503-.173-.32-.173-.727 0-.4.181-.724.181-.324.491-.505.31-.18.689-.18.428 0 .724.177.296.179.442.483.145.305.145.689 0 .104-.016.186zm-.68-.516q-.039-.208-.179-.326-.14-.118-.37-.118-.214 0-.368.12-.153.121-.22.324zM78.698 8.148h.823l.637 1.673h.066l.636-1.673h.823l-1.07 2.689h-.845zM83.263 10.902q-.406 0-.738-.18-.332-.182-.521-.503-.19-.32-.19-.727 0-.406.19-.727.19-.32.521-.502.332-.18.738-.18.406 0 .738.18.332.181.521.502.19.321.19.727 0 .406-.19.727-.189.321-.52.502-.333.181-.739.181zm0-.735q.291 0 .475-.178t.184-.497q0-.318-.184-.496-.184-.179-.475-.179-.29 0-.474.179-.184.178-.184.496 0 .319.184.497.183.178.474.178zM86.6 10.902q-.412 0-.744-.18-.332-.182-.519-.505-.186-.324-.186-.725 0-.4.189-.724.19-.324.524-.505.335-.18.746-.18.406 0 .71.153.305.153.48.455l-.636.434q-.192-.308-.554-.308-.28 0-.474.184-.195.184-.195.491 0 .308.19.491.188.184.468.184.412 0 .587-.318l.615.433q-.187.297-.494.459-.307.161-.708.161zM90.72 9.69h-1.844q.055.258.242.406.186.148.422.148.198 0 .346-.082.148-.083.225-.214l.625.329q-.373.625-1.18.625-.433 0-.756-.18-.324-.182-.497-.503-.173-.32-.173-.727 0-.4.181-.724.181-.324.491-.505.31-.18.689-.18.428 0 .724.177.296.179.442.483.145.305.145.689 0 .104-.016.186zm-.68-.516q-.039-.208-.179-.326-.14-.118-.37-.118-.214 0-.368.12-.153.121-.22.324zm-.813-2.36h.544l.68.851h-.686l-.269-.335-.269.335h-.685zM94.061 10.902q-.411 0-.743-.18-.332-.182-.519-.505-.186-.324-.186-.725 0-.4.19-.724.188-.324.523-.505.335-.18.746-.18.406 0 .71.153.305.153.481.455l-.636.434q-.192-.308-.555-.308-.28 0-.474.184-.195.184-.195.491 0 .308.19.491.189.184.468.184.412 0 .588-.318l.614.433q-.187.297-.494.459-.307.161-.708.161zM97.04 10.902q-.405 0-.737-.18-.332-.182-.521-.503-.19-.32-.19-.727 0-.406.19-.727.189-.32.52-.502.333-.18.739-.18.406 0 .738.18.332.181.521.502.19.321.19.727 0 .406-.19.727-.19.321-.521.502-.332.181-.738.181zm0-.735q.292 0 .475-.178.184-.178.184-.497 0-.318-.184-.496-.183-.179-.474-.179t-.475.179q-.184.178-.184.496 0 .319.184.497t.475.178zM102.05 8.082q.461 0 .683.255.223.255.223.722v1.778h-.79v-1.58q0-.44-.374-.44-.203 0-.304.14-.102.14-.102.41v1.47h-.79v-1.58q0-.44-.373-.44-.203 0-.304.14-.102.14-.102.41v1.47h-.79V8.148h.735v.274h.055q.209-.34.664-.34.543 0 .768.368.12-.181.338-.275.216-.093.463-.093zM103.57 8.148h.746v.241h.044q.11-.142.308-.225.197-.082.471-.082.352 0 .645.184.294.184.466.505.173.32.173.721 0 .4-.173.725-.172.323-.471.504-.3.181-.662.181-.246 0-.444-.063t-.313-.189v1.339h-.79zm1.405 2.02q.274 0 .466-.193.192-.192.192-.483 0-.29-.192-.483-.192-.192-.466-.192-.275 0-.467.192t-.192.483q0 .291.192.483t.467.192zM109.452 9.69h-1.844q.055.258.242.406.186.148.422.148.198 0 .346-.082.148-.083.225-.214l.626.329q-.374.625-1.18.625-.434 0-.757-.18-.324-.182-.497-.503-.173-.32-.173-.727 0-.4.181-.724.181-.324.491-.505.31-.18.689-.18.428 0 .724.177.297.179.442.483.145.305.145.689 0 .104-.016.186zm-.68-.516q-.039-.208-.179-.326-.14-.118-.37-.118-.214 0-.368.12-.153.121-.22.324zM110.873 8.806V9.86q0 .154.072.244.07.09.192.09.093 0 .15-.016.058-.016.124-.055v.692q-.16.087-.395.087-.434 0-.683-.25-.25-.249-.25-.71V8.806h-.252v-.658h.252v-.532l.79-.28v.812h.538v.658zM114.352 9.69h-1.844q.055.258.242.406.186.148.422.148.198 0 .346-.082.148-.083.225-.214l.625.329q-.373.625-1.18.625-.433 0-.757-.18-.323-.182-.496-.503-.173-.32-.173-.727 0-.4.181-.724.181-.324.491-.505.31-.18.689-.18.428 0 .724.177.296.179.442.483.145.305.145.689 0 .104-.016.186zm-.68-.516q-.039-.208-.179-.326-.14-.118-.37-.118-.214 0-.368.12-.153.121-.22.324zM116.344 8.148h.746v.241h.044q.11-.142.307-.225.197-.082.472-.082.351 0 .645.184.293.184.466.505.173.32.173.721 0 .4-.173.725-.173.323-.472.504t-.661.181q-.247 0-.445-.063-.197-.063-.312-.189v1.339h-.79zm1.404 2.02q.275 0 .467-.193.192-.192.192-.483 0-.29-.192-.483-.192-.192-.467-.192-.274 0-.466.192t-.192.483q0 .291.192.483t.466.192zM120.92 10.902q-.352 0-.645-.183-.294-.184-.466-.505-.173-.321-.173-.722 0-.4.173-.724.172-.324.471-.505.3-.18.662-.18.247 0 .441.07.195.072.316.204v-.209h.79v2.689h-.746v-.264h-.044q-.104.154-.302.242-.198.087-.477.087zm.164-.735q.275 0 .467-.192t.192-.483q0-.29-.192-.483-.192-.192-.467-.192-.274 0-.466.192t-.192.483q0 .291.192.483t.466.192zM123.125 8.148h.736v.296h.054q.088-.18.25-.271.162-.09.37-.09.165 0 .33.06l-.165.73q-.126-.056-.269-.056-.23 0-.373.173t-.143.491v1.356h-.79zM126.335 10.902q-.351 0-.645-.183-.293-.184-.466-.505-.173-.321-.173-.722 0-.4.173-.724.173-.324.472-.505.299-.18.661-.18.247 0 .442.07.195.072.315.204v-.209h.79v2.689h-.746v-.264h-.044q-.104.154-.301.242-.198.087-.478.087zm.165-.735q.274 0 .466-.192t.192-.483q0-.29-.192-.483-.192-.192-.466-.192-.275 0-.467.192t-.192.483q0 .291.192.483t.467.192z" stroke-width=".00549"/></g><g fill="#FFF" stroke="#FFF"><path d="M1.29 16.938q-.418 0-.692-.17-.274-.17-.411-.44l.592-.405q.071.148.22.247.148.099.323.099.291 0 .291-.209 0-.104-.118-.167-.118-.063-.452-.162-.741-.22-.741-.812 0-.362.282-.582.283-.22.7-.22.357 0 .6.135.245.135.377.381l-.533.374q-.192-.275-.46-.275-.116 0-.187.044t-.071.132q0 .088.09.132.09.043.398.142.4.132.614.324.214.192.214.532 0 .263-.129.467-.128.203-.364.318-.236.115-.544.115zM5.267 15.725H3.424q.055.258.241.406.187.149.423.149.197 0 .345-.083.149-.082.225-.214l.626.33q-.373.625-1.18.625-.433 0-.757-.181t-.497-.502q-.172-.321-.172-.727 0-.4.18-.724.182-.324.492-.505t.688-.181q.428 0 .725.178.296.178.441.483.146.304.146.688 0 .105-.017.187zm-.68-.515q-.038-.209-.178-.327-.14-.118-.37-.118-.215 0-.368.12-.154.122-.22.325zM5.887 14.184h.736v.296h.055q.087-.181.25-.272.161-.09.37-.09.164 0 .329.06l-.165.73q-.126-.055-.269-.055-.23 0-.373.173-.142.173-.142.49v1.356h-.79zM10.787 16.938q-.406 0-.738-.181-.332-.181-.521-.502-.19-.321-.19-.727 0-.406.19-.727.19-.321.521-.502.332-.181.738-.181.406 0 .738.18.332.182.521.503.19.32.19.727 0 .406-.19.727-.189.32-.52.502-.333.181-.739.181zm0-.735q.291 0 .475-.179.184-.178.184-.496t-.184-.497q-.184-.178-.475-.178-.29 0-.474.178-.184.179-.184.497t.184.496q.183.179.474.179zM17.168 14.118q.461 0 .684.255.222.255.222.721v1.778h-.79v-1.58q0-.439-.373-.439-.203 0-.305.14-.101.14-.101.409v1.47h-.79v-1.58q0-.439-.374-.439-.203 0-.304.14-.102.14-.102.409v1.47h-.79v-2.688h.735v.274h.055q.209-.34.664-.34.543 0 .768.367.121-.18.338-.274.217-.093.463-.093zM21.18 15.725h-1.844q.055.258.241.406.187.149.423.149.197 0 .345-.083.148-.082.225-.214l.626.33q-.373.625-1.18.625-.433 0-.757-.181t-.497-.502q-.172-.321-.172-.727 0-.4.18-.724.182-.324.492-.505t.688-.181q.428 0 .725.178.296.178.441.483.146.304.146.688 0 .105-.017.187zm-.681-.515q-.038-.209-.178-.327-.14-.118-.37-.118-.215 0-.368.12-.154.122-.22.325zM21.777 13.031h.79v3.841h-.79zM23.16 13.031h.735v1.443h.055q.12-.17.327-.263.205-.093.447-.093.483 0 .721.252.239.253.239.774v1.728h-.79v-1.525q0-.242-.113-.368-.112-.126-.337-.126-.225 0-.36.16-.134.158-.134.422v1.437h-.79zM27.648 16.938q-.406 0-.738-.181-.332-.181-.52-.502-.19-.321-.19-.727 0-.406.19-.727.188-.321.52-.502t.738-.181q.406 0 .738.18.332.182.522.503.189.32.189.727 0 .406-.19.727-.189.32-.52.502-.333.181-.739.181zm0-.735q.291 0 .475-.179.184-.178.184-.496t-.184-.497q-.184-.178-.475-.178-.29 0-.474.178-.184.179-.184.497t.184.496q.184.179.474.179zM29.635 14.184h.735v.296h.055q.087-.181.25-.272.161-.09.37-.09.164 0 .329.06l-.165.73q-.126-.055-.269-.055-.23 0-.373.173-.142.173-.142.49v1.356h-.79zM35.676 15.725h-1.844q.055.258.241.406.187.149.423.149.197 0 .346-.083.148-.082.225-.214l.625.33q-.373.625-1.18.625-.433 0-.757-.181t-.496-.502q-.173-.321-.173-.727 0-.4.18-.724.182-.324.492-.505t.689-.181q.428 0 .724.178t.442.483q.145.304.145.688 0 .105-.017.187zm-.68-.515q-.04-.209-.18-.327-.139-.118-.37-.118-.213 0-.367.12-.154.122-.22.325zM39.319 14.118q.46 0 .683.255.222.255.222.721v1.778h-.79v-1.58q0-.439-.373-.439-.203 0-.304.14-.102.14-.102.409v1.47h-.79v-1.58q0-.439-.373-.439-.203 0-.305.14-.101.14-.101.409v1.47h-.79v-2.688h.735v.274h.055q.208-.34.664-.34.543 0 .768.367.12-.18.337-.274.217-.093.464-.093zM42.21 14.184h.747v.241H43q.11-.143.307-.225.197-.082.472-.082.35 0 .644.184.294.183.467.504.173.321.173.722 0 .4-.173.724-.173.324-.472.505-.3.181-.661.181-.247 0-.445-.063-.197-.063-.312-.19v1.34h-.79zm1.405 2.019q.274 0 .467-.192.192-.192.192-.483t-.192-.483q-.193-.192-.467-.192t-.466.192q-.192.192-.192.483 0 .29.192.483.192.192.466.192zM46.787 16.938q-.352 0-.645-.184-.294-.184-.467-.505-.172-.32-.172-.721 0-.4.172-.724.173-.324.472-.505.3-.181.661-.181.247 0 .442.071t.316.203v-.208h.79v2.688h-.746v-.263h-.044q-.105.153-.302.241-.198.088-.477.088zm.164-.735q.274 0 .467-.192.192-.192.192-.483t-.192-.483q-.193-.192-.467-.192t-.466.192q-.192.192-.192.483 0 .29.192.483.192.192.466.192zM48.992 14.184h.736v.296h.054q.088-.181.25-.272.162-.09.37-.09.165 0 .33.06l-.165.73q-.126-.055-.269-.055-.23 0-.373.173t-.143.49v1.356h-.79zM52.081 14.842v1.053q0 .154.072.245.071.09.192.09.093 0 .15-.016.058-.017.124-.055v.691q-.159.088-.395.088-.433 0-.683-.25-.25-.25-.25-.71v-1.136h-.252v-.658h.252v-.533l.79-.28v.813h.538v.658zM53.585 13.81q-.192 0-.332-.14t-.14-.331q0-.192.14-.332t.332-.14q.192 0 .332.14t.14.332q0 .192-.14.332t-.332.14zm-.395.374h.79v2.688h-.79zM55.834 16.938q-.35 0-.644-.184-.294-.184-.467-.505-.173-.32-.173-.721 0-.4.173-.724.173-.324.472-.505.3-.181.661-.181.247 0 .445.063.197.063.313.19v-1.34h.79v3.841h-.747v-.241h-.043q-.11.142-.308.225-.197.082-.472.082zm.165-.735q.274 0 .466-.192t.192-.483q0-.291-.192-.483T56 14.853q-.274 0-.466.192t-.192.483q0 .29.192.483.192.192.466.192zM59.203 16.938q-.35 0-.644-.184-.294-.184-.467-.505-.173-.32-.173-.721 0-.4.173-.724.173-.324.472-.505.3-.181.661-.181.247 0 .442.071t.315.203v-.208h.79v2.688h-.746v-.263h-.044q-.104.153-.301.241-.198.088-.478.088zm.165-.735q.274 0 .466-.192t.192-.483q0-.291-.192-.483t-.466-.192q-.274 0-.466.192t-.192.483q0 .29.192.483.192.192.466.192zM62.38 16.938q-.417 0-.691-.17-.274-.17-.412-.44l.593-.405q.071.148.22.247.148.099.323.099.291 0 .291-.209 0-.104-.118-.167-.118-.063-.453-.162-.74-.22-.74-.812 0-.362.282-.582.283-.22.7-.22.356 0 .6.135.245.135.376.381l-.532.374q-.192-.275-.46-.275-.116 0-.187.044-.072.044-.072.132 0 .088.09.132.091.043.399.142.4.132.614.324.214.192.214.532 0 .263-.129.467-.129.203-.365.318-.236.115-.543.115zM66.687 16.938q-.406 0-.738-.181-.332-.181-.52-.502-.19-.321-.19-.727 0-.406.19-.727.188-.321.52-.502t.738-.181q.406 0 .738.18.332.182.522.503.189.32.189.727 0 .406-.19.727-.189.32-.52.502-.333.181-.739.181zm0-.735q.291 0 .475-.179.184-.178.184-.496t-.184-.497q-.184-.178-.475-.178-.29 0-.474.178-.184.179-.184.497t.184.496q.184.179.474.179zM68.674 14.184h.735v.268h.055q.11-.153.307-.244.198-.09.455-.09.44 0 .678.258.239.257.239.718v1.778h-.79V15.32q0-.225-.1-.345-.098-.121-.323-.121-.22 0-.343.156-.123.157-.123.426v1.437h-.79zM71.823 14.826h1.838v.68h-1.838zM74.342 13.031h.79v3.841h-.79zM76.174 13.81q-.192 0-.332-.14t-.14-.331q0-.192.14-.332t.332-.14q.192 0 .332.14t.14.332q0 .192-.14.332t-.332.14zm-.395.374h.79v2.688h-.79zM77.239 14.184h.735v.268h.055q.11-.153.307-.244.198-.09.455-.09.44 0 .678.258.239.257.239.718v1.778h-.79V15.32q0-.225-.1-.345-.098-.121-.323-.121-.22 0-.343.156-.123.157-.123.426v1.437h-.79zM82.813 15.725H80.97q.055.258.241.406.187.149.423.149.197 0 .345-.083.148-.082.225-.214l.626.33q-.373.625-1.18.625-.433 0-.757-.181t-.497-.502q-.172-.321-.172-.727 0-.4.18-.724.182-.324.492-.505t.688-.181q.428 0 .725.178.296.178.441.483.146.304.146.688 0 .105-.017.187zm-.68-.515q-.038-.209-.178-.327-.14-.118-.37-.118-.215 0-.368.12-.154.122-.22.325zM85.99 16.938q-.35 0-.644-.184-.294-.184-.467-.505-.173-.32-.173-.721 0-.4.173-.724.173-.324.472-.505t.661-.181q.247 0 .445.063.197.063.312.19v-1.34h.79v3.841h-.746v-.241h-.044q-.11.142-.307.225-.197.082-.472.082zm.165-.735q.274 0 .466-.192t.192-.483q0-.291-.192-.483t-.466-.192q-.275 0-.467.192t-.192.483q0 .29.192.483.192.192.467.192zM90.665 15.725h-1.844q.055.258.242.406.186.149.422.149.198 0 .346-.083.148-.082.225-.214l.626.33q-.374.625-1.18.625-.434 0-.757-.181-.324-.181-.497-.502t-.173-.727q0-.4.181-.724.181-.324.491-.505t.689-.181q.428 0 .724.178.297.178.442.483.145.304.145.688 0 .105-.016.187zm-.68-.515q-.039-.209-.179-.327-.14-.118-.37-.118-.214 0-.368.12-.153.122-.22.325zM92.657 14.184h.735v.296h.055q.088-.181.25-.272.161-.09.37-.09.165 0 .33.06l-.165.73q-.127-.055-.27-.055-.23 0-.372.173-.143.173-.143.49v1.356h-.79zM95.263 13.81q-.192 0-.332-.14t-.14-.331q0-.192.14-.332t.332-.14q.192 0 .332.14t.14.332q0 .192-.14.332t-.332.14zm-.395.374h.79v2.688h-.79zM97.238 14.842v1.053q0 .154.072.245.071.09.192.09.093 0 .15-.016.058-.017.124-.055v.691q-.16.088-.395.088-.433 0-.683-.25-.25-.25-.25-.71v-1.136h-.252v-.658h.252v-.533l.79-.28v.813h.538v.658zM101.337 14.118q.46 0 .683.255.222.255.222.721v1.778h-.79v-1.58q0-.439-.373-.439-.203 0-.304.14-.102.14-.102.409v1.47h-.79v-1.58q0-.439-.373-.439-.203 0-.305.14-.101.14-.101.409v1.47h-.79v-2.688h.735v.274h.055q.208-.34.664-.34.543 0 .768.367.12-.18.337-.274.217-.093.464-.093zM104.207 16.938q-.406 0-.738-.181-.332-.181-.522-.502-.189-.321-.189-.727 0-.406.19-.727.189-.321.52-.502.333-.181.739-.181.406 0 .738.18.332.182.52.503.19.32.19.727 0 .406-.19.727-.188.32-.52.502-.332.181-.738.181zm0-.735q.29 0 .474-.179.184-.178.184-.496t-.184-.497q-.184-.178-.474-.178-.291 0-.475.178-.184.179-.184.497t.184.496q.184.179.475.179zM107.565 14.184h.735v.296h.055q.088-.181.25-.272.161-.09.37-.09.164 0 .329.06l-.165.73q-.126-.055-.269-.055-.23 0-.373.173-.142.173-.142.49v1.356h-.79zM110.774 16.938q-.35 0-.644-.184-.294-.184-.467-.505-.173-.32-.173-.721 0-.4.173-.724.173-.324.472-.505.3-.181.661-.181.247 0 .442.071t.316.203v-.208h.79v2.688h-.747v-.263h-.043q-.105.153-.302.241-.198.088-.478.088zm.165-.735q.274 0 .466-.192t.192-.483q0-.291-.192-.483t-.466-.192q-.274 0-.466.192t-.192.483q0 .29.192.483.192.192.466.192zm-.165-3.281h.917l-.472.779h-.724zM112.98 14.184h.746v.241h.044q.11-.143.308-.225.197-.082.471-.082.352 0 .645.184.294.183.466.504.173.321.173.722 0 .4-.173.724-.172.324-.471.505-.3.181-.662.181-.246 0-.444-.063t-.313-.19v1.34h-.79zm1.405 2.019q.274 0 .466-.192t.192-.483q0-.291-.192-.483t-.466-.192q-.275 0-.467.192t-.192.483q0 .29.192.483.192.192.467.192zM116.799 13.81q-.192 0-.332-.14t-.14-.331q0-.192.14-.332t.332-.14q.192 0 .332.14t.14.332q0 .192-.14.332t-.332.14zm-.395.374h.79v2.688h-.79zM119.049 16.938q-.352 0-.645-.184-.294-.184-.466-.505-.173-.32-.173-.721 0-.4.173-.724.172-.324.471-.505.3-.181.662-.181.246 0 .444.063t.313.19v-1.34h.79v3.841h-.746v-.241h-.044q-.11.142-.308.225-.197.082-.471.082zm.164-.735q.275 0 .467-.192t.192-.483q0-.291-.192-.483t-.467-.192q-.274 0-.466.192t-.192.483q0 .29.192.483.192.192.466.192zM122.582 16.938q-.406 0-.738-.181-.332-.181-.521-.502-.19-.321-.19-.727 0-.406.19-.727.19-.321.521-.502.332-.181.738-.181.406 0 .738.18.332.182.521.503.19.32.19.727 0 .406-.19.727-.189.32-.52.502-.333.181-.739.181zm0-.735q.291 0 .475-.179.184-.178.184-.496t-.184-.497q-.184-.178-.475-.178-.29 0-.474.178-.184.179-.184.497t.184.496q.183.179.474.179zM124.81 16.927q-.187 0-.318-.132-.132-.131-.132-.318 0-.186.132-.318.131-.132.318-.132.186 0 .318.132t.132.318q0 .187-.132.318-.132.132-.318.132z" stroke-width=".00549"/></g></svg>