<svg width="201.334" height="71" viewBox="0 0 201.334 71" xmlns="http://www.w3.org/2000/svg"><g fill="#FFF" stroke="#FFF"><path d="M3.018 6.552L.464 2.257H2.76l1.019 1.806.387 1.057h.129l.387-1.057L5.7 2.257h2.296L5.443 6.552l2.76 4.733h-2.4l-1.07-2-.425-1.044h-.155l-.426 1.045-1.07 1.999h-2.4zM9.286 2.257h2.953q1.406 0 2.444.555 1.038.554 1.593 1.573.555 1.019.555 2.386 0 1.367-.555 2.386-.555 1.019-1.593 1.573-1.038.555-2.444.555H9.286zm2.953 7.17q1.277 0 1.954-.696t.677-1.96q0-1.264-.677-1.96-.677-.697-1.954-.697h-.993v5.314zM24.027 8.59h-4.333q.129.606.567.954.439.348.993.348.464 0 .813-.193.348-.194.528-.503l1.47.773q-.876 1.47-2.772 1.47-1.019 0-1.78-.425-.76-.426-1.167-1.18-.406-.755-.406-1.709 0-.941.425-1.702.426-.761 1.155-1.187.728-.425 1.618-.425 1.006 0 1.702.419.697.419 1.039 1.135.341.715.341 1.618 0 .245-.038.439zm-1.6-1.213q-.09-.49-.418-.767-.33-.278-.87-.278-.504 0-.865.284t-.516.761zM30.553 4.088q-.452 0-.78-.329-.33-.328-.33-.78 0-.451.33-.78.328-.329.78-.329.451 0 .78.329t.329.78q0 .452-.329.78-.329.33-.78.33zm.928 7.197h-1.857V6.513h-2.18v4.772h-1.856V6.513h-.671V4.965h.67V4.36q0-1.07.652-1.664.651-.593 1.644-.593.361 0 .748.155v1.65q-.284-.141-.567-.141-.271 0-.445.213t-.174.535v.451h4.036zM35.84 11.44q-.825 0-1.515-.432-.69-.433-1.096-1.187-.406-.754-.406-1.696 0-.941.406-1.702t1.11-1.187q.702-.425 1.553-.425.58 0 1.038.167.458.168.742.477v-.49h1.857v6.32h-1.754v-.62h-.103q-.245.362-.71.568-.464.207-1.121.207zm.388-1.729q.644 0 1.096-.451.451-.451.451-1.135 0-.683-.451-1.135-.452-.451-1.096-.451-.645 0-1.097.451-.451.452-.451 1.135 0 .684.451 1.135.452.451 1.097.451zM41.025 4.965h1.728v.632h.13q.257-.36.722-.574.464-.212 1.07-.212 1.032 0 1.593.606.56.606.56 1.69v4.178h-1.856v-3.65q0-.529-.232-.813-.233-.283-.761-.283-.516 0-.806.367-.29.368-.29 1v3.379h-1.858zM50.414 6.513v2.476q0 .361.168.574.167.213.451.213.22 0 .355-.039.135-.038.29-.129v1.625q-.374.207-.929.207-1.018 0-1.605-.587t-.587-1.67v-2.67h-.593V4.965h.593v-1.25l1.857-.658v1.908h1.264v1.548zM62.021 8.59h-4.333q.129.606.568.954.438.348.993.348.464 0 .812-.193.348-.194.529-.503l1.47.773q-.877 1.47-2.773 1.47-1.019 0-1.78-.425-.76-.426-1.167-1.18-.406-.755-.406-1.709 0-.941.426-1.702.425-.761 1.154-1.187.729-.425 1.618-.425 1.006 0 1.703.419.696.419 1.038 1.135.342.715.342 1.618 0 .245-.039.439zm-1.599-1.213q-.09-.49-.419-.767-.329-.278-.87-.278-.503 0-.865.284-.36.284-.515.761zM58.887 2h2.154L59.932 3.83H58.23zM68.934 11.44q-1.122 0-1.702-.6-.58-.6-.58-1.696V4.965h1.857v3.65q0 .529.245.813.245.283.748.283.516 0 .806-.367.29-.368.29-1V4.965h1.857v6.32h-1.728v-.606h-.13q-.231.387-.67.574-.438.187-.993.187zM81.057 4.81q1.084 0 1.606.6t.522 1.696v4.179h-1.857V7.57q0-1.032-.877-1.032-.477 0-.716.329-.238.328-.238.96v3.457H77.64V7.57q0-1.032-.877-1.032-.478 0-.716.329-.239.328-.239.96v3.457h-1.857v-6.32h1.728v.645h.13q.49-.8 1.56-.8 1.277 0 1.805.865.284-.426.794-.645.509-.22 1.09-.22zM88.976 4.088q-.451 0-.78-.329-.33-.328-.33-.78 0-.451.33-.78.329-.329.78-.329t.78.329q.33.329.33.78 0 .452-.33.78-.329.33-.78.33zm-1.2 10.06q-.309 0-.65-.09-.342-.09-.536-.22l.516-1.599q.258.155.477.155.258 0 .361-.148.103-.149.103-.484V4.965h1.858v6.926q0 1.11-.587 1.683-.587.574-1.541.574zM94.65 11.44q-.954 0-1.734-.426t-1.225-1.18q-.445-.755-.445-1.709 0-.954.445-1.709.445-.754 1.225-1.18.78-.425 1.735-.425.954 0 1.734.425.78.426 1.226 1.18.444.755.444 1.71 0 .953-.444 1.708-.445.754-1.226 1.18-.78.426-1.734.426zm0-1.729q.684 0 1.116-.419.432-.419.432-1.167t-.432-1.167q-.432-.42-1.115-.42-.684 0-1.116.42-.432.42-.432 1.167 0 .748.432 1.167.432.42 1.116.42zM102.299 14.148q-1.11 0-1.851-.42-.742-.418-1.116-1.115l1.483-.941q.594.85 1.484.85.632 0 1.018-.392.387-.394.387-1.077v-.53q-.31.4-.728.581-.42.18-1.026.18-.825 0-1.502-.412-.677-.413-1.07-1.148-.394-.735-.394-1.676 0-.942.38-1.677.381-.735 1.058-1.148.677-.412 1.503-.412 1.29 0 1.78.773h.103v-.619h1.753v6.14q0 .89-.386 1.58-.387.69-1.122 1.076-.736.387-1.754.387zm.025-4.591q.645 0 1.064-.413.42-.413.42-1.096 0-.684-.42-1.097-.419-.412-1.064-.412-.644 0-1.064.412-.419.413-.419 1.097 0 .683.42 1.096.419.413 1.063.413zM110.23 11.44q-.954 0-1.734-.426t-1.226-1.18q-.445-.755-.445-1.709 0-.954.445-1.709.445-.754 1.226-1.18.78-.425 1.734-.425.955 0 1.735.425.78.426 1.225 1.18.445.755.445 1.71 0 .953-.445 1.708-.445.754-1.225 1.18-.78.426-1.735.426zm0-1.729q.684 0 1.116-.419.432-.419.432-1.167t-.432-1.167q-.432-.42-1.116-.42-.683 0-1.115.42-.432.42-.432 1.167 0 .748.432 1.167.432.42 1.115.42zM120.909 11.44q-.826 0-1.516-.432-.69-.433-1.096-1.187-.406-.754-.406-1.696 0-.941.406-1.702t1.11-1.187q.702-.425 1.553-.425.58 0 1.045.148.464.148.735.445V2.257h1.857v9.028h-1.754v-.568h-.103q-.258.336-.722.53-.464.193-1.11.193zm.387-1.729q.645 0 1.096-.451.451-.451.451-1.135 0-.683-.451-1.135-.451-.451-1.096-.451t-1.096.451q-.452.452-.452 1.135 0 .684.452 1.135.45.451 1.096.451zM131.897 8.59h-4.333q.129.606.567.954.439.348.993.348.465 0 .813-.193.348-.194.528-.503l1.47.773q-.876 1.47-2.772 1.47-1.019 0-1.78-.425-.76-.426-1.167-1.18-.406-.755-.406-1.709 0-.941.425-1.702.426-.761 1.155-1.187.728-.425 1.618-.425 1.006 0 1.703.419.696.419 1.038 1.135.342.715.342 1.618 0 .245-.04.439zm-1.6-1.213q-.09-.49-.418-.767-.33-.278-.87-.278-.504 0-.865.284t-.516.761zM139.364 11.44q-.825 0-1.515-.432-.69-.433-1.096-1.187-.406-.754-.406-1.696 0-.941.406-1.702t1.109-1.187q.703-.425 1.554-.425.58 0 1.038.167.458.168.742.477v-.49h1.857v6.32h-1.754v-.62h-.103q-.245.362-.71.568-.464.207-1.122.207zm.387-1.729q.645 0 1.097-.451.45-.451.45-1.135 0-.683-.45-1.135-.452-.451-1.097-.451t-1.096.451q-.451.452-.451 1.135 0 .684.451 1.135.451.451 1.096.451zM146.69 6.513v2.476q0 .361.168.574.167.213.45.213.22 0 .356-.039.135-.038.29-.129v1.625q-.374.207-.929.207-1.019 0-1.605-.587-.587-.587-.587-1.67v-2.67h-.594V4.965h.594v-1.25l1.857-.658v1.908h1.264v1.548zM150.224 4.088q-.452 0-.78-.329-.33-.328-.33-.78 0-.451.33-.78.328-.329.78-.329.451 0 .78.329t.329.78q0 .452-.33.78-.328.33-.78.33zm-.929.877h1.857v6.32h-1.857zM152.726 4.965h1.728v.697h.129q.206-.426.587-.639.38-.212.87-.212.387 0 .774.141l-.387 1.716q-.297-.13-.632-.13-.542 0-.877.407-.335.406-.335 1.154v3.186h-1.857zM160.27 11.44q-.825 0-1.515-.432-.69-.433-1.096-1.187-.407-.754-.407-1.696 0-.941.407-1.702.406-.761 1.109-1.187.703-.425 1.554-.425.58 0 1.038.167.458.168.742.477v-.49h1.857v6.32h-1.754v-.62h-.103q-.245.362-.71.568-.464.207-1.122.207zm.387-1.729q.645 0 1.096-.451.452-.451.452-1.135 0-.683-.452-1.135-.45-.451-1.096-.451-.645 0-1.096.451-.451.452-.451 1.135 0 .684.451 1.135.451.451 1.096.451zM168.24 11.44q-.825 0-1.515-.432-.69-.433-1.096-1.187-.406-.754-.406-1.696 0-.941.406-1.702t1.11-1.187q.702-.425 1.553-.425.58 0 1.045.148.464.148.735.445V2.257h1.857v9.028h-1.754v-.568h-.103q-.258.336-.722.53-.465.193-1.11.193zm.388-1.729q.644 0 1.096-.451.451-.451.451-1.135 0-.683-.451-1.135-.452-.451-1.096-.451-.645 0-1.097.451-.451.452-.451 1.135 0 .684.451 1.135.452.451 1.097.451zM176.546 11.44q-.954 0-1.734-.426t-1.226-1.18q-.445-.755-.445-1.709 0-.954.445-1.709.445-.754 1.226-1.18.78-.425 1.734-.425.955 0 1.735.425.78.426 1.225 1.18.445.755.445 1.71 0 .953-.445 1.708-.445.754-1.225 1.18-.78.426-1.735.426zm0-1.729q.684 0 1.116-.419.432-.419.432-1.167t-.432-1.167q-.432-.42-1.116-.42-.683 0-1.115.42-.432.42-.432 1.167 0 .748.432 1.167.432.42 1.115.42zM181.215 4.965h1.728v.697h.13q.205-.426.586-.639.38-.212.87-.212.387 0 .774.141l-.387 1.716q-.296-.13-.632-.13-.541 0-.877.407-.335.406-.335 1.154v3.186h-1.857z" stroke-width=".0129"/></g><g fill="#FFF" stroke="#FFF"><path d="M3.534 25.626q-.826 0-1.516-.432-.69-.432-1.096-1.186-.406-.755-.406-1.696 0-.942.406-1.703.406-.76 1.11-1.186.702-.426 1.553-.426.58 0 1.045.149.464.148.735.444v-3.146h1.857v9.027H5.468v-.567h-.103q-.258.335-.722.529-.464.193-1.11.193zm.387-1.728q.645 0 1.096-.451.451-.452.451-1.135 0-.684-.451-1.135-.451-.452-1.096-.452t-1.097.452q-.451.451-.451 1.135 0 .683.451 1.135.452.451 1.097.451zM14.522 22.776h-4.333q.129.606.567.954.439.349.993.349.464 0 .813-.194.348-.193.528-.503l1.47.774q-.876 1.47-2.772 1.47-1.02 0-1.78-.425-.76-.426-1.167-1.18-.406-.755-.406-1.71 0-.94.425-1.702.426-.76 1.154-1.186.73-.426 1.619-.426 1.006 0 1.702.42.697.419 1.039 1.134.341.716.341 1.619 0 .245-.038.438zm-1.6-1.212q-.09-.49-.418-.768-.33-.277-.871-.277-.503 0-.864.284t-.516.76zM21.99 25.626q-.826 0-1.516-.432-.69-.432-1.096-1.186-.407-.755-.407-1.696 0-.942.407-1.703.406-.76 1.109-1.186.703-.426 1.554-.426.58 0 1.038.168.458.168.742.477v-.49h1.857v6.32h-1.754v-.62h-.103q-.245.362-.71.568-.464.206-1.122.206zm.386-1.728q.645 0 1.096-.451.452-.452.452-1.135 0-.684-.452-1.135-.451-.452-1.096-.452t-1.096.452q-.451.451-.451 1.135 0 .683.451 1.135.451.451 1.096.451zM27.174 19.152h1.728v.696h.129q.206-.425.587-.638.38-.213.87-.213.387 0 .774.142l-.387 1.715q-.296-.129-.632-.129-.541 0-.877.407-.335.406-.335 1.154v3.185h-1.857zM37.788 22.776h-4.333q.129.606.567.954.439.349.993.349.464 0 .813-.194.348-.193.528-.503l1.47.774q-.876 1.47-2.772 1.47-1.019 0-1.78-.425-.76-.426-1.167-1.18-.406-.755-.406-1.71 0-.94.425-1.702.426-.76 1.155-1.186.728-.426 1.618-.426 1.006 0 1.703.42.696.419 1.038 1.134.342.716.342 1.619 0 .245-.04.438zm-1.6-1.212q-.09-.49-.418-.768-.33-.277-.87-.277-.504 0-.865.284t-.516.76zM39.245 19.152h1.729v.632h.129q.258-.361.722-.574.464-.213 1.07-.213 1.032 0 1.593.606.561.607.561 1.69v4.178h-1.857v-3.65q0-.528-.232-.812-.232-.284-.761-.284-.516 0-.806.368-.29.368-.29 1v3.378h-1.858zM49.28 25.626q-.826 0-1.516-.432-.69-.432-1.096-1.186-.407-.755-.407-1.696 0-.942.407-1.703.406-.76 1.109-1.186.703-.426 1.554-.426.58 0 1.038.168.458.168.742.477v-.49h1.857v6.32h-1.754v-.62h-.103q-.245.362-.71.568-.464.206-1.122.206zm.386-1.728q.645 0 1.096-.451.452-.452.452-1.135 0-.684-.452-1.135-.451-.452-1.096-.452t-1.096.452q-.451.451-.451 1.135 0 .683.45 1.135.452.451 1.097.451zM63.543 22.776H59.21q.129.606.567.954.439.349.993.349.465 0 .813-.194.348-.193.529-.503l1.47.774q-.877 1.47-2.773 1.47-1.019 0-1.78-.425-.76-.426-1.167-1.18-.406-.755-.406-1.71 0-.94.425-1.702.426-.76 1.155-1.186.728-.426 1.618-.426 1.006 0 1.703.42.696.419 1.038 1.134.342.716.342 1.619 0 .245-.039.438zm-1.599-1.212q-.09-.49-.42-.768-.328-.277-.87-.277-.503 0-.864.284-.36.284-.516.76zM72.107 18.997q1.083 0 1.605.6.523.6.523 1.696v4.178h-1.857v-3.714q0-1.032-.877-1.032-.478 0-.716.33-.239.328-.239.96v3.456H68.69v-3.714q0-1.032-.877-1.032-.477 0-.716.33-.238.328-.238.96v3.456H65v-6.319h1.728v.645h.129q.49-.8 1.56-.8 1.277 0 1.806.864.284-.425.793-.645.51-.219 1.09-.219zM78.904 19.152h1.753v.567h.104q.258-.335.722-.528.464-.194 1.109-.194.825 0 1.515.432t1.097 1.187q.406.754.406 1.696 0 .941-.406 1.702-.407.761-1.11 1.187-.702.425-1.554.425-.58 0-1.044-.148-.464-.148-.735-.445v3.147h-1.857zm3.301 4.746q.645 0 1.096-.451.452-.452.452-1.135 0-.684-.452-1.135-.451-.452-1.096-.452t-1.096.452q-.452.451-.452 1.135 0 .683.452 1.135.451.451 1.096.451zM86.874 19.152h1.728v.696h.129q.206-.425.587-.638.38-.213.87-.213.387 0 .774.142l-.387 1.715q-.296-.129-.632-.129-.541 0-.877.407-.335.406-.335 1.154v3.185h-1.857zM93 18.275q-.452 0-.78-.329-.33-.329-.33-.78 0-.452.33-.78.328-.33.78-.33.451 0 .78.33.329.328.329.78 0 .451-.329.78t-.78.329zm-.929.877h1.857v6.32h-1.857zM102.608 18.997q1.083 0 1.606.6.522.6.522 1.696v4.178h-1.857v-3.714q0-1.032-.877-1.032-.477 0-.716.33-.238.328-.238.96v3.456H99.19v-3.714q0-1.032-.877-1.032-.477 0-.715.33-.239.328-.239.96v3.456h-1.857v-6.319h1.728v.645h.129q.49-.8 1.56-.8 1.277 0 1.806.864.284-.425.793-.645.51-.219 1.09-.219zM112.036 22.776h-4.334q.13.606.568.954.438.349.993.349.464 0 .812-.194.349-.193.53-.503l1.47.774q-.878 1.47-2.773 1.47-1.02 0-1.78-.425-.761-.426-1.167-1.18-.407-.755-.407-1.71 0-.94.426-1.702.426-.76 1.154-1.186.729-.426 1.619-.426 1.006 0 1.702.42.697.419 1.038 1.134.342.716.342 1.619 0 .245-.038.438zm-1.6-1.212q-.09-.49-.419-.768-.328-.277-.87-.277-.503 0-.864.284t-.516.76zM114.5 18.275q-.452 0-.781-.329-.33-.329-.33-.78 0-.452.33-.78.329-.33.78-.33t.78.33q.33.328.33.78 0 .451-.33.78-.329.329-.78.329zm-.93.877h1.858v6.32h-1.857zM117.001 19.152h1.728v.696h.13q.206-.425.586-.638.38-.213.87-.213.388 0 .774.142l-.386 1.715q-.297-.129-.632-.129-.542 0-.877.407-.336.406-.336 1.154v3.185h-1.857zM124.546 25.626q-.826 0-1.516-.432-.69-.432-1.096-1.186-.406-.755-.406-1.696 0-.942.406-1.703.406-.76 1.11-1.186.702-.426 1.553-.426.58 0 1.039.168.457.168.741.477v-.49h1.857v6.32h-1.754v-.62h-.103q-.245.362-.71.568-.463.206-1.121.206zm.387-1.728q.645 0 1.096-.451.451-.452.451-1.135 0-.684-.451-1.135-.451-.452-1.096-.452t-1.097.452q-.45.451-.45 1.135 0 .683.45 1.135.452.451 1.097.451zM132.955 19.152h1.754v.567h.103q.258-.335.722-.528.464-.194 1.11-.194.825 0 1.515.432t1.096 1.187q.406.754.406 1.696 0 .941-.406 1.702t-1.11 1.187q-.702.425-1.553.425-.58 0-1.045-.148-.464-.148-.735-.445v3.147h-1.857zm3.301 4.746q.645 0 1.096-.451.452-.452.452-1.135 0-.684-.452-1.135-.45-.452-1.096-.452-.645 0-1.096.452-.451.451-.451 1.135 0 .683.451 1.135.451.451 1.096.451zM146.78 22.776h-4.333q.129.606.567.954.439.349.993.349.465 0 .813-.194.348-.193.529-.503l1.47.774q-.877 1.47-2.773 1.47-1.019 0-1.78-.425-.76-.426-1.167-1.18-.406-.755-.406-1.71 0-.94.425-1.702.426-.76 1.155-1.186.728-.426 1.618-.426 1.006 0 1.703.42.696.419 1.038 1.134.342.716.342 1.619 0 .245-.04.438zm-1.6-1.212q-.09-.49-.418-.768-.33-.277-.87-.277-.504 0-.865.284t-.516.76zM150.314 25.626q-.98 0-1.625-.4t-.967-1.031l1.392-.955q.168.349.516.58.349.233.761.233.684 0 .684-.49 0-.245-.277-.394-.278-.148-1.064-.38-1.742-.516-1.742-1.909 0-.851.665-1.367.664-.516 1.644-.516.838 0 1.412.316t.884.897l-1.251.877q-.452-.645-1.084-.645-.27 0-.438.103-.168.103-.168.31 0 .206.213.309.213.103.935.335.941.31 1.444.761.503.452.503 1.251 0 .62-.303 1.096-.303.478-.857.748-.555.271-1.277.271zM156.156 25.626q-.98 0-1.625-.4t-.967-1.031l1.393-.955q.167.349.516.58.348.233.76.233.684 0 .684-.49 0-.245-.277-.394-.277-.148-1.064-.38-1.741-.516-1.741-1.909 0-.851.664-1.367t1.644-.516q.839 0 1.413.316.573.316.883.897l-1.251.877q-.451-.645-1.083-.645-.271 0-.439.103-.168.103-.168.31 0 .206.213.309.213.103.935.335.942.31 1.445.761.503.452.503 1.251 0 .62-.303 1.096-.303.478-.858.748-.555.271-1.277.271zM162.824 25.626q-.954 0-1.735-.425-.78-.426-1.225-1.18-.445-.755-.445-1.71 0-.954.445-1.708.445-.755 1.225-1.18.78-.426 1.735-.426.954 0 1.735.426.78.425 1.225 1.18.445.754.445 1.709 0 .954-.445 1.709-.445.754-1.225 1.18-.78.425-1.735.425zm0-1.728q.683 0 1.116-.42.432-.418.432-1.166t-.432-1.167q-.433-.42-1.116-.42-.684 0-1.116.42-.432.419-.432 1.167t.432 1.167q.432.419 1.116.419zM170.278 25.626q-.825 0-1.515-.432t-1.096-1.186q-.407-.755-.407-1.696 0-.942.407-1.703.406-.76 1.109-1.186.703-.426 1.554-.426.58 0 1.038.168.458.168.742.477v-.49h1.857v6.32h-1.754v-.62h-.103q-.245.362-.71.568-.464.206-1.122.206zm.387-1.728q.645 0 1.097-.451.45-.452.45-1.135 0-.684-.45-1.135-.452-.452-1.097-.452t-1.096.452q-.451.451-.451 1.135 0 .683.451 1.135.451.451 1.096.451z" stroke-width=".0129"/></g><g fill="#FFF" stroke="#FFF"><path d="M3.727 42.521q-1.109 0-1.85-.419-.742-.42-1.116-1.116l1.483-.941q.593.851 1.483.851.632 0 1.02-.393.386-.394.386-1.077v-.529q-.31.4-.729.58-.419.181-1.025.181-.825 0-1.502-.413-.678-.412-1.07-1.147-.394-.736-.394-1.677 0-.942.38-1.677.38-.735 1.058-1.147.677-.413 1.502-.413 1.29 0 1.78.774h.103v-.62H6.99v6.14q0 .89-.387 1.58-.387.69-1.122 1.076-.735.387-1.754.387zm.026-4.591q.645 0 1.064-.413.42-.412.42-1.096 0-.684-.42-1.096-.42-.413-1.064-.413-.645 0-1.064.413-.42.412-.42 1.096 0 .684.42 1.096.42.413 1.064.413zM8.486 33.339h1.728v.696h.13q.206-.426.586-.638.38-.213.87-.213.388 0 .775.142l-.387 1.715q-.297-.129-.632-.129-.542 0-.877.406-.336.407-.336 1.155v3.185H8.486zM16.03 39.813q-.825 0-1.514-.432-.69-.432-1.097-1.187-.406-.754-.406-1.696 0-.941.406-1.702.407-.761 1.11-1.187.702-.425 1.553-.425.58 0 1.039.168.458.167.741.477v-.49h1.857v6.32h-1.754v-.62h-.103q-.245.361-.71.568-.463.206-1.121.206zm.388-1.728q.645 0 1.096-.452.451-.451.451-1.135 0-.683-.45-1.135-.452-.451-1.097-.451t-1.096.451q-.452.452-.452 1.135 0 .684.452 1.135.451.452 1.096.452zM23.356 34.886v2.476q0 .362.168.574.168.213.451.213.22 0 .355-.039.136-.038.29-.128v1.625q-.374.206-.928.206-1.02 0-1.606-.587-.587-.587-.587-1.67v-2.67h-.593V33.34h.593v-1.251l1.857-.658v1.909h1.264v1.547zM28.115 39.813q-1.122 0-1.702-.6-.58-.6-.58-1.696V33.34h1.857v3.65q0 .528.245.812.245.284.748.284.516 0 .806-.368.29-.367.29-1V33.34h1.857v6.32h-1.728v-.607h-.129q-.232.387-.67.574-.44.187-.994.187zM34.138 32.462q-.451 0-.78-.33-.329-.328-.329-.78 0-.45.329-.78.329-.329.78-.329.452 0 .78.33.33.328.33.78 0 .45-.33.78-.328.329-.78.329zm-.928.877h1.857v6.32H33.21zM38.781 34.886v2.476q0 .362.168.574.167.213.451.213.22 0 .355-.039.135-.038.29-.128v1.625q-.374.206-.929.206-1.018 0-1.605-.587t-.587-1.67v-2.67h-.593V33.34h.593v-1.251l1.857-.658v1.909h1.264v1.547zM44.275 39.813q-.954 0-1.734-.426-.78-.425-1.226-1.18-.445-.754-.445-1.709 0-.954.445-1.708.445-.755 1.226-1.18.78-.426 1.734-.426.955 0 1.735.425.78.426 1.225 1.18.445.755.445 1.71 0 .954-.445 1.708-.445.755-1.225 1.18-.78.426-1.735.426zm0-1.728q.684 0 1.116-.42.432-.419.432-1.167t-.432-1.167q-.432-.419-1.116-.419-.683 0-1.115.42-.432.418-.432 1.166t.432 1.168q.432.419 1.115.419zM55.34 39.813q-.954 0-1.734-.426-.78-.425-1.225-1.18-.445-.754-.445-1.709 0-.954.445-1.708.445-.755 1.225-1.18.78-.426 1.735-.426.954 0 1.734.425.78.426 1.226 1.18.445.755.445 1.71 0 .954-.445 1.708-.445.755-1.226 1.18-.78.426-1.734.426zm0-1.728q.684 0 1.116-.42.432-.419.432-1.167t-.432-1.167q-.432-.419-1.115-.419-.684 0-1.116.42-.432.418-.432 1.166t.432 1.168q.432.419 1.116.419zM60.01 33.339h1.728v.632h.129q.258-.362.722-.574.464-.213 1.07-.213 1.032 0 1.593.606.561.606.561 1.69v4.178h-1.857v-3.65q0-.529-.232-.812-.232-.284-.761-.284-.516 0-.806.368-.29.367-.29 1v3.378h-1.858zM70.043 39.813q-.825 0-1.515-.432t-1.096-1.187q-.407-.754-.407-1.696 0-.941.407-1.702.406-.761 1.109-1.187.703-.425 1.554-.425.58 0 1.045.148.464.148.735.445V30.63h1.857v9.028h-1.754v-.567h-.103q-.258.335-.723.528-.464.194-1.109.194zm.387-1.728q.645 0 1.096-.452.452-.451.452-1.135 0-.683-.452-1.135-.45-.451-1.096-.451-.645 0-1.096.451-.451.452-.451 1.135 0 .684.451 1.135.451.452 1.096.452zM81.032 36.963h-4.334q.13.606.568.954.438.348.993.348.464 0 .812-.193.348-.194.529-.503l1.47.774q-.877 1.47-2.773 1.47-1.019 0-1.78-.426-.76-.425-1.167-1.18-.406-.754-.406-1.709 0-.941.426-1.702.425-.761 1.154-1.187.729-.425 1.619-.425 1.006 0 1.702.419.696.42 1.038 1.135.342.716.342 1.618 0 .246-.039.439zm-1.6-1.213q-.09-.49-.419-.767-.329-.277-.87-.277-.503 0-.865.283-.36.284-.515.761zM85.197 33.339h1.935l1.496 3.933h.155l1.496-3.933h1.934l-2.515 6.32h-1.986zM95.927 39.813q-.954 0-1.734-.426-.78-.425-1.225-1.18-.445-.754-.445-1.709 0-.954.445-1.708.445-.755 1.225-1.18.78-.426 1.734-.426.955 0 1.735.425.78.426 1.225 1.18.445.755.445 1.71 0 .954-.445 1.708-.445.755-1.225 1.18-.78.426-1.735.426zm0-1.728q.684 0 1.116-.42.432-.419.432-1.167t-.432-1.167q-.432-.419-1.116-.419-.683 0-1.115.42-.432.418-.432 1.166t.432 1.168q.432.419 1.115.419zM103.769 39.813q-.967 0-1.748-.426-.78-.425-1.218-1.186-.439-.761-.439-1.703 0-.941.445-1.702t1.232-1.187q.786-.425 1.754-.425.954 0 1.67.361t1.128 1.07l-1.496 1.02q-.451-.723-1.302-.723-.658 0-1.116.432-.458.432-.458 1.154 0 .723.445 1.155.445.432 1.103.432.967 0 1.38-.748l1.444 1.019q-.438.696-1.16 1.076-.723.38-1.664.38zM113.454 36.963h-4.333q.129.606.568.954.438.348.993.348.464 0 .812-.193.348-.194.529-.503l1.47.774q-.877 1.47-2.773 1.47-1.019 0-1.78-.426-.76-.425-1.167-1.18-.406-.754-.406-1.709 0-.941.426-1.702.425-.761 1.154-1.187.729-.425 1.619-.425 1.005 0 1.702.419.696.42 1.038 1.135.342.716.342 1.618 0 .246-.039.439zm-1.599-1.213q-.09-.49-.419-.767-.329-.277-.87-.277-.503 0-.865.283-.36.284-.515.761zm-1.909-5.545h1.277l1.6 1.999h-1.613l-.632-.787-.632.787h-1.612zM121.309 39.813q-.968 0-1.748-.426-.78-.425-1.219-1.186-.438-.761-.438-1.703 0-.941.445-1.702t1.231-1.187q.787-.425 1.754-.425.955 0 1.67.361.716.361 1.13 1.07l-1.497 1.02q-.451-.723-1.303-.723-.657 0-1.115.432-.458.432-.458 1.154 0 .723.445 1.155.445.432 1.103.432.967 0 1.38-.748l1.444 1.019q-.438.696-1.16 1.076-.723.38-1.664.38zM128.312 39.813q-.955 0-1.735-.426-.78-.425-1.225-1.18-.445-.754-.445-1.709 0-.954.445-1.708.445-.755 1.225-1.18.78-.426 1.735-.426.954 0 1.734.425.78.426 1.226 1.18.445.755.445 1.71 0 .954-.445 1.708-.445.755-1.226 1.18-.78.426-1.734.426zm0-1.728q.683 0 1.115-.42.432-.419.432-1.167t-.432-1.167q-.432-.419-1.115-.419-.684 0-1.116.42-.432.418-.432 1.166t.432 1.168q.432.419 1.116.419zM140.087 33.184q1.083 0 1.605.6.523.6.523 1.695v4.18h-1.858v-3.715q0-1.032-.877-1.032-.477 0-.715.329-.239.329-.239.96v3.457h-1.857v-3.714q0-1.032-.877-1.032-.477 0-.716.329-.238.329-.238.96v3.457h-1.858v-6.32h1.729v.645h.129q.49-.8 1.56-.8 1.277 0 1.806.865.283-.426.793-.645.51-.22 1.09-.22zM143.66 33.339h1.753v.567h.103q.258-.335.722-.529.465-.193 1.11-.193.825 0 1.515.432t1.096 1.186q.406.755.406 1.696 0 .942-.406 1.703-.406.76-1.109 1.186-.703.426-1.554.426-.58 0-1.045-.148-.464-.149-.735-.445v3.146h-1.857zm3.3 4.746q.646 0 1.097-.452.451-.451.451-1.135 0-.683-.451-1.135-.451-.451-1.096-.451t-1.097.451q-.45.452-.45 1.135 0 .684.45 1.135.452.452 1.097.452zM157.485 36.963h-4.334q.13.606.568.954.438.348.993.348.464 0 .812-.193.348-.194.529-.503l1.47.774q-.877 1.47-2.773 1.47-1.018 0-1.78-.426-.76-.425-1.167-1.18-.406-.754-.406-1.709 0-.941.426-1.702.425-.761 1.154-1.187.729-.425 1.619-.425 1.006 0 1.702.419.697.42 1.038 1.135.342.716.342 1.618 0 .246-.039.439zm-1.6-1.213q-.09-.49-.419-.767-.329-.277-.87-.277-.503 0-.864.283-.362.284-.516.761zM160.825 34.886v2.476q0 .362.168.574.167.213.451.213.22 0 .355-.039.135-.038.29-.128v1.625q-.374.206-.929.206-1.019 0-1.605-.587-.587-.587-.587-1.67v-2.67h-.594V33.34h.594v-1.251l1.857-.658v1.909h1.264v1.547zM169.002 36.963h-4.334q.13.606.568.954.438.348.993.348.464 0 .812-.193.348-.194.529-.503l1.47.774q-.877 1.47-2.773 1.47-1.018 0-1.78-.426-.76-.425-1.167-1.18-.406-.754-.406-1.709 0-.941.426-1.702.425-.761 1.154-1.187.729-.425 1.619-.425 1.006 0 1.702.419.696.42 1.038 1.135.342.716.342 1.618 0 .246-.039.439zm-1.6-1.213q-.09-.49-.419-.767-.329-.277-.87-.277-.503 0-.864.283-.362.284-.516.761zM173.683 33.339h1.754v.567h.103q.258-.335.723-.529.464-.193 1.109-.193.825 0 1.515.432t1.096 1.186q.407.755.407 1.696 0 .942-.407 1.703-.406.76-1.109 1.186-.703.426-1.554.426-.58 0-1.045-.148-.464-.149-.735-.445v3.146h-1.857zm3.302 4.746q.645 0 1.096-.452.451-.451.451-1.135 0-.683-.451-1.135-.451-.451-1.096-.451t-1.096.451q-.452.452-.452 1.135 0 .684.452 1.135.45.452 1.096.452zM184.44 39.813q-.826 0-1.516-.432-.69-.432-1.096-1.187-.407-.754-.407-1.696 0-.941.407-1.702.406-.761 1.109-1.187.703-.425 1.554-.425.58 0 1.038.168.458.167.742.477v-.49h1.857v6.32h-1.754v-.62h-.103q-.245.361-.71.568-.464.206-1.122.206zm.386-1.728q.645 0 1.096-.452.452-.451.452-1.135 0-.683-.452-1.135-.451-.451-1.096-.451t-1.096.451q-.452.452-.452 1.135 0 .684.452 1.135.451.452 1.096.452zM189.624 33.339h1.728v.696h.129q.206-.426.587-.638.38-.213.87-.213.387 0 .774.142l-.387 1.715q-.296-.129-.632-.129-.541 0-.877.406-.335.407-.335 1.155v3.185h-1.857zM197.169 39.813q-.826 0-1.516-.432-.69-.432-1.096-1.187-.406-.754-.406-1.696 0-.941.406-1.702t1.109-1.187q.703-.425 1.554-.425.58 0 1.038.168.458.167.742.477v-.49h1.857v6.32h-1.754v-.62H199q-.245.361-.71.568-.464.206-1.121.206zm.386-1.728q.645 0 1.097-.452.451-.451.451-1.135 0-.683-.451-1.135-.452-.451-1.097-.451-.644 0-1.096.451-.451.452-.451 1.135 0 .684.451 1.135.452.452 1.096.452z" stroke-width=".0129"/></g><g fill="#FFF" stroke="#FFF"><path d="M3.03 54q-.98 0-1.624-.4-.645-.4-.968-1.032l1.393-.954q.168.348.516.58.348.232.761.232.684 0 .684-.49 0-.245-.278-.393-.277-.149-1.064-.38-1.74-.517-1.74-1.91 0-.85.664-1.367.664-.516 1.644-.516.838 0 1.412.316t.884.897l-1.251.877q-.452-.645-1.084-.645-.27 0-.438.103-.168.103-.168.31 0 .206.213.31.213.102.935.334.941.31 1.444.761.503.452.503 1.251 0 .62-.303 1.097t-.857.748q-.555.27-1.277.27zM12.381 51.15H8.048q.129.605.567.954.439.348.993.348.465 0 .813-.194.348-.193.529-.503l1.47.774Q11.543 54 9.647 54q-1.019 0-1.78-.425-.76-.426-1.167-1.18-.406-.755-.406-1.709 0-.941.425-1.702.426-.761 1.155-1.187.728-.426 1.618-.426 1.006 0 1.703.42.696.419 1.038 1.135.342.715.342 1.618 0 .245-.04.439zm-1.6-1.213q-.09-.49-.418-.767-.33-.278-.87-.278-.504 0-.865.284t-.516.761zM13.838 47.525h1.729v.697h.129q.206-.426.586-.639.38-.213.87-.213.388 0 .775.142l-.387 1.716q-.297-.13-.632-.13-.542 0-.877.407-.335.406-.335 1.154v3.186h-1.858zM25.355 54q-.954 0-1.734-.426t-1.225-1.18q-.445-.755-.445-1.709 0-.954.445-1.709.444-.754 1.225-1.18.78-.426 1.734-.426.955 0 1.735.426.78.426 1.225 1.18.445.755.445 1.709 0 .954-.445 1.709-.445.754-1.225 1.18-.78.426-1.735.426zm0-1.729q.684 0 1.116-.419.432-.419.432-1.167t-.432-1.167q-.432-.42-1.116-.42-.683 0-1.115.42-.432.419-.432 1.167t.432 1.167q.432.42 1.115.42zM40.355 47.37q1.083 0 1.605.6.523.6.523 1.696v4.179h-1.858V50.13q0-1.031-.877-1.031-.477 0-.715.329-.239.328-.239.96v3.457h-1.857V50.13q0-1.031-.877-1.031-.477 0-.716.329-.239.328-.239.96v3.457h-1.857v-6.32h1.729v.645h.128q.49-.8 1.561-.8 1.277 0 1.806.865.283-.426.793-.645.51-.22 1.09-.22zM49.782 51.15H45.45q.129.605.567.954.439.348.993.348.465 0 .813-.194.348-.193.529-.503l1.47.774Q48.944 54 47.048 54q-1.019 0-1.78-.425-.76-.426-1.167-1.18-.406-.755-.406-1.709 0-.941.425-1.702.426-.761 1.155-1.187.728-.426 1.618-.426 1.006 0 1.703.42.696.419 1.038 1.135.342.715.342 1.618 0 .245-.039.439zm-1.599-1.213q-.09-.49-.42-.767-.328-.278-.87-.278-.503 0-.864.284-.36.284-.516.761zM51.188 44.817h1.857v9.028h-1.857zM54.438 44.817h1.728v3.392h.13q.283-.4.767-.62.483-.219 1.05-.219 1.136 0 1.697.594.56.593.56 1.818v4.063h-1.857v-3.586q0-.567-.264-.864-.264-.296-.793-.296t-.845.374q-.316.374-.316.993v3.379h-1.857zM64.988 54q-.955 0-1.735-.426-.78-.426-1.225-1.18-.445-.755-.445-1.709 0-.954.445-1.709.445-.754 1.225-1.18.78-.426 1.735-.426.954 0 1.734.426t1.226 1.18q.445.755.445 1.709 0 .954-.445 1.709-.445.754-1.226 1.18-.78.426-1.734.426zm0-1.729q.683 0 1.115-.419.432-.419.432-1.167t-.432-1.167q-.432-.42-1.115-.42-.684 0-1.116.42-.432.419-.432 1.167t.432 1.167q.432.42 1.116.42zM69.656 47.525h1.729v.697h.129q.206-.426.586-.639.38-.213.87-.213.388 0 .775.142l-.387 1.716q-.297-.13-.632-.13-.542 0-.877.407-.335.406-.335 1.154v3.186h-1.858zM83.856 51.15h-4.333q.129.605.567.954.439.348.993.348.464 0 .813-.194.348-.193.528-.503l1.47.774Q83.019 54 81.123 54q-1.02 0-1.78-.425-.76-.426-1.167-1.18-.406-.755-.406-1.709 0-.941.425-1.702.426-.761 1.154-1.187.73-.426 1.619-.426 1.006 0 1.702.42.697.419 1.039 1.135.341.715.341 1.618 0 .245-.038.439zm-1.6-1.213q-.09-.49-.418-.767-.33-.278-.871-.278-.503 0-.864.284t-.516.761zM92.42 47.37q1.083 0 1.605.6.523.6.523 1.696v4.179H92.69V50.13q0-1.031-.877-1.031-.477 0-.715.329-.239.328-.239.96v3.457h-1.857V50.13q0-1.031-.877-1.031-.477 0-.716.329-.239.328-.239.96v3.457h-1.857v-6.32h1.728v.645h.13q.49-.8 1.56-.8 1.277 0 1.806.865.283-.426.793-.645.51-.22 1.09-.22zM99.216 47.525h1.754v.568h.103q.258-.336.723-.53.464-.193 1.109-.193.825 0 1.515.433.69.432 1.096 1.186.407.755.407 1.696t-.407 1.702q-.406.761-1.109 1.187-.703.426-1.554.426-.58 0-1.045-.149-.464-.148-.735-.445v3.147h-1.857zm3.302 4.746q.645 0 1.096-.451.451-.451.451-1.135 0-.684-.45-1.135-.452-.451-1.097-.451t-1.096.451q-.452.451-.452 1.135 0 .684.452 1.135.451.451 1.096.451zM109.972 54q-.825 0-1.515-.433-.69-.432-1.096-1.186-.407-.755-.407-1.696t.407-1.702q.406-.761 1.109-1.187.703-.426 1.554-.426.58 0 1.038.168.458.168.742.477v-.49h1.857v6.32h-1.754v-.62h-.103q-.245.362-.71.568-.464.207-1.122.207zm.387-1.729q.645 0 1.096-.451.452-.451.452-1.135 0-.684-.452-1.135-.451-.451-1.096-.451t-1.096.451q-.451.451-.451 1.135 0 .684.45 1.135.452.451 1.097.451zM115.157 47.525h1.728v.697h.129q.206-.426.587-.639.38-.213.87-.213.387 0 .774.142l-.387 1.716q-.296-.13-.632-.13-.541 0-.877.407-.335.406-.335 1.154v3.186h-1.857zM122.418 49.073v2.476q0 .361.167.574.168.213.452.213.22 0 .355-.039.135-.039.29-.129v1.625q-.374.207-.929.207-1.019 0-1.606-.587-.586-.587-.586-1.67v-2.67h-.594v-1.548h.594v-1.25l1.857-.659v1.91h1.264v1.547zM125.952 46.648q-.452 0-.78-.329-.33-.328-.33-.78 0-.451.33-.78.328-.329.78-.329.451 0 .78.329t.329.78q0 .452-.33.78-.328.33-.78.33zm-.929.877h1.857v6.32h-1.857zM131.24 54q-.826 0-1.516-.433-.69-.432-1.096-1.186-.407-.755-.407-1.696t.407-1.702q.406-.761 1.109-1.187.703-.426 1.554-.426.58 0 1.045.149.464.148.735.445v-3.147h1.857v9.028h-1.754v-.568h-.103q-.258.336-.723.53-.464.193-1.109.193zm.386-1.729q.645 0 1.096-.451.452-.451.452-1.135 0-.684-.452-1.135-.45-.451-1.096-.451-.645 0-1.096.451-.451.451-.451 1.135 0 .684.451 1.135.451.451 1.096.451zM139.158 54q-.825 0-1.515-.433-.69-.432-1.097-1.186-.406-.755-.406-1.696t.406-1.702q.407-.761 1.11-1.187.702-.426 1.554-.426.58 0 1.038.168.458.168.741.477v-.49h1.858v6.32h-1.754v-.62h-.104q-.245.362-.709.568-.464.207-1.122.207zm.387-1.729q.645 0 1.096-.451.452-.451.452-1.135 0-.684-.452-1.135-.451-.451-1.096-.451t-1.096.451q-.452.451-.452 1.135 0 .684.452 1.135.451.451 1.096.451zM146.625 54q-.98 0-1.625-.4-.644-.4-.967-1.032l1.393-.954q.168.348.516.58.348.232.76.232.684 0 .684-.49 0-.245-.277-.393-.277-.149-1.064-.38-1.741-.517-1.741-1.91 0-.85.664-1.367.664-.516 1.644-.516.839 0 1.413.316.574.316.883.897l-1.25.877q-.452-.645-1.084-.645-.271 0-.439.103-.167.103-.167.31 0 .206.212.31.213.102.935.334.942.31 1.445.761.503.452.503 1.251 0 .62-.303 1.097t-.858.748q-.554.27-1.277.27zM156.75 54q-.955 0-1.735-.426-.78-.426-1.225-1.18-.445-.755-.445-1.709 0-.954.445-1.709.445-.754 1.225-1.18.78-.426 1.734-.426.955 0 1.735.426.78.426 1.225 1.18.445.755.445 1.709 0 .954-.445 1.709-.445.754-1.225 1.18-.78.426-1.735.426zm0-1.729q.683 0 1.115-.419.432-.419.432-1.167t-.432-1.167q-.432-.42-1.116-.42-.683 0-1.115.42-.432.419-.432 1.167t.432 1.167q.432.42 1.115.42zM161.418 47.525h1.728v.632h.13q.257-.36.722-.574.464-.213 1.07-.213 1.032 0 1.593.607.56.606.56 1.69v4.178h-1.856v-3.65q0-.529-.233-.813-.232-.283-.76-.283-.516 0-.806.367-.29.368-.29 1v3.379h-1.858zM168.821 49.034h4.32v1.6h-4.32zM174.74 44.817h1.858v9.028h-1.857zM179.048 46.648q-.451 0-.78-.329-.329-.328-.329-.78 0-.451.329-.78t.78-.329q.452 0 .78.329.33.329.33.78 0 .452-.33.78-.328.33-.78.33zm-.928.877h1.857v6.32h-1.857zM181.55 47.525h1.728v.632h.13q.257-.36.722-.574.464-.213 1.07-.213 1.032 0 1.593.607.56.606.56 1.69v4.178h-1.856v-3.65q0-.529-.232-.813-.233-.283-.761-.283-.516 0-.806.367-.29.368-.29 1v3.379h-1.858zM194.654 51.15h-4.334q.13.605.568.954.438.348.993.348.464 0 .812-.194.348-.193.529-.503l1.47.774Q193.815 54 191.92 54q-1.018 0-1.78-.425-.76-.426-1.167-1.18-.406-.755-.406-1.709 0-.941.426-1.702.425-.761 1.154-1.187.729-.426 1.619-.426 1.006 0 1.702.42.697.419 1.038 1.135.342.715.342 1.618 0 .245-.039.439zm-1.6-1.213q-.09-.49-.419-.767-.329-.278-.87-.278-.503 0-.864.284-.362.284-.516.761z" stroke-width=".0129"/></g><g fill="#FFF" stroke="#FFF"><path d="M3.534 68.186q-.826 0-1.516-.432-.69-.432-1.096-1.186-.406-.755-.406-1.696 0-.942.406-1.703.406-.76 1.11-1.186.702-.426 1.553-.426.58 0 1.045.148.464.149.735.445v-3.146h1.857v9.027H5.468v-.567h-.103q-.258.335-.722.529-.464.193-1.11.193zm.387-1.728q.645 0 1.096-.451.451-.452.451-1.135 0-.684-.451-1.135-.451-.452-1.096-.452t-1.097.452q-.451.451-.451 1.135 0 .683.451 1.135.452.451 1.097.451zM14.522 65.336h-4.333q.129.606.567.954.439.349.993.349.464 0 .813-.194.348-.193.528-.503l1.47.774q-.876 1.47-2.772 1.47-1.02 0-1.78-.425-.76-.426-1.167-1.18-.406-.755-.406-1.71 0-.94.425-1.702.426-.76 1.154-1.186.73-.426 1.619-.426 1.006 0 1.702.42.697.418 1.039 1.134.341.716.341 1.619 0 .245-.038.438zm-1.6-1.212q-.09-.49-.418-.768-.33-.277-.871-.277-.503 0-.864.284-.361.283-.516.76zM19.204 61.712h1.728v.696h.129q.206-.425.587-.638.38-.213.87-.213.387 0 .774.142l-.387 1.715q-.297-.129-.632-.129-.542 0-.877.407-.335.406-.335 1.154v3.185h-1.857zM25.33 60.835q-.452 0-.78-.329-.33-.329-.33-.78 0-.452.33-.78.328-.33.78-.33.451 0 .78.33.329.328.329.78 0 .451-.33.78-.328.329-.78.329zm-.929.877h1.857v6.32h-1.857zM29.973 63.26v2.476q0 .36.167.574.168.212.452.212.219 0 .354-.038.136-.039.29-.13v1.626q-.374.206-.928.206-1.019 0-1.606-.587-.587-.586-.587-1.67v-2.67h-.593v-1.547h.593V60.46l1.858-.658v1.909h1.263v1.548zM39.607 61.557q1.083 0 1.605.6.523.6.523 1.696v4.178h-1.858v-3.714q0-1.032-.877-1.032-.477 0-.715.33-.239.328-.239.96v3.456h-1.857v-3.714q0-1.032-.877-1.032-.477 0-.716.33-.239.328-.239.96v3.456H32.5v-6.32h1.728v.646h.13q.49-.8 1.56-.8 1.277 0 1.806.864.283-.425.793-.645.51-.219 1.09-.219zM46.352 68.186q-.955 0-1.735-.425-.78-.426-1.225-1.18-.445-.755-.445-1.71 0-.954.445-1.708.445-.755 1.225-1.18.78-.426 1.735-.426.954 0 1.734.426.78.425 1.225 1.18.445.754.445 1.709 0 .954-.445 1.708-.444.755-1.225 1.18-.78.426-1.734.426zm0-1.728q.683 0 1.115-.42.432-.418.432-1.166t-.432-1.168q-.432-.419-1.115-.419-.684 0-1.116.42-.432.419-.432 1.167t.432 1.167q.432.419 1.116.419zM54.245 61.712h1.728v.696h.129q.206-.425.587-.638.38-.213.87-.213.387 0 .774.142l-.387 1.715q-.297-.129-.632-.129-.542 0-.877.407-.335.406-.335 1.154v3.185h-1.857zM61.79 68.186q-.826 0-1.516-.432-.69-.432-1.096-1.186-.407-.755-.407-1.696 0-.942.407-1.703.406-.76 1.109-1.186.703-.426 1.554-.426.58 0 1.038.168.458.167.742.477v-.49h1.857v6.32h-1.754v-.62h-.103q-.245.361-.71.568-.464.206-1.122.206zm.386-1.728q.645 0 1.096-.451.452-.452.452-1.135 0-.684-.452-1.135-.451-.452-1.096-.452t-1.096.452q-.451.451-.451 1.135 0 .683.45 1.135.452.451 1.097.451zm-.387-7.712h2.154l-1.11 1.831h-1.701zM66.974 61.712h1.754v.567h.103q.258-.335.722-.528.465-.194 1.11-.194.825 0 1.515.432t1.096 1.187q.406.754.406 1.696 0 .941-.406 1.702t-1.11 1.187q-.702.425-1.553.425-.58 0-1.045-.148-.464-.148-.735-.445v3.147h-1.857zm3.301 4.746q.645 0 1.097-.451.451-.452.451-1.135 0-.684-.451-1.135-.452-.452-1.097-.452-.644 0-1.096.452-.451.451-.451 1.135 0 .683.451 1.135.452.451 1.096.451zM75.95 60.835q-.451 0-.78-.329t-.329-.78q0-.452.329-.78.329-.33.78-.33.452 0 .78.33.33.328.33.78 0 .451-.33.78-.328.329-.78.329zm-.928.877h1.857v6.32h-1.857zM81.238 68.186q-.826 0-1.516-.432-.69-.432-1.096-1.186-.406-.755-.406-1.696 0-.942.406-1.703.406-.76 1.11-1.186.702-.426 1.553-.426.58 0 1.045.148.464.149.735.445v-3.146h1.857v9.027h-1.754v-.567h-.103q-.258.335-.722.529-.464.193-1.11.193zm.387-1.728q.645 0 1.096-.451.451-.452.451-1.135 0-.684-.451-1.135-.451-.452-1.096-.452t-1.096.452q-.452.451-.452 1.135 0 .683.452 1.135.45.451 1.096.451zM89.543 68.186q-.954 0-1.734-.425-.78-.426-1.225-1.18-.445-.755-.445-1.71 0-.954.445-1.708.445-.755 1.225-1.18.78-.426 1.734-.426.955 0 1.735.426.78.425 1.225 1.18.445.754.445 1.709 0 .954-.445 1.708-.445.755-1.225 1.18-.78.426-1.735.426zm0-1.728q.684 0 1.116-.42.432-.418.432-1.166t-.432-1.168q-.432-.419-1.116-.419-.683 0-1.115.42-.432.419-.432 1.167t.432 1.167q.432.419 1.115.419zM94.78 68.16q-.439 0-.748-.31-.31-.309-.31-.747 0-.439.31-.748.31-.31.748-.31t.748.31q.31.31.31.748t-.31.748q-.31.31-.748.31z" stroke-width=".0129"/></g></svg>