<svg width="100%" height="100%" viewBox="0 0 69 20" fill="none" xmlns="http://www.w3.org/2000/svg" preserveAspectRatio="none"><g clip-path="url(#clip0_58_10)"><path d="M15.4782 7.83968C15.4782 8.33907 15.3627 8.72426 15.1332 8.99352C14.9038 9.26283 14.5751 9.39829 14.1488 9.39829C13.7225 9.39829 13.3938 9.26445 13.1644 8.99352C12.935 8.72426 12.8195 8.33907 12.8195 7.83968V3.86884H11.3436V7.95716C11.3436 8.50228 11.4527 8.99029 11.6691 9.42277C11.8855 9.85363 12.206 10.1915 12.6291 10.4347C13.0521 10.6778 13.5598 10.8002 14.1472 10.8002C14.7362 10.8002 15.2423 10.6778 15.6653 10.4347C16.0884 10.1915 16.4089 9.85363 16.6253 9.42277C16.8418 8.99191 16.9508 8.50228 16.9508 7.95716V3.86884H15.475V7.83968H15.4782Z" fill="white" data-color-group="0"/><path d="M29.4975 9.78668C29.7074 9.45538 29.8132 9.06365 29.8132 8.60832C29.8132 8.10238 29.6716 7.6976 29.3869 7.39571C29.1021 7.09376 28.6563 6.83588 28.0477 6.62207C27.5303 6.44093 27.1691 6.27611 26.9657 6.13083C26.7623 5.98559 26.6598 5.81423 26.6598 5.62C26.6598 5.44536 26.733 5.30174 26.8778 5.19241C27.0226 5.08142 27.2098 5.02755 27.4359 5.02755C27.9403 5.02755 28.3097 5.29031 28.5424 5.81584L29.7172 4.99819C29.5301 4.58853 29.2437 4.28008 28.8581 4.06788C28.4724 3.85738 28.0184 3.75128 27.4945 3.75128C27.0682 3.75128 26.6858 3.83452 26.349 3.99934C26.0122 4.16421 25.7502 4.3943 25.5631 4.68647C25.376 4.9786 25.2816 5.30663 25.2816 5.66895C25.2816 6.19448 25.4378 6.6123 25.7519 6.91912C26.0659 7.22757 26.5166 7.48872 27.1056 7.70253C27.5775 7.87063 27.9013 8.03057 28.0754 8.17907C28.2495 8.32762 28.3374 8.50715 28.3374 8.71442C28.3374 8.92819 28.2593 9.09956 28.1047 9.22525C27.9501 9.35255 27.7483 9.41455 27.5027 9.41455C27.2179 9.41455 26.9527 9.32315 26.707 9.14201C26.4613 8.96082 26.2855 8.72092 26.183 8.42225L25.0099 9.30033C25.197 9.78014 25.5045 10.1506 25.9325 10.4101C26.3588 10.6696 26.8697 10.8002 27.4652 10.8002C27.8981 10.8002 28.2935 10.7137 28.6498 10.5423C29.0045 10.3693 29.2876 10.118 29.4975 9.78668Z" fill="white" data-color-group="0"/><path d="M48.2443 3.86884H42.9543V5.26917H44.8662V10.6827H46.3421V5.26917H48.2443V3.86884Z" fill="white" data-color-group="0"/><path d="M21.3022 10.4249C21.6651 10.2535 21.945 10.0136 22.1418 9.70512C22.3387 9.39668 22.438 9.0474 22.438 8.65895C22.438 7.84129 22.0329 7.27986 21.2241 6.97469C21.5024 6.85715 21.7204 6.67763 21.8799 6.43445C22.0377 6.19127 22.1175 5.88444 22.1175 5.51396C22.1175 5.00802 21.9205 4.60652 21.5252 4.31112C21.1298 4.01573 20.6026 3.86884 19.9436 3.86884H17.6819V10.6827H20.0298C20.5163 10.6827 20.9394 10.5962 21.3022 10.4249ZM19.1577 5.17289H19.9338C20.1665 5.17289 20.352 5.23654 20.4919 5.36219C20.6303 5.48949 20.7002 5.66574 20.7002 5.8926C20.7002 6.11947 20.6303 6.29737 20.4919 6.42302C20.352 6.55032 20.1665 6.61236 19.9338 6.61236H19.1577V5.17289ZM19.1577 9.37709V7.66342H19.9729C20.2902 7.66342 20.5342 7.73685 20.7051 7.88212C20.8759 8.02736 20.9622 8.24117 20.9622 8.52026C20.9622 8.79934 20.8759 9.0115 20.7051 9.15839C20.5342 9.30362 20.2885 9.37709 19.9729 9.37709H19.1577Z" fill="white" data-color-group="0"/><path d="M39.2182 7.96698H42.0999V6.83757H39.2182V5.26917H42.3911V3.86884H37.7424V10.6827H39.2182V7.96698Z" fill="white" data-color-group="0"/><path d="M35.468 4.21316C34.9392 3.90633 34.3469 3.75128 33.6863 3.75128C33.1558 3.75128 32.6644 3.84107 32.2105 4.01893C31.7581 4.19684 31.3953 4.42698 31.1235 4.70606L31.3562 4.93942C31.0064 5.23159 30.7314 5.59387 30.5313 6.02477C30.3311 6.45563 30.2303 6.95176 30.2303 7.50992C30.2303 8.10726 30.3751 8.65727 30.6663 9.15994C30.9576 9.66265 31.3644 10.0625 31.8899 10.3579C32.4139 10.6533 33.0126 10.8002 33.6847 10.8002C34.3453 10.8002 34.9375 10.6468 35.4648 10.3383C35.9919 10.0299 36.4036 9.60877 36.6965 9.07347C36.991 8.53812 37.1375 7.93917 37.1375 7.27817C37.1375 6.62207 36.9894 6.02639 36.6965 5.48781C36.4052 4.94596 35.9952 4.5216 35.468 4.21316ZM35.4046 8.37003C35.2435 8.69156 35.0124 8.94289 34.7163 9.12403C34.4185 9.30522 34.0752 9.39662 33.6879 9.39662C33.2925 9.39662 32.9476 9.30849 32.6498 9.13385C32.352 8.95921 32.1242 8.72419 31.9648 8.42879C31.807 8.1334 31.7272 7.81025 31.7272 7.46097C31.7272 7.11662 31.789 6.82938 31.9111 6.59925C32.0331 6.36912 32.1991 6.16673 32.4057 5.99048L32.1731 5.75708C32.3406 5.57594 32.5538 5.42905 32.8092 5.31972C33.0647 5.20873 33.3576 5.15485 33.6879 5.15485C34.0768 5.15485 34.4185 5.24625 34.7163 5.42743C35.014 5.60857 35.2435 5.8599 35.4046 6.18143C35.5656 6.50297 35.647 6.8669 35.647 7.27656C35.647 7.68456 35.5656 8.0485 35.4046 8.37003Z" fill="white" data-color-group="0"/><path d="M24.4859 3.86884H23.0101V10.6827H24.4859V3.86884Z" fill="white" data-color-group="0"/><path d="M3.16274 13.6722C3.55386 13.4307 3.99608 13.3106 4.49044 13.3106C5.00567 13.3106 5.42912 13.4151 5.76181 13.6252C6.09454 13.8352 6.37403 14.153 6.60142 14.5794L7.34294 14.0735C7.08222 13.5437 6.71094 13.136 6.23009 12.8507C5.74929 12.5654 5.16003 12.4222 4.45915 12.4222C3.8 12.4222 3.20446 12.58 2.67255 12.8967C2.14063 13.2134 1.72241 13.6555 1.41682 14.223C1.11227 14.7916 0.958954 15.4364 0.958954 16.1586C0.958954 16.8881 1.11227 17.5361 1.41682 18.1037C1.72241 18.6712 2.14481 19.1112 2.68298 19.4247C3.22219 19.7372 3.82399 19.894 4.49044 19.894C5.17045 19.894 5.74199 19.7508 6.20506 19.4655C6.66817 19.1802 7.0478 18.7652 7.34294 18.2228L6.58056 17.6866C6.33336 18.1549 6.05595 18.4914 5.74616 18.6973C5.43746 18.9042 5.01923 19.0067 4.49044 19.0067C3.96896 19.0067 3.51526 18.8886 3.13145 18.6513C2.7466 18.4141 2.4504 18.0817 2.24076 17.6553C2.03112 17.2289 1.92683 16.7303 1.92683 16.1586C1.92683 15.6089 2.03529 15.1166 2.25119 14.6828C2.46813 14.2502 2.77163 13.9126 3.16274 13.6722Z" fill="white" data-color-group="0"/><path d="M13.6182 12.9071C13.0789 12.5842 12.4698 12.4222 11.7909 12.4222C11.1119 12.4222 10.5018 12.5842 9.96257 12.9071C9.42336 13.2301 9.00301 13.6764 8.70161 14.2439C8.39917 14.8114 8.24792 15.449 8.24792 16.1576C8.24792 16.8662 8.39917 17.5048 8.70161 18.0713C9.00405 18.6388 9.4244 19.084 9.96257 19.408C10.5018 19.731 11.1109 19.893 11.7909 19.893C12.4709 19.893 13.0789 19.731 13.6182 19.408C14.1574 19.0851 14.5777 18.6388 14.8791 18.0713C15.1816 17.5037 15.3328 16.8662 15.3328 16.1576C15.3328 15.449 15.1816 14.8114 14.8791 14.2439C14.5777 13.6764 14.1574 13.2311 13.6182 12.9071ZM14.0405 17.6281C13.8247 18.0587 13.5201 18.3952 13.13 18.6398C12.7389 18.8844 12.2926 19.0056 11.7919 19.0056C11.2902 19.0056 10.8449 18.8844 10.4538 18.6398C10.0627 18.3963 9.75917 18.0587 9.54226 17.6281C9.32635 17.1986 9.21787 16.7084 9.21787 16.1576C9.21787 15.6078 9.32635 15.1176 9.54226 14.687C9.75813 14.2575 10.0627 13.9199 10.4538 13.6764C10.8449 13.4318 11.2913 13.3095 11.7919 13.3095C12.2926 13.3095 12.7389 13.4318 13.13 13.6764C13.5211 13.9209 13.8247 14.2575 14.0405 14.687C14.2575 15.1166 14.3649 15.6078 14.3649 16.1576C14.3649 16.7084 14.2565 17.1986 14.0405 17.6281Z" fill="white" data-color-group="0"/><path d="M21.1821 17.7984L21.2436 18.6544H21.1821L17.7424 12.5465H16.446V19.7685H17.393V14.5166L17.3304 13.6606H17.393L20.8317 19.7685H22.1291V12.5465H21.1821V17.7984Z" fill="white" data-color-group="0"/><path d="M28.1427 17.7984L28.2043 18.6544H28.1427L24.703 12.5465H23.4055V19.7685H24.3536V14.5166L24.2911 13.6606H24.3536L27.7923 19.7685H29.0897V12.5465H28.1427V17.7984Z" fill="white" data-color-group="0"/><path d="M31.313 16.5495H34.5973V15.7656H31.313V13.4338H34.9478V12.5465H30.366V19.7685H35.0093V18.8812H31.313V16.5495Z" fill="white" data-color-group="0"/><path d="M38.0169 13.6722C38.408 13.4307 38.8502 13.3106 39.3445 13.3106C39.8598 13.3106 40.2832 13.4151 40.6159 13.6252C40.9486 13.8352 41.2282 14.153 41.4555 14.5794L42.1971 14.0735C41.9363 13.5437 41.565 13.136 41.0842 12.8507C40.6034 12.5654 40.0141 12.4222 39.3132 12.4222C38.6541 12.4222 38.0586 12.58 37.5267 12.8967C36.9947 13.2134 36.5765 13.6555 36.2709 14.223C35.9653 14.7905 35.8131 15.4354 35.8131 16.1576C35.8131 16.8871 35.9664 17.5351 36.2709 18.1026C36.5765 18.6701 36.9989 19.1102 37.5371 19.4237C38.0763 19.7362 38.6781 19.893 39.3445 19.893C40.0246 19.893 40.5961 19.7498 41.0592 19.4644C41.5223 19.1791 41.9019 18.7642 42.1971 18.2218L41.4346 17.6856C41.1875 18.1538 40.91 18.4904 40.6003 18.6963C40.2916 18.9032 39.8733 19.0056 39.3445 19.0056C38.8231 19.0056 38.3694 18.8875 37.9856 18.6503C37.6007 18.413 37.3045 18.0807 37.0949 17.6542C36.8852 17.2278 36.7809 16.7293 36.7809 16.1576C36.7809 15.6078 36.8894 15.1155 37.1053 14.6818C37.3222 14.2502 37.6257 13.9126 38.0169 13.6722Z" fill="white" data-color-group="0"/><path d="M43.0417 12.5465V13.4129H45.1838V19.7685H46.1308V13.4129H48.2617V12.5465H43.0417Z" fill="white" data-color-group="0"/><path d="M50.7568 3.96265H51.5299V19.8932H50.7568V3.96265Z" fill="white" data-color-group="0"/><path d="M53.9193 8.35071H56.4009C56.8755 8.35071 57.2893 8.44263 57.6417 8.62643C57.9942 8.81027 58.2654 9.06898 58.4553 9.40255C58.6452 9.72936 58.74 10.1072 58.74 10.5361C58.74 10.965 58.6452 11.3463 58.4553 11.6799C58.2654 12.0066 57.9942 12.262 57.6417 12.4458C57.2893 12.6296 56.8755 12.7215 56.4009 12.7215H55.4652V15.4992H53.9193V8.35071ZM56.3909 11.3531C56.6417 11.3531 56.8451 11.2816 57.0011 11.1386C57.1567 10.9957 57.2349 10.7948 57.2349 10.5361C57.2349 10.2774 57.1567 10.0765 57.0011 9.93358C56.8451 9.79062 56.6417 9.71915 56.3909 9.71915H55.4652V11.3531H56.3909Z" fill="white" data-color-group="0"/><path d="M63.1799 15.6217C62.495 15.6217 61.8748 15.4686 61.3185 15.1622C60.7627 14.849 60.3255 14.4133 60.0069 13.8551C59.6883 13.29 59.5288 12.6466 59.5288 11.925C59.5288 11.2101 59.6814 10.5735 59.9865 10.0153C60.2985 9.45023 60.7288 9.01108 61.2781 8.69792C61.827 8.38473 62.4511 8.22815 63.1491 8.22815C63.8544 8.22815 64.4646 8.37792 64.9801 8.67751C65.502 8.97024 65.8849 9.38893 66.1292 9.93357L64.8784 10.8016C64.4985 10.0663 63.9188 9.69873 63.1391 9.69873C62.7458 9.69873 62.3933 9.79741 62.0813 9.99487C61.7762 10.1855 61.5358 10.451 61.3594 10.7914C61.1829 11.125 61.0951 11.5029 61.0951 11.925C61.0951 12.3471 61.1829 12.7249 61.3594 13.0585C61.5358 13.3921 61.7762 13.6542 62.0813 13.8449C62.3933 14.0355 62.7458 14.1308 63.1391 14.1308C63.5459 14.1308 63.8884 14.0389 64.1661 13.8551C64.4442 13.6644 64.678 13.3853 64.8679 13.0176L66.1496 13.8959C65.8645 14.4542 65.4716 14.8831 64.9696 15.1826C64.4746 15.4754 63.8779 15.6217 63.1799 15.6217Z" fill="white" data-color-group="0"/></g><defs><clipPath id="clip0_58_10"><rect width="68" height="19" fill="white" transform="translate(0.595306 0.89325)" data-color-group="0"/></clipPath></defs></svg>